<svg width="37" height="37" viewBox="0 0 37 37" fill="none" xmlns="http://www.w3.org/2000/svg">
<path d="M16.6315 26.3874C15.7489 26.3874 14.8664 25.9834 14.0436 25.1607L10.4684 21.5855C8.82294 19.94 8.82294 18.0552 10.4684 16.4247L16.4371 10.456C16.6465 10.2466 16.9307 10.127 17.2299 10.127C17.5291 10.127 17.8133 10.2466 18.0227 10.456L24.5897 17.023C24.9636 17.397 25.1581 17.8906 25.1581 18.4142C25.1581 18.9377 24.9487 19.4315 24.5747 19.8054L19.2044 25.1757C18.3967 25.9685 17.5141 26.3874 16.6315 26.3874ZM17.2299 12.8195L12.0541 17.9954C11.7998 18.2497 11.4857 18.6386 11.4857 18.9976C11.4857 19.3566 11.7998 19.7307 12.0541 19.9999L15.6293 23.5751C15.8836 23.8294 16.2725 24.1436 16.6315 24.1436C16.9905 24.1436 17.3645 23.8294 17.6338 23.5751L22.8096 18.3992L17.2299 12.8195Z" fill="#FB8344"/>
<path d="M17.2297 12.3568C16.9455 12.3568 16.6613 12.2521 16.4369 12.0277L15.2402 10.8309C14.8063 10.3971 14.8063 9.67909 15.2402 9.24528C15.674 8.81147 16.392 8.81147 16.8258 9.24528L18.0225 10.4421C18.4563 10.8759 18.4563 11.5939 18.0225 12.0277C17.7982 12.2521 17.5139 12.3568 17.2297 12.3568Z" fill="#FB8344"/>
<path d="M10.4233 20.0605C9.82494 20.0605 9.3313 19.5968 9.30138 18.9835C9.27146 18.3702 9.75015 17.8466 10.3784 17.8167L23.8864 17.2333C24.4997 17.1884 25.0232 17.682 25.0531 18.3103C25.0831 18.9386 24.6044 19.4471 23.9761 19.4771L10.4682 20.0605C10.4532 20.0605 10.4383 20.0605 10.4233 20.0605Z" fill="#FB8344"/>
<path d="M25.3976 27.3451C23.8718 27.3451 22.6302 26.1036 22.6302 24.5778C22.6302 23.1567 24.1261 21.4215 24.5749 20.9279C24.9937 20.4641 25.8015 20.4641 26.2203 20.9279C26.6691 21.4215 28.165 23.1567 28.165 24.5778C28.18 26.1036 26.9384 27.3451 25.3976 27.3451ZM25.3976 23.5008C25.0835 23.9645 24.874 24.3833 24.874 24.5778C24.874 24.862 25.1134 25.1013 25.3976 25.1013C25.6818 25.1013 25.9212 24.862 25.9212 24.5778C25.9361 24.3833 25.7117 23.9645 25.3976 23.5008Z" fill="#FB8344"/>
<path d="M18.7108 34.525C9.8401 34.525 2.62988 27.3148 2.62988 18.4441C2.62988 9.57349 9.8401 2.36328 18.7108 2.36328C27.5814 2.36328 34.7916 9.57349 34.7916 18.4441C34.7916 27.3148 27.5814 34.525 18.7108 34.525ZM18.7108 4.60712C11.0817 4.60712 4.87372 10.8151 4.87372 18.4441C4.87372 26.0732 11.0817 32.2812 18.7108 32.2812C26.3398 32.2812 32.5478 26.0732 32.5478 18.4441C32.5478 10.8151 26.3398 4.60712 18.7108 4.60712Z" fill="#FB8344"/>
</svg>
