<svg width="23" height="23" viewBox="0 0 23 23" fill="none" xmlns="http://www.w3.org/2000/svg">
<path d="M11.5221 11.7919C10.5042 11.7919 9.63277 11.4295 8.90787 10.7046C8.18297 9.97966 7.82052 9.10824 7.82052 8.09029C7.82052 7.07235 8.18297 6.20092 8.90787 5.47602C9.63277 4.75112 10.5042 4.38867 11.5221 4.38867C12.5401 4.38867 13.4115 4.75112 14.1364 5.47602C14.8613 6.20092 15.2238 7.07235 15.2238 8.09029C15.2238 9.10824 14.8613 9.97966 14.1364 10.7046C13.4115 11.4295 12.5401 11.7919 11.5221 11.7919ZM4.1189 19.1952V16.604C4.1189 16.0796 4.25401 15.5975 4.52422 15.1576C4.79444 14.7177 5.15288 14.3824 5.59954 14.1517C6.5558 13.6736 7.52747 13.3148 8.51457 13.0754C9.50167 12.8361 10.5042 12.7167 11.5221 12.7173C12.5401 12.7173 13.5426 12.837 14.5297 13.0764C15.5168 13.3157 16.4885 13.6742 17.4447 14.1517C17.892 14.383 18.2508 14.7187 18.521 15.1585C18.7912 15.5984 18.926 16.0802 18.9254 16.604V19.1952H4.1189Z" fill="#3527D6"/>
</svg>
