<svg width="37" height="37" viewBox="0 0 37 37" fill="none" xmlns="http://www.w3.org/2000/svg">
<path d="M28.3451 19.9677H23.3787C19.6539 19.9677 17.7691 17.8585 17.7691 13.6849V9.39172C17.7691 7.86591 17.9486 5.6819 19.5343 4.48519C20.8656 3.4979 22.7804 3.4231 25.6076 4.24584C29.3174 5.32289 32.4139 8.41939 33.491 12.1292C34.3137 14.9415 34.2389 16.8712 33.2516 18.1876C32.0549 19.7882 29.8709 19.9677 28.3451 19.9677ZM22.3017 5.92125C21.6883 5.92125 21.2097 6.04092 20.8955 6.28026C20.3121 6.71407 20.0279 7.73128 20.0279 9.39172V13.6999C20.0279 17.0507 21.3144 17.7388 23.3937 17.7388H28.36C30.0055 17.7388 31.0227 17.4546 31.4715 16.8712C31.9951 16.1831 31.9502 14.8069 31.3668 12.7874C30.4992 9.84049 27.9561 7.28251 25.0092 6.42985C23.9023 6.08579 23.0047 5.92125 22.3017 5.92125Z" fill="#6ED8A3"/>
<path d="M17.4999 34.9273C16.707 34.9273 15.8993 34.8675 15.0915 34.7328C8.97327 33.7455 3.99194 28.7792 3.00465 22.661C1.73314 14.7925 6.80422 7.37291 14.5679 5.78726C15.1812 5.66759 15.7646 6.05652 15.8993 6.65488C16.0189 7.26819 15.63 7.85159 15.0316 7.98622C8.46467 9.33253 4.15649 15.6153 5.24849 22.3019C6.0862 27.4777 10.2897 31.6812 15.4655 32.5189C22.182 33.5959 28.4498 29.2728 29.7812 22.6759C29.9008 22.0626 30.4992 21.6737 31.0976 21.7933C31.7109 21.913 32.0998 22.5114 31.9801 23.1097C30.559 30.0955 24.4558 34.9273 17.4999 34.9273Z" fill="#6ED8A3"/>
</svg>
