<svg width="35" height="35" viewBox="0 0 35 35" fill="none" xmlns="http://www.w3.org/2000/svg">
<path d="M21.9618 32.9728H13.4507C5.74809 32.9728 2.45712 29.6818 2.45712 21.9793V13.4681C2.45712 5.76558 5.74809 2.47461 13.4507 2.47461H16.2877C16.8693 2.47461 17.3516 2.95691 17.3516 3.5385C17.3516 4.12009 16.8693 4.60239 16.2877 4.60239H13.4507C6.91128 4.60239 4.5849 6.92876 4.5849 13.4681V21.9793C4.5849 28.5187 6.91128 30.845 13.4507 30.845H21.9618C28.5012 30.845 30.8275 28.5187 30.8275 21.9793V19.1422C30.8275 18.5606 31.3098 18.0783 31.8914 18.0783C32.473 18.0783 32.9553 18.5606 32.9553 19.1422V21.9793C32.9553 29.6818 29.6785 32.9728 21.9618 32.9728Z" fill="#4DADFB"/>
<path d="M18.8552 22.3199C18.6424 22.3199 18.4439 22.2631 18.2594 22.1355C17.9616 21.9369 17.7913 21.6106 17.7913 21.256C17.7913 21.0999 17.7771 20.9297 17.7488 20.7595C17.6495 20.0077 17.309 19.341 16.7416 18.7594C16.16 18.1778 15.4508 17.809 14.6706 17.7097C14.5571 17.6955 14.3727 17.6813 14.2025 17.6955C13.8478 17.7239 13.4932 17.5678 13.2804 17.2841C13.0677 17.0004 13.0109 16.6174 13.1244 16.277C13.2946 15.7947 13.5641 15.3408 13.8762 14.9861L15.621 12.8016C18.6566 9.01415 24.7705 4.47488 29.2813 2.67336C30.3169 2.27618 31.4091 2.50314 32.1609 3.25495C32.9411 4.03514 33.1681 5.14159 32.7567 6.14874C30.9552 10.6454 26.4159 16.7735 22.6427 19.7949L20.4156 21.5822C19.9759 21.8943 19.6212 22.1071 19.2524 22.2489C19.1247 22.2915 18.9829 22.3199 18.8552 22.3199ZM15.9331 15.8372C16.7984 16.1209 17.5786 16.6032 18.2453 17.2558C18.8978 17.9083 19.3659 18.6601 19.6354 19.4686L21.3093 18.1211C24.8414 15.284 29.0969 9.55319 30.785 5.34018C30.8985 5.07066 30.7708 4.87207 30.6573 4.7444C30.5864 4.67348 30.3878 4.51744 30.0615 4.64511C25.8627 6.33315 20.1319 10.5887 17.2948 14.1208L15.9331 15.8372Z" fill="#4DADFB"/>
<path d="M11.6491 27.2985C10.7413 27.2985 9.87598 26.9439 9.22346 26.2914C8.47165 25.5396 8.10283 24.504 8.2305 23.4401L8.52839 20.6598C8.84046 17.7802 11.181 15.6525 14.1174 15.5957C14.3443 15.5815 14.628 15.5957 14.8975 15.6099C16.1884 15.7801 17.3374 16.3475 18.2453 17.2696C19.1531 18.1774 19.7063 19.2555 19.8624 20.4754C19.9049 20.7449 19.9191 21.0145 19.9191 21.2698C19.9191 22.816 19.3233 24.2771 18.2311 25.3693C17.3374 26.263 16.1742 26.8162 14.855 26.9864L12.0463 27.2843C11.9045 27.2985 11.7768 27.2985 11.6491 27.2985ZM14.3443 17.7093C14.3018 17.7093 14.245 17.7093 14.2025 17.7093C12.5712 17.7519 10.8548 18.8441 10.642 20.8868L10.3441 23.6813C10.3015 24.0927 10.4434 24.504 10.7271 24.7877C11.0108 25.0714 11.408 25.2133 11.8052 25.1707L14.5997 24.8728C15.4224 24.7736 16.16 24.4189 16.7133 23.8657C17.3941 23.1706 17.7771 22.2628 17.7771 21.2698C17.7771 21.1138 17.763 20.9435 17.7346 20.7733C17.6353 20.0215 17.2948 19.3548 16.7274 18.7732C16.1458 18.1916 15.4366 17.8228 14.6564 17.7235C14.5855 17.7093 14.472 17.7093 14.3443 17.7093Z" fill="#4DADFB"/>
<path d="M23.1675 18.7598C22.5859 18.7598 22.1036 18.2775 22.1036 17.6959C22.1036 15.327 20.1744 13.3836 17.7913 13.3836C17.2097 13.3836 16.7274 12.9013 16.7274 12.3197C16.7274 11.7382 17.2097 11.2559 17.7913 11.2559C21.3376 11.2559 24.2314 14.1355 24.2314 17.6959C24.2314 18.2775 23.7633 18.7598 23.1675 18.7598Z" fill="#4DADFB"/>
</svg>
