<svg width="35" height="35" viewBox="0 0 35 35" fill="none" xmlns="http://www.w3.org/2000/svg">
<path d="M17.8199 32.8986C9.40804 32.8986 2.57077 26.0613 2.57077 17.6495C2.57077 9.23766 9.40804 2.40039 17.8199 2.40039C26.2317 2.40039 33.069 9.23766 33.069 17.6495C33.069 18.2311 32.5867 18.7134 32.0051 18.7134C31.4235 18.7134 30.9412 18.2311 30.9412 17.6495C30.9412 10.415 25.0543 4.52817 17.8199 4.52817C10.5854 4.52817 4.69855 10.415 4.69855 17.6495C4.69855 24.8839 10.5854 30.7708 17.8199 30.7708C18.4015 30.7708 18.8838 31.2531 18.8838 31.8347C18.8838 32.4163 18.4015 32.8986 17.8199 32.8986Z" fill="white"/>
<path d="M13.5647 31.4815H12.1461C11.5645 31.4815 11.0822 30.9992 11.0822 30.4176C11.0822 29.836 11.5362 29.3679 12.1178 29.3537C9.89068 21.7504 9.89068 13.5514 12.1178 5.94809C11.5503 5.93391 11.0822 5.4658 11.0822 4.8842C11.0822 4.30261 11.5645 3.82031 12.1461 3.82031H13.5647C13.9051 3.82031 14.2314 3.99053 14.43 4.26005C14.6285 4.54375 14.6853 4.89837 14.5718 5.22463C11.905 13.2393 11.905 22.0767 14.5718 30.0914C14.6853 30.4176 14.6285 30.7722 14.43 31.0559C14.2314 31.3396 13.9051 31.4815 13.5647 31.4815Z" fill="white"/>
<path d="M24.1464 18.7146C23.5648 18.7146 23.0825 18.2323 23.0825 17.6507C23.0825 13.4235 22.4016 9.23887 21.0682 5.22446C20.8838 4.67124 21.1817 4.06125 21.7349 3.87685C22.2881 3.69244 22.8981 3.99037 23.0825 4.5436C24.4869 8.77079 25.2103 13.1824 25.2103 17.6507C25.2103 18.2323 24.728 18.7146 24.1464 18.7146Z" fill="white"/>
<path d="M17.8199 25.0398C13.848 25.0398 9.91871 24.4724 6.11707 23.3518C6.10288 23.9192 5.63477 24.3873 5.05318 24.3873C4.47159 24.3873 3.98929 23.905 3.98929 23.3234V21.9048C3.98929 21.5644 4.15951 21.2382 4.42903 21.0396C4.71273 20.841 5.06737 20.7842 5.39363 20.8977C9.40805 22.2311 13.5927 22.912 17.8199 22.912C18.4015 22.912 18.8838 23.3943 18.8838 23.9759C18.8838 24.5575 18.4015 25.0398 17.8199 25.0398Z" fill="white"/>
<path d="M30.5868 14.4577C30.4733 14.4577 30.3598 14.4436 30.2464 14.401C22.2317 11.7342 13.3943 11.7342 5.37968 14.401C4.82646 14.5854 4.2165 14.2875 4.03209 13.7343C3.84769 13.1811 4.14558 12.5711 4.6988 12.3867C13.1532 9.56382 22.4587 9.56382 30.8989 12.3867C31.4521 12.5711 31.75 13.1811 31.5656 13.7343C31.4521 14.174 31.0266 14.4577 30.5868 14.4577Z" fill="white"/>
<path d="M26.6147 32.0481C23.5223 32.0481 21.0115 29.5373 21.0115 26.445C21.0115 23.3526 23.5223 20.8418 26.6147 20.8418C29.7071 20.8418 32.2178 23.3526 32.2178 26.445C32.2178 29.5373 29.7071 32.0481 26.6147 32.0481ZM26.6147 22.9696C24.6997 22.9696 23.1393 24.53 23.1393 26.445C23.1393 28.36 24.6997 29.9204 26.6147 29.9204C28.5297 29.9204 30.0901 28.36 30.0901 26.445C30.0901 24.53 28.5297 22.9696 26.6147 22.9696Z" fill="white"/>
<path d="M32.005 32.8983C31.7355 32.8983 31.466 32.799 31.2532 32.5862L29.8347 31.1677C29.4233 30.7563 29.4233 30.0754 29.8347 29.664C30.246 29.2526 30.9269 29.2526 31.3383 29.664L32.7568 31.0825C33.1682 31.4939 33.1682 32.1749 32.7568 32.5862C32.544 32.799 32.2745 32.8983 32.005 32.8983Z" fill="white"/>
</svg>
