<svg width="35" height="35" viewBox="0 0 35 35" fill="none" xmlns="http://www.w3.org/2000/svg">
<path d="M22.0566 32.838H13.5455C5.84291 32.838 2.55194 29.5471 2.55194 21.8445V13.3334C2.55194 5.63081 5.84291 2.33984 13.5455 2.33984H22.0566C29.7592 2.33984 33.0501 5.63081 33.0501 13.3334V21.8445C33.0501 29.5471 29.7592 32.838 22.0566 32.838ZM13.5455 4.46762C7.0061 4.46762 4.67972 6.794 4.67972 13.3334V21.8445C4.67972 28.3839 7.0061 30.7103 13.5455 30.7103H22.0566C28.596 30.7103 30.9224 28.3839 30.9224 21.8445V13.3334C30.9224 6.794 28.596 4.46762 22.0566 4.46762H13.5455Z" fill="#D045DD"/>
<path d="M22.7659 27.8732C20.6097 27.8732 18.8649 26.1285 18.8649 23.9723V11.2056C18.8649 9.04947 20.6097 7.30469 22.7659 7.30469C24.922 7.30469 26.6668 9.04947 26.6668 11.2056V23.9723C26.6668 26.1285 24.922 27.8732 22.7659 27.8732ZM22.7659 9.43247C21.7871 9.43247 20.9927 10.2268 20.9927 11.2056V23.9723C20.9927 24.9511 21.7871 25.7455 22.7659 25.7455C23.7446 25.7455 24.539 24.9511 24.539 23.9723V11.2056C24.539 10.2268 23.7446 9.43247 22.7659 9.43247Z" fill="#D045DD"/>
<path d="M12.8362 27.8722C10.6801 27.8722 8.93527 26.1274 8.93527 23.9712V19.0064C8.93527 16.8502 10.6801 15.1055 12.8362 15.1055C14.9924 15.1055 16.7371 16.8502 16.7371 19.0064V23.9712C16.7371 26.1274 14.9924 27.8722 12.8362 27.8722ZM12.8362 17.2332C11.8574 17.2332 11.0631 18.0276 11.0631 19.0064V23.9712C11.0631 24.95 11.8574 25.7444 12.8362 25.7444C13.815 25.7444 14.6094 24.95 14.6094 23.9712V19.0064C14.6094 18.0276 13.815 17.2332 12.8362 17.2332Z" fill="#D045DD"/>
</svg>
