<svg width="25" height="25" viewBox="0 0 25 25" fill="none" xmlns="http://www.w3.org/2000/svg">
<path d="M11.2278 16.2811C11.6431 16.6963 12.1663 16.8917 12.7975 16.8671C13.4286 16.8425 13.8854 16.614 14.1678 16.1814L19.7487 7.81008L11.3773 13.391C10.9455 13.69 10.7089 14.1424 10.6677 14.7483C10.6265 15.3543 10.8132 15.8652 11.2278 16.2811ZM5.89607 20.7658C5.53065 20.7658 5.19447 20.6867 4.88752 20.5286C4.58057 20.3704 4.33541 20.1339 4.15204 19.819C3.72018 19.0383 3.38798 18.2284 3.15545 17.3893C2.92291 16.5502 2.80664 15.6825 2.80664 14.7862C2.80664 13.4076 3.06841 12.112 3.59195 10.8995C4.1155 9.68699 4.8254 8.63227 5.72167 7.73534C6.6186 6.83841 7.67332 6.1285 8.88584 5.60563C10.0984 5.08275 11.3939 4.82098 12.7725 4.82031C14.1345 4.82031 15.4135 5.07776 16.6094 5.59267C17.8053 6.10757 18.8517 6.80951 19.7487 7.69846C20.6456 8.58676 21.3598 9.62487 21.8913 10.8128C22.4229 12.0007 22.6969 13.2754 22.7135 14.6367C22.7301 15.5503 22.6262 16.4432 22.4016 17.3156C22.177 18.1879 21.8325 19.0224 21.3681 19.819C21.1854 20.1346 20.9403 20.3714 20.6326 20.5296C20.325 20.6877 19.9888 20.7664 19.6241 20.7658H5.89607Z" fill="#3527D6"/>
</svg>
