<svg width="35" height="36" viewBox="0 0 35 36" fill="none" xmlns="http://www.w3.org/2000/svg">
<path d="M23.1571 33.5976H12.0648C8.19406 33.5976 6.432 32.1533 5.65207 30.9545C4.51107 29.1925 4.55439 26.7805 5.78206 23.9785L11.3138 11.413C10.5483 11.2108 9.84058 10.8064 9.2773 10.2431C8.45404 9.40541 7.96297 8.24995 7.96297 7.05118C7.96297 4.56696 9.98501 2.54492 12.4692 2.54492H22.7383C23.9371 2.54492 25.0781 3.02155 25.9302 3.87369C27.0568 5.00025 27.5045 6.60344 27.129 8.14885C26.7535 9.69427 25.4825 10.9219 23.9226 11.3697L29.4399 23.993C30.6531 26.7805 30.6964 29.1925 29.541 30.9545C28.7611 32.1533 26.999 33.5976 23.1571 33.5976ZM12.4692 4.71139C11.1838 4.71139 10.1294 5.76574 10.1294 7.05118C10.1294 7.67223 10.3894 8.27884 10.8083 8.71213C11.2416 9.14543 11.8482 9.39096 12.4692 9.39096H12.9025C13.2636 9.39096 13.6102 9.57872 13.8124 9.88203C14.0146 10.1853 14.0435 10.5753 13.8991 10.9075L7.76077 24.8451C6.85085 26.9249 6.73531 28.6725 7.45746 29.7702C8.35294 31.1423 10.4472 31.4312 12.0504 31.4312H23.1427C24.7314 31.4312 26.8112 31.1423 27.7212 29.7702C28.4433 28.6581 28.3422 26.9249 27.4467 24.8595L21.3662 10.9075C21.2218 10.5753 21.2506 10.1853 21.4528 9.88203C21.6551 9.57872 21.9872 9.39096 22.3628 9.39096H22.5939C23.7493 9.39096 24.7892 8.65436 25.0347 7.6289C25.2369 6.80564 25.0059 5.99683 24.4137 5.40466C23.9659 4.95692 23.3738 4.71139 22.7527 4.71139H12.4692Z" fill="#DD6E58"/>
<path d="M20.2685 22.463C19.3153 22.463 18.2898 22.333 17.2643 21.9864C13.1625 20.6143 8.93066 20.7587 8.88733 20.7587C8.30961 20.8454 7.78965 20.311 7.76077 19.7188C7.73188 19.1267 8.2085 18.6211 8.80067 18.5923C8.98843 18.5778 13.4802 18.4334 17.9432 19.921C21.6984 21.1776 25.3814 18.7945 25.4247 18.7656C25.9158 18.4334 26.5946 18.5778 26.9268 19.0689C27.259 19.5599 27.129 20.2388 26.6235 20.571C26.4935 20.6721 23.7493 22.463 20.2685 22.463Z" fill="#DD6E58"/>
</svg>
