<svg width="17" height="20" viewBox="0 0 17 20" fill="none" xmlns="http://www.w3.org/2000/svg">
<path d="M13.928 10.9565C13.9057 8.5499 15.949 7.37909 16.0424 7.32458C14.8852 5.67963 13.0917 5.45488 12.4614 5.43696C10.955 5.2824 9.49379 6.31581 8.72642 6.31581C7.94374 6.31581 6.76206 5.45189 5.48848 5.47728C3.8496 5.50192 2.31641 6.42707 1.47552 7.86369C-0.259854 10.7929 1.0344 15.0976 2.69702 17.4653C3.52872 18.6249 4.50056 19.9197 5.77261 19.8741C7.01708 19.8241 7.48194 19.1006 8.98374 19.1006C10.4718 19.1006 10.9083 19.8741 12.2056 19.845C13.5412 19.8241 14.3821 18.6802 15.1847 17.5101C16.1458 16.181 16.5318 14.8721 16.5471 14.8049C16.5157 14.7944 13.9532 13.8409 13.928 10.9565Z" fill="white"/>
<path d="M11.4773 3.87937C12.1466 3.06324 12.6046 1.95292 12.4775 0.826172C11.5087 0.867986 10.2971 1.47952 9.59947 2.27773C8.98221 2.98111 8.43081 4.13399 8.57325 5.21818C9.6615 5.29733 10.7789 4.68281 11.4773 3.87937Z" fill="white"/>
</svg>
