<svg width="45" height="46" viewBox="0 0 45 46" fill="none" xmlns="http://www.w3.org/2000/svg">
<rect x="0.899029" y="0.861328" width="43.9976" height="44.476" rx="16.0938" fill="#722CFB"/>
<path d="M15.8737 31.2278C15.8737 31.2278 15.8505 30.9043 15.8043 30.2572C15.7812 29.6102 15.735 28.7782 15.6657 27.7614C15.6195 26.7446 15.5617 25.6585 15.4924 24.5031C15.423 23.3245 15.3537 22.2037 15.2844 21.1407C15.2382 20.0546 15.2035 19.1533 15.1804 18.437C15.1573 17.6975 15.1457 17.2584 15.1457 17.1197C15.1919 16.7269 15.2266 16.4149 15.2497 16.1838C15.2959 15.9296 15.4115 15.7563 15.5963 15.6639C15.735 15.5945 15.7697 15.5021 15.7003 15.3866C15.6541 15.271 15.6426 15.1208 15.6657 14.9359C15.7119 14.7511 15.943 14.5546 16.3589 14.3467C16.6825 14.1849 17.1909 13.9538 17.8841 13.6534C18.6005 13.3299 19.4556 13.0757 20.4492 12.8908C21.4429 12.7059 22.5059 12.729 23.6383 12.9601C24.7706 13.1681 25.9145 13.7112 27.07 14.5893C27.8557 15.1901 28.3294 15.8141 28.4912 16.4611C28.676 17.0851 28.676 17.6975 28.4912 18.2983C28.3063 18.876 28.0405 19.4075 27.6939 19.8928C27.3473 20.355 27.0237 20.7247 26.7233 21.0021C26.446 21.2794 26.3074 21.418 26.3074 21.418C26.3074 21.418 26.4691 21.4758 26.7927 21.5913C27.1162 21.7069 27.509 21.8917 27.9712 22.1459C28.4565 22.4001 28.9418 22.7468 29.4271 23.1859C29.9124 23.6018 30.3168 24.1218 30.6403 24.7457C30.9869 25.3697 31.1718 26.0976 31.1949 26.9295C31.2411 28.3392 30.8021 29.4946 29.8777 30.3959C28.9765 31.2971 27.717 31.9788 26.0994 32.441C24.5049 32.8801 22.6677 33.0996 20.5879 33.0996C19.3862 33.0996 18.4619 33.0072 17.8148 32.8223C17.1678 32.6374 16.7056 32.4179 16.4283 32.1637C16.151 31.9095 15.9892 31.69 15.943 31.5051C15.8968 31.3202 15.8737 31.2278 15.8737 31.2278ZM20.4839 16.2878C20.4839 16.2878 20.4839 16.4727 20.4839 16.8424C20.507 17.1891 20.5186 17.605 20.5186 18.0903C20.5417 18.5756 20.5648 19.0262 20.5879 19.4422C20.6341 19.835 20.6803 20.0777 20.7265 20.1701C20.7728 20.2626 20.9345 20.2395 21.2118 20.1008C21.4891 19.9621 21.778 19.7542 22.0784 19.4769C22.4019 19.1764 22.6561 18.8414 22.841 18.4716C23.049 18.0788 23.1183 17.6975 23.049 17.3277C22.8872 16.5882 22.5522 16.1607 22.0438 16.0452C21.5354 15.9296 21.0154 16.0105 20.4839 16.2878ZM21.2465 24.3297L21.4891 30.0839C21.4891 30.0839 21.6509 30.0839 21.9744 30.0839C22.298 30.0839 22.6908 30.0492 23.153 29.9799C23.6152 29.9106 24.0658 29.7604 24.5049 29.5293C24.967 29.2982 25.3252 28.9631 25.5794 28.524C25.8567 28.0618 25.9492 27.4379 25.8567 26.6522C25.7643 25.8665 25.5448 25.2888 25.1981 24.919C24.8746 24.5262 24.4818 24.272 24.0196 24.1564C23.5805 24.0409 23.1414 24.0062 22.7024 24.0524C22.2864 24.0755 21.9398 24.1333 21.6625 24.2258C21.3852 24.2951 21.2465 24.3297 21.2465 24.3297Z" fill="white"/>
</svg>
