<svg width="14" height="14" viewBox="0 0 14 14" fill="none" xmlns="http://www.w3.org/2000/svg">
<path fill-rule="evenodd" clip-rule="evenodd" d="M9.48069 0.441096C9.76321 0.158662 10.1463 0 10.5458 0C10.9453 0 11.3284 0.158662 11.6109 0.441096L13.5589 2.38906C13.8413 2.67158 14 3.0547 14 3.45419C14 3.85367 13.8413 4.23679 13.5589 4.51931L12.3642 5.714L8.286 1.63579L9.48069 0.441096ZM7.22087 2.70091L0.441418 9.48036C0.158866 9.76283 8.53268e-05 10.146 0 10.5455V12.4935C0 12.893 0.158725 13.2762 0.441257 13.5587C0.723789 13.8413 1.10698 14 1.50654 14H3.45451C3.85404 13.9999 4.23717 13.8411 4.51963 13.5586L11.2991 6.77913L7.22087 2.70091Z" fill="#3527D6"/>
</svg>
