<svg width="18" height="22" viewBox="0 0 18 22" fill="none" xmlns="http://www.w3.org/2000/svg">
<path d="M18 17.2087V18.167H0V17.2087L2 15.292V9.54199C2 6.57116 4.03 3.95491 7 3.11158V2.83366C7 2.32533 7.21071 1.83782 7.58579 1.47837C7.96086 1.11893 8.46957 0.916992 9 0.916992C9.53043 0.916992 10.0391 1.11893 10.4142 1.47837C10.7893 1.83782 11 2.32533 11 2.83366V3.11158C13.97 3.95491 16 6.57116 16 9.54199V15.292L18 17.2087ZM11 19.1253C11 19.6337 10.7893 20.1212 10.4142 20.4806C10.0391 20.8401 9.53043 21.042 9 21.042C8.46957 21.042 7.96086 20.8401 7.58579 20.4806C7.21071 20.1212 7 19.6337 7 19.1253" fill="#3527D6"/>
</svg>
