<svg width="97" height="75" viewBox="0 0 97 75" fill="none" xmlns="http://www.w3.org/2000/svg">
<path d="M49.2561 74.9461C64.2585 74.8753 81.0865 74.8742 96.089 74.9461C81.0865 75.0181 64.2585 75.0169 49.2561 74.9461Z" fill="#263238"/>
<path d="M16.9355 31.3818L14.0724 35.5598C13.5211 36.3536 13.0523 37.0604 12.8434 37.448V37.455C12.7832 37.5399 12.7434 37.6376 12.7273 37.7405C12.7266 37.7436 12.7266 37.7467 12.7273 37.7498C12.8526 38.0736 19.0744 42.6647 19.3424 42.7518C19.6105 42.8388 19.8821 42.0728 19.7835 41.7073C19.6848 41.3417 18.0867 38.5123 18.0867 38.5123L20.9069 34.3169L16.9355 31.3818Z" fill="#D3766A"/>
<path d="M14.9266 34.311L19.0861 37.0244C19.0861 37.0244 23.1329 31.9574 24.0764 28.81C24.7437 26.5678 20.6284 15.6958 20.6284 15.6958L16.1023 15.6006C16.1023 15.6006 19.5468 26.092 19.2671 27.1399C18.9178 28.4247 14.9266 34.311 14.9266 34.311Z" fill="#263238"/>
<path d="M19.0825 25.7467C18.3954 22.6132 16.0929 15.6035 16.0929 15.6035L18.6809 15.6569L19.0825 25.7467Z" fill="#37474F"/>
<path d="M12.7285 37.737C12.7285 37.737 12.7285 37.7428 12.7285 37.7439C12.855 38.0689 19.0767 42.66 19.3437 42.7471C19.6106 42.8341 19.8845 42.0682 19.7847 41.7026C19.7301 41.5006 19.2415 40.5873 18.8017 39.7877C19.2079 40.5629 20.011 42.8051 13.5479 36.3223C13.231 36.7934 12.978 37.1915 12.8399 37.448C12.8394 37.4491 12.8391 37.4503 12.8391 37.4515C12.8391 37.4527 12.8394 37.4539 12.8399 37.455C12.7823 37.5395 12.7442 37.6359 12.7285 37.737Z" fill="#263238"/>
<path d="M11.0074 22.924L8.11881 19.4749C7.45033 18.7785 6.50332 17.7027 6.3246 17.6807C5.97643 17.7387 0.157429 22.9577 0.0181629 23.206C-0.121103 23.4544 0.574067 23.871 0.95821 23.8478C1.34235 23.8246 4.4271 22.8242 4.4271 22.8242L7.48979 26.2664L11.0074 22.924Z" fill="#D3766A"/>
<path d="M0.95705 23.8476C1.15086 23.8349 2.01779 23.5796 2.83714 23.3266C1.90058 23.4426 0.101724 23.315 7.99811 19.347C7.3424 18.6507 6.4894 17.7014 6.32576 17.6816C5.97759 17.7397 0.15743 22.9575 0.0181637 23.2059C-0.121102 23.4542 0.574068 23.8709 0.95705 23.8476Z" fill="#263238"/>
<path d="M20.5867 15.6968C20.5867 15.6968 19.5422 19.2411 19.3983 19.3223C19.2346 19.414 18.4768 19.6542 18.2122 19.7587C18.2122 19.7587 16.5085 26.9541 15.1564 28.97C14.6922 29.6663 12.4732 30.4346 11.3382 29.765C8.67709 28.1924 5.35791 23.8694 5.35791 23.8694L8.9092 20.4167L12.2864 24.1549C13.0001 22.667 13.288 19.7192 13.288 19.7192C13.288 19.7192 13.3297 16.8178 14.3325 15.5645L20.5867 15.6968Z" fill="#263238"/>
<path d="M19.8786 19.183C19.111 19.3098 18.3707 19.5668 17.6898 19.9432C17.6736 19.9525 17.6805 19.9827 17.7003 19.9757C18.4326 19.7331 19.1568 19.4685 19.8867 19.2225C19.892 19.2214 19.8966 19.2183 19.8995 19.2138C19.9024 19.2094 19.9035 19.2039 19.9024 19.1987C19.9013 19.1935 19.8982 19.1889 19.8938 19.1859C19.8893 19.183 19.8839 19.182 19.8786 19.183Z" fill="#37474F"/>
<path d="M19.592 16.3369C19.592 16.3219 19.5653 16.3207 19.5618 16.3369C19.4875 16.6224 19.4179 17.4139 19.3807 17.7064C19.361 17.8573 19.339 18.0081 19.3204 18.159C19.3018 18.3099 19.2879 18.4642 19.2566 18.6128C19.2496 18.6786 19.2274 18.7419 19.1918 18.7977C19.1561 18.8535 19.108 18.9003 19.0512 18.9343C18.9967 18.9552 18.9364 18.9549 18.8823 18.9334C18.8281 18.9119 18.784 18.8707 18.7587 18.8182C18.7046 18.6889 18.687 18.5472 18.7076 18.4085C18.7146 18.2553 18.7239 18.1033 18.732 17.9501C18.7517 17.602 18.8318 16.7675 18.8481 16.4193C18.8481 16.4043 18.8248 16.3985 18.8225 16.4135C18.7482 16.7547 18.6461 17.5822 18.6113 17.9281C18.5927 18.1083 18.5788 18.2882 18.5695 18.4677C18.5523 18.6113 18.5781 18.7567 18.6438 18.8855C18.6726 18.9405 18.7151 18.9872 18.7671 19.0212C18.8191 19.0551 18.8789 19.0751 18.9409 19.0793C18.9338 19.0975 18.9295 19.1167 18.9281 19.1362C18.9235 19.1775 18.9235 19.2191 18.9281 19.2604C18.9308 19.2784 18.9346 19.2963 18.9397 19.3138C18.9443 19.3346 18.9522 19.3546 18.963 19.373L18.956 19.359C18.9641 19.3846 18.978 19.4066 18.9862 19.4321C18.9862 19.4346 18.9871 19.437 18.9889 19.4387C18.9906 19.4404 18.993 19.4414 18.9954 19.4414C18.9979 19.4414 19.0003 19.4404 19.002 19.4387C19.0038 19.437 19.0047 19.4346 19.0047 19.4321C19.0047 19.395 19.0198 19.3613 19.0245 19.3242C19.0285 19.2833 19.0285 19.2421 19.0245 19.2012C19.0245 19.1687 19.0152 19.1327 19.0129 19.1025C19.0129 19.0921 19.0129 19.0817 19.0129 19.07C19.105 19.048 19.1869 18.9952 19.245 18.9203C19.3262 18.8002 19.3746 18.661 19.3854 18.5165C19.4109 18.3435 19.4365 18.1683 19.455 17.9977C19.4771 17.7992 19.4968 17.6008 19.5154 17.4012C19.5339 17.2016 19.6071 16.5261 19.592 16.3369Z" fill="#37474F"/>
<path d="M16.6257 7.13417C16.1719 6.94965 14.9011 7.07963 14.3882 7.63901C13.8752 8.1984 13.7348 9.22317 13.9239 9.35779C14.1131 9.49241 15.0265 9.57017 15.7008 9.33458C16.375 9.09899 16.8485 7.22586 16.6257 7.13417Z" fill="#263238"/>
<path d="M16.6256 7.13846C16.6418 7.13846 16.6488 7.11177 16.6256 7.10829C16.2147 7.02705 15.7494 7.09088 15.3362 7.13731C14.9981 7.15638 14.6676 7.2457 14.366 7.39959C14.2252 7.48033 14.1035 7.5906 14.0093 7.72282C13.9152 7.85504 13.8508 8.00608 13.8205 8.16555C13.7451 8.52764 13.7219 8.97794 13.846 9.3261C13.846 9.33655 13.8681 9.33655 13.8669 9.3261C13.7938 8.6054 13.7718 7.73731 14.5343 7.38566C15.1865 7.08856 15.9374 7.1698 16.6256 7.13846Z" fill="#263238"/>
<path d="M14.0259 9.1908C13.6046 9.17339 12.4011 9.77107 12.0855 10.5278C11.7698 11.2844 12.2096 12.5483 12.3965 12.6678C12.5833 12.7873 13.6244 12.1897 14.0155 11.6895C14.2777 11.3541 14.1942 10.8968 14.1768 10.4535C14.1524 9.80009 14.0909 9.19312 14.0259 9.1908Z" fill="#263238"/>
<path d="M14.2802 11.6328C14.539 10.8552 14.2222 9.98597 14.0725 9.21769C14.0725 9.21072 14.0586 9.21188 14.0586 9.21769C14.0911 9.93607 14.4009 10.6289 14.2907 11.3543C14.2669 11.5686 14.192 11.7741 14.0722 11.9534C13.9525 12.1328 13.7914 12.2807 13.6025 12.3848C13.2543 12.5601 12.8528 12.5995 12.4756 12.6645C12.4512 12.6645 12.4605 12.7063 12.4849 12.7028C13.2334 12.5937 14.0156 12.4359 14.2802 11.6328Z" fill="#263238"/>
<path d="M13.9239 9.2486C13.9471 9.2428 13.9379 9.20682 13.9158 9.21378C13.2821 9.39018 12.5069 9.678 12.0914 10.2153C11.6411 10.7956 11.8674 11.5326 12.0705 12.1651C12.0711 12.1663 12.072 12.1674 12.0731 12.1681C12.0742 12.1688 12.0756 12.1692 12.0769 12.1692C12.0783 12.1692 12.0796 12.1688 12.0807 12.1681C12.0819 12.1674 12.0828 12.1663 12.0833 12.1651C11.8848 11.5244 11.6957 10.7399 12.1889 10.1782C12.6137 9.69309 13.3251 9.42616 13.9239 9.2486Z" fill="#263238"/>
<path d="M12.5823 12.5417C12.0229 12.934 11.3243 13.5351 11.4218 14.1537C11.5193 14.7723 12.2133 15.7054 12.2829 15.7077C12.3525 15.71 13.4713 15.0706 13.722 14.3464C13.9727 13.6222 12.6543 12.4906 12.5823 12.5417Z" fill="#263238"/>
<path d="M12.3373 15.7573C11.8893 15.3441 11.3682 14.7813 11.3624 14.1325C11.3624 13.5047 12.0332 12.9406 12.4975 12.6099V12.6006C11.9926 12.8988 11.3369 13.4559 11.3172 14.0931C11.2974 14.7302 11.8336 15.4347 12.3303 15.777C12.335 15.7828 12.3466 15.7654 12.3373 15.7573Z" fill="#263238"/>
<path d="M12.5184 15.4497C12.2062 15.4149 11.6027 15.5878 11.214 16.0033C10.549 16.7135 10.3528 16.3514 9.33851 15.9882C8.48202 15.6771 7.77641 16.3978 7.89826 17.0675C7.89826 17.0675 8.00852 16.406 8.67119 16.4872C9.46385 16.5835 10.412 18.112 11.6422 17.7232C13.2414 17.2218 12.5184 15.4497 12.5184 15.4497Z" fill="#263238"/>
<path d="M11.9591 15.6116C11.9631 15.6107 11.9665 15.6082 11.9687 15.6047C11.9709 15.6013 11.9716 15.5971 11.9707 15.5931C11.9697 15.5891 11.9673 15.5856 11.9638 15.5834C11.9603 15.5812 11.9561 15.5805 11.9521 15.5815C11.7849 15.6151 11.6253 15.6788 11.4809 15.7695C11.2929 15.8855 11.1676 16.0689 10.9912 16.2C10.5409 16.5331 10.0221 16.1652 9.61939 15.9377C9.08089 15.6314 8.45884 15.6708 8.06657 16.1907C8.06534 16.1923 8.06477 16.1942 8.06499 16.1962C8.0652 16.1982 8.06619 16.2 8.06773 16.2012C8.06927 16.2024 8.07123 16.203 8.07319 16.2028C8.07515 16.2026 8.07694 16.2016 8.07817 16.2C8.20035 16.0402 8.36418 15.9171 8.5517 15.8442C8.73922 15.7713 8.94319 15.7515 9.14124 15.7869C9.52654 15.86 9.82132 16.1524 10.1857 16.2847C10.4329 16.3753 10.7057 16.4252 10.9436 16.2847C11.067 16.1957 11.181 16.0942 11.2836 15.9818C11.4737 15.8032 11.7062 15.6758 11.9591 15.6116Z" fill="#263238"/>
<path d="M12.5892 15.6369C12.5892 15.6299 12.5753 15.6369 12.5764 15.6369C12.6762 16.1185 12.7935 16.6117 12.5973 17.0887C12.3861 17.6017 11.8511 17.9011 11.3138 17.9359C10.7114 17.9766 10.3853 17.5472 9.99537 17.1642C9.71452 16.8868 9.41509 16.6303 9.02283 16.5305C9.01122 16.5305 9.00542 16.5468 9.02283 16.5514C9.61007 16.7719 9.97564 17.2326 10.4155 17.6458C10.7799 17.9835 11.1954 18.0555 11.6689 17.9127C12.7134 17.6029 12.8898 16.5676 12.5892 15.6369Z" fill="#263238"/>
<path d="M16.253 6.2701C16.1207 6.10182 15.8607 6.31072 15.9942 6.48016C16.1277 6.6496 16.3865 6.43838 16.253 6.2701Z" fill="#3527D6"/>
<path d="M16.3831 6.55211C16.355 6.5181 16.3147 6.49652 16.2709 6.49207C16.2271 6.48762 16.1833 6.50065 16.149 6.52834C16.1147 6.55603 16.0928 6.59614 16.0879 6.63992C16.0831 6.68371 16.0957 6.72765 16.1231 6.76217C16.1511 6.79618 16.1914 6.81776 16.2352 6.82221C16.2791 6.82666 16.3229 6.81362 16.3571 6.78593C16.3914 6.75824 16.4134 6.71814 16.4182 6.67435C16.4231 6.63056 16.4104 6.58663 16.3831 6.55211Z" fill="#3527D6"/>
<path d="M16.5607 6.80933C16.5318 6.77863 16.4923 6.76001 16.4502 6.75721C16.4081 6.7544 16.3665 6.76762 16.3338 6.7942C16.301 6.82078 16.2795 6.85877 16.2736 6.90053C16.2677 6.9423 16.2778 6.98476 16.3019 7.01939C16.4342 7.18651 16.693 6.97877 16.5607 6.80933Z" fill="#3527D6"/>
<path d="M16.7649 7.03589C16.736 7.00519 16.6965 6.98657 16.6544 6.98377C16.6123 6.98096 16.5707 6.99418 16.538 7.02076C16.5052 7.04735 16.4838 7.08533 16.4778 7.1271C16.4719 7.16886 16.482 7.21132 16.5061 7.24595C16.6384 7.41887 16.8984 7.20417 16.7649 7.03589Z" fill="#3527D6"/>
<path d="M17.0109 7.22789C16.9829 7.19388 16.9426 7.1723 16.8987 7.16785C16.8549 7.1634 16.8111 7.17644 16.7768 7.20413C16.7425 7.23181 16.7206 7.27191 16.7157 7.3157C16.7109 7.35949 16.7235 7.40343 16.7509 7.43795C16.7789 7.47196 16.8192 7.49354 16.863 7.49799C16.9069 7.50244 16.9507 7.4894 16.9849 7.46171C17.0192 7.43402 17.0412 7.39392 17.046 7.35013C17.0509 7.30634 17.0382 7.26241 17.0109 7.22789Z" fill="#3527D6"/>
<path d="M17.2767 7.36656C17.2487 7.33255 17.2084 7.31097 17.1646 7.30652C17.1208 7.30207 17.0769 7.31511 17.0427 7.3428C17.0084 7.37049 16.9865 7.41059 16.9816 7.45438C16.9768 7.49817 16.9894 7.5421 17.0168 7.57662C17.1491 7.7449 17.409 7.53484 17.2767 7.36656Z" fill="#3527D6"/>
<path d="M12.6704 15.0272C13.0244 14.3959 14.5702 12.0748 14.8116 11.1463C15.053 10.2179 15.9548 8.98191 16.3784 8.79622C16.802 8.61054 16.4085 9.02253 16.1196 9.35329C15.8306 9.68405 15.3907 11.1545 15.1273 11.7463C14.8639 12.3382 13.4352 15.2013 13.1404 15.5425C12.8457 15.8837 12.6704 15.0272 12.6704 15.0272Z" fill="#3527D6"/>
<path opacity="0.3" d="M12.6704 15.0272C13.0244 14.3959 14.5702 12.0748 14.8116 11.1463C15.053 10.2179 15.9548 8.98191 16.3784 8.79622C16.802 8.61054 16.4085 9.02253 16.1196 9.35329C15.8306 9.68405 15.3907 11.1545 15.1273 11.7463C14.8639 12.3382 13.4352 15.2013 13.1404 15.5425C12.8457 15.8837 12.6704 15.0272 12.6704 15.0272Z" fill="black"/>
<path d="M17.4334 9.99222C18.3293 10.4773 22.3564 11.5358 23.6597 10.6514C24.9886 9.74967 26.1526 5.86646 26.329 5.38483C26.7514 4.25678 23.1955 3.89933 23.0667 4.20919C22.6257 5.30824 22.0222 8.2305 21.5394 8.35468C20.5228 8.61813 19.5583 8.60652 17.9417 8.79685C16.8101 8.928 16.4446 9.45837 17.4334 9.99222Z" fill="#D3766A"/>
<path d="M26.1757 5.65719C26.4078 5.29393 27.3281 3.52409 27.4697 2.97979C27.6113 2.4355 27.9038 0.839739 27.4976 0.688867C27.0914 0.537996 26.9683 0.998734 26.9683 0.998734C26.9683 0.998734 26.9858 0.302403 26.5633 0.186348C26.1409 0.0702932 25.9691 0.803761 25.9691 0.803761C25.9691 0.803761 25.9355 0.0900222 25.5049 0.00646252C25.0743 -0.0770972 25.0279 0.677262 25.0279 0.677262C25.0279 0.677262 25.0279 0.0238715 24.6438 0.0969863C24.1795 0.193312 24.3211 1.39796 24.1204 1.98752C24.0751 2.12099 23.0016 4.63358 23.0016 4.63358L26.1757 5.65719Z" fill="#D3766A"/>
<path d="M25.0407 0.607803C25.1393 1.49446 25.0303 1.8995 24.6473 2.68983C24.6391 2.70492 24.6612 2.72001 24.6705 2.70376C25.115 1.96449 25.3262 1.47706 25.0825 0.60084C25.0686 0.5579 25.0337 0.571826 25.0407 0.607803Z" fill="#263238"/>
<path d="M25.9693 0.728774C25.9913 1.65722 25.8764 2.09939 25.5364 2.95587C25.5364 2.96864 25.5515 2.97792 25.5573 2.96632C25.9611 2.15393 26.1608 1.66186 26.0157 0.735738C26.0052 0.693959 25.9693 0.688155 25.9693 0.728774Z" fill="#263238"/>
<path d="M26.9498 1.04138C26.9069 1.94313 26.8013 2.43404 26.3696 3.22089C26.3673 3.22459 26.3665 3.22904 26.3675 3.23329C26.3685 3.23753 26.3711 3.24121 26.3748 3.24352C26.3785 3.24583 26.3829 3.24658 26.3872 3.2456C26.3914 3.24462 26.3951 3.24199 26.3974 3.2383C26.9208 2.47698 27.0578 1.86885 26.9777 1.04602C26.9719 0.989151 26.9533 0.98451 26.9498 1.04138Z" fill="#263238"/>
<path d="M22.7521 5.13452C22.7521 5.13452 22.4249 4.06565 22.3843 3.56429C22.3436 3.06293 22.881 1.1399 23.2999 1.23274C23.8454 1.3488 23.7537 2.52328 23.6342 3.08962C23.6342 3.08962 24.8945 3.36468 25.0117 4.21884C25.129 5.07301 22.7521 5.13452 22.7521 5.13452Z" fill="#D3766A"/>
<path d="M23.4416 1.31429C23.8605 1.77851 23.6551 2.51662 23.5797 3.07717C23.5785 3.08532 23.5792 3.09365 23.5818 3.10147C23.5844 3.10929 23.5889 3.11637 23.5948 3.12215C23.6007 3.12792 23.6078 3.13222 23.6157 3.13469C23.6236 3.13716 23.6319 3.13773 23.64 3.13636C24.1611 3.28723 24.8516 3.65048 25.0327 4.19246C25.0327 4.19584 25.034 4.19909 25.0364 4.20149C25.0388 4.20388 25.0421 4.20522 25.0455 4.20522C25.0488 4.20522 25.0521 4.20388 25.0545 4.20149C25.0569 4.19909 25.0582 4.19584 25.0582 4.19246C24.9422 3.58433 24.2911 3.17117 23.7097 3.04351C23.7955 2.47136 23.9685 1.72397 23.4439 1.31661C23.4427 1.30849 23.4393 1.31197 23.4416 1.31429Z" fill="#263238"/>
<path d="M20.6609 15.6982L14.2778 15.5636C14.2778 15.5636 15.1749 10.5825 15.9026 9.37207C16.3866 8.55968 17.0225 8.53531 17.6365 8.85562C17.7897 8.9357 19.8415 10.6324 20.1293 11.316C20.3847 11.9195 20.0237 12.7284 20.0237 12.7284L20.6609 15.6982Z" fill="#3527D6"/>
<path d="M17.8454 12.7498C18.1192 12.7121 18.3953 12.6947 18.6717 12.6976C18.8098 12.6976 18.9456 12.7103 19.0825 12.7231C19.151 12.7289 19.2183 12.7335 19.2868 12.737C19.3584 12.7425 19.4304 12.7397 19.5015 12.7289C19.5073 12.7289 19.5096 12.7359 19.5015 12.7382C19.4364 12.7568 19.3701 12.7707 19.303 12.78C19.2379 12.7873 19.1724 12.79 19.1069 12.7881C18.9676 12.7881 18.8284 12.7777 18.6891 12.7742C18.4082 12.766 18.1274 12.7591 17.8465 12.7742C17.8454 12.773 17.8372 12.751 17.8454 12.7498Z" fill="#263238"/>
<path d="M17.2419 13.1395C17.4575 13.0653 17.6772 13.0037 17.8999 12.955C18.016 12.9306 18.1239 12.9132 18.2365 12.8982L18.3989 12.8796C18.4593 12.8738 18.515 12.8796 18.5788 12.8691C18.5846 12.8691 18.587 12.8773 18.5788 12.8784C18.5231 12.8865 18.4628 12.904 18.4129 12.9156L18.2458 12.9492L17.9115 13.0177C17.6875 13.0618 17.4659 13.1071 17.2442 13.1581C17.2338 13.1616 17.2314 13.1442 17.2419 13.1395Z" fill="#263238"/>
<path d="M16.3865 8.94145C17.1096 8.8254 16.6442 12.1365 15.7645 13.2042C15.2179 13.8692 14.9846 12.0436 15.1935 11.2208C15.4024 10.3979 16.072 8.99252 16.3865 8.94145Z" fill="#D3766A"/>
<path d="M16.5038 10.3614C15.1227 12.527 13.5362 14.9966 12.1842 15.0268C10.9621 15.0547 8.96714 14.0845 6.79459 13.0458C6.36286 12.8392 8.14431 9.56411 8.58184 9.83219C9.44413 10.3568 11.2952 11.7761 11.8755 11.8434C12.125 11.8736 14.2117 10.2546 15.7355 9.20434C17.0747 8.28054 16.7718 9.94013 16.5038 10.3614Z" fill="#D3766A"/>
<path d="M15.6798 11.7876L15.587 11.8735C15.7077 11.7018 15.8237 11.5242 15.9351 11.3408H15.9293C15.7808 11.5253 15.6369 11.7122 15.4965 11.906C15.4303 11.9977 15.2098 12.3343 15.1332 12.4352C15.1251 12.4468 15.1425 12.4735 15.1518 12.4619C15.2237 12.3644 15.4535 12.0685 15.515 11.9838C15.5401 11.9654 15.5641 11.9456 15.587 11.9246C15.6253 11.8898 15.6613 11.8549 15.6972 11.8166C15.768 11.7412 15.8365 11.6635 15.905 11.5845C15.8307 11.653 15.7564 11.7215 15.6798 11.7876Z" fill="#263238"/>
<path d="M7.52692 13.3375C7.10912 13.2435 5.20581 12.6481 4.71722 12.3638C4.22863 12.0794 2.89516 11.1603 3.07504 10.7668C3.25493 10.3734 3.66808 10.6113 3.66808 10.6113C3.66808 10.6113 3.16556 10.1332 3.38259 9.75369C3.59961 9.37419 4.22979 9.76529 4.22979 9.76529C4.22979 9.76529 3.74932 9.23724 3.99768 8.87399C4.24604 8.51074 4.81007 9.00977 4.81007 9.00977C4.81007 9.00977 4.34584 8.54555 4.67428 8.33201C5.06771 8.07437 5.82323 9.02254 6.38261 9.29643C6.51027 9.35794 9.04608 10.3723 9.04608 10.3723L7.52692 13.3375Z" fill="#D3766A"/>
<path d="M4.7544 8.96505C5.31262 9.66138 5.68284 9.86912 6.50683 10.1558C6.52308 10.1558 6.51844 10.1871 6.50683 10.1825C5.65963 9.97241 5.16755 9.78092 4.71958 8.98942C4.69753 8.95112 4.73119 8.92791 4.7544 8.96505Z" fill="#263238"/>
<path d="M4.18681 9.70515C4.82859 10.3783 5.22202 10.6069 6.06922 10.9713C6.08083 10.9713 6.06922 10.998 6.0611 10.9934C5.19533 10.7055 4.71138 10.5001 4.15779 9.73996C4.13226 9.70863 4.15663 9.67497 4.18681 9.70515Z" fill="#263238"/>
<path d="M3.71207 10.625C4.38055 11.2308 4.80067 11.5012 5.66876 11.7484C5.67307 11.7494 5.67683 11.752 5.67923 11.7557C5.68162 11.7594 5.68245 11.7639 5.68153 11.7682C5.6806 11.7725 5.678 11.7762 5.67431 11.7786C5.67061 11.781 5.6661 11.7819 5.6618 11.7809C4.75192 11.6138 4.22503 11.2807 3.69582 10.6471C3.65985 10.603 3.66913 10.5867 3.71207 10.625Z" fill="#263238"/>
<path d="M6.93081 4.11159L1.53809 8.69629L2.17629 9.44697L7.56901 4.86227L6.93081 4.11159Z" fill="#37474F"/>
<path d="M7.5685 4.86159L2.17578 9.44629L4.84286 12.5834L10.2356 7.99872L7.5685 4.86159Z" fill="#455A64"/>
<path d="M6.99697 4.18874L1.60425 8.77344L2.11015 9.3685L7.50287 4.7838L6.99697 4.18874Z" fill="white"/>
<path d="M2.35437 8.95035C3.95709 7.53447 5.74666 6.01531 7.40045 4.66211C5.79773 6.0745 4.00816 7.59598 2.35669 8.95035H2.35437Z" fill="#DBDBDB"/>
<path d="M2.25452 8.83414C3.85724 7.42174 5.64681 5.90026 7.29943 4.5459C5.69671 5.95829 3.90714 7.47977 2.25452 8.83994V8.83414Z" fill="#DBDBDB"/>
<path d="M2.15576 8.71676C3.75848 7.30321 5.54341 5.78289 7.19952 4.42969C5.59796 5.84208 3.80258 7.3624 2.15576 8.71676Z" fill="#DBDBDB"/>
<path d="M2.06183 8.60074C3.65875 7.18718 5.44832 5.66686 7.10095 4.3125C5.49823 5.72489 3.70866 7.24637 2.05603 8.60654L2.06183 8.60074Z" fill="#DBDBDB"/>
<path d="M9.57411 10.5417C9.57411 10.5417 9.04838 9.55526 8.72227 9.17343C8.39615 8.79161 6.65533 7.81211 6.42322 8.17652C6.12263 8.64654 7.01626 9.40903 7.50253 9.7247C7.50253 9.7247 6.8062 10.8121 7.33077 11.498C7.85534 12.1839 9.57411 10.5417 9.57411 10.5417Z" fill="#D3766A"/>
<path d="M6.38264 8.33356C6.41746 8.9591 7.07897 9.33279 7.53275 9.67516C7.53969 9.67983 7.54538 9.68614 7.54931 9.69352C7.55324 9.70091 7.5553 9.70915 7.5553 9.71752C7.5553 9.72588 7.55324 9.73412 7.54931 9.74151C7.54538 9.7489 7.53969 9.7552 7.53275 9.75988C7.27162 10.2345 7.04184 10.9808 7.30064 11.4937C7.30233 11.4968 7.30273 11.5004 7.30175 11.5038C7.30077 11.5072 7.29849 11.51 7.29542 11.5117C7.29234 11.5134 7.28871 11.5138 7.28534 11.5128C7.28197 11.5119 7.27912 11.5096 7.27743 11.5065C6.92926 10.9947 7.09754 10.2427 7.41669 9.74131C6.95247 9.39314 6.29908 8.99275 6.38148 8.33356C6.37684 8.32892 6.38264 8.32892 6.38264 8.33356Z" fill="#263238"/>
<path d="M14.9926 20.2035L17.0049 16.2559L16.46 15.9781L14.4477 19.9258L14.9926 20.2035Z" fill="#3527D6"/>
<path d="M14.4476 19.9262L16.46 15.9785L15.0383 15.2538L13.0259 19.2015L14.4476 19.9262Z" fill="#3527D6"/>
<path opacity="0.1" d="M14.4476 19.9262L16.46 15.9785L15.0383 15.2538L13.0259 19.2015L14.4476 19.9262Z" fill="black"/>
<path d="M15.2067 19.7861L15.3943 19.418L14.8494 19.1402L14.6618 19.5083L15.2067 19.7861Z" fill="#455A64"/>
<path d="M15.5163 19.1749L15.589 19.0322L15.0441 18.7545L14.9714 18.8972L15.5163 19.1749Z" fill="#455A64"/>
<path d="M14.1177 19.8761L16.2797 15.6348L15.5983 15.2874L13.4363 19.5288L14.1177 19.8761Z" fill="#C7C7C7"/>
<path d="M15.9335 16.309L16.1438 15.8965L15.4624 15.5492L15.2521 15.9617L15.9335 16.309Z" fill="#3527D6"/>
<path d="M15.7682 16.6345L15.8557 16.4629L15.1743 16.1156L15.0868 16.2872L15.7682 16.6345Z" fill="#3527D6"/>
<path d="M14.3803 19.3588L14.5906 18.9463L13.9092 18.599L13.6989 19.0115L14.3803 19.3588Z" fill="#3527D6"/>
<path d="M12.1489 18.878L13.4362 19.5342L15.6003 15.2887L14.313 14.6325L12.1489 18.878Z" fill="#EBEBEB"/>
<path d="M13.3358 19.399L15.3318 15.4834L14.7662 15.1951L12.7702 19.1107L13.3358 19.399Z" fill="#455A64"/>
<path d="M12.7707 19.11L14.7667 15.1943L13.3316 14.4628L11.3356 18.3784L12.7707 19.11Z" fill="#37474F"/>
<path d="M13.277 19.3697L15.2729 15.4541L14.8242 15.2254L12.8282 19.141L13.277 19.3697Z" fill="white"/>
<path d="M14.7885 15.5273C14.221 16.7262 13.5583 18.026 12.9224 19.19C13.4899 17.9912 14.1525 16.6914 14.7885 15.5273Z" fill="#DBDBDB"/>
<path d="M14.8768 15.5732C14.3081 16.7709 13.6466 18.0707 13.0106 19.2348C13.5781 18.0359 14.2408 16.7373 14.8768 15.5732Z" fill="#DBDBDB"/>
<path d="M14.9649 15.6172C14.3962 16.816 13.7347 18.1159 13.0975 19.2799C13.6662 18.081 14.3289 16.7812 14.9649 15.6172Z" fill="#DBDBDB"/>
<path d="M15.053 15.6592C14.4843 16.858 13.8217 18.1578 13.1857 19.3219C13.7543 18.123 14.417 16.8232 15.053 15.6592Z" fill="#DBDBDB"/>
<path d="M12.6705 15.028C12.414 14.8179 9.30486 19.1131 9.39422 19.9429C9.4685 20.5928 12.4766 22.8443 14.727 22.6609C15.5695 22.5913 17.2407 17.0531 17.2024 16.7839C17.1746 16.5959 15.8237 16.9417 14.4658 16.4647C13.867 16.2547 13.3726 15.6059 12.6705 15.028Z" fill="#3527D6"/>
<path opacity="0.3" d="M12.6705 15.028C12.414 14.8179 9.30486 19.1131 9.39422 19.9429C9.4685 20.5928 12.4766 22.8443 14.727 22.6609C15.5695 22.5913 17.2407 17.0531 17.2024 16.7839C17.1746 16.5959 15.8237 16.9417 14.4658 16.4647C13.867 16.2547 13.3726 15.6059 12.6705 15.028Z" fill="black"/>
<path opacity="0.1" d="M11.5378 19.8894C11.3224 19.7064 11.1164 19.5127 10.9204 19.3091C11.0247 19.0922 11.1434 18.8825 11.2755 18.6813C11.2755 18.6755 11.2755 18.6813 11.2755 18.6813C11.137 18.8725 11.0091 19.0713 10.8925 19.2766C10.8252 19.2047 10.7591 19.1304 10.6941 19.0526C10.8508 18.7382 11.0328 18.437 11.2384 18.1521C11.2442 18.1439 11.2326 18.1323 11.2268 18.1405C11.0188 18.4154 10.8251 18.7009 10.6465 18.9958C10.5711 18.9018 10.4979 18.8043 10.4272 18.6998C10.4262 18.6985 10.4248 18.6975 10.4232 18.6972C10.4215 18.6968 10.4198 18.6972 10.4185 18.6981C10.4171 18.699 10.4161 18.7005 10.4158 18.7021C10.4155 18.7037 10.4158 18.7054 10.4167 18.7068C10.4763 18.8243 10.5433 18.9379 10.6175 19.0468C10.5421 19.1757 10.4736 19.308 10.4097 19.4426C10.3285 19.3416 10.2508 19.236 10.1776 19.1246C10.1764 19.1224 10.1744 19.1209 10.172 19.1202C10.1696 19.1196 10.167 19.1199 10.1649 19.1211C10.1627 19.1224 10.1611 19.1244 10.1605 19.1268C10.1598 19.1292 10.1602 19.1317 10.1614 19.1339C10.2312 19.257 10.3087 19.3756 10.3935 19.489C10.3322 19.6235 10.2788 19.7615 10.2333 19.9022C10.2252 19.9277 10.267 19.9416 10.2786 19.9173C10.3355 19.8012 10.3947 19.6793 10.448 19.561C10.5107 19.6399 10.5757 19.7165 10.6453 19.7931C10.5493 20.0175 10.475 20.2507 10.4237 20.4894C10.4179 20.5184 10.4597 20.5254 10.4689 20.4987C10.5397 20.277 10.6152 20.0612 10.701 19.8476C10.8483 19.9981 11.0122 20.1312 11.1896 20.2445C11.2047 20.2538 11.221 20.2306 11.207 20.219C11.0384 20.0839 10.8773 19.9398 10.7243 19.7873C10.7776 19.655 10.8322 19.5238 10.8914 19.3962C11.0747 19.6047 11.2902 19.7825 11.5297 19.9231C11.5319 19.9236 11.5342 19.9237 11.5364 19.9233C11.5387 19.923 11.5408 19.9222 11.5428 19.921C11.5447 19.9198 11.5464 19.9183 11.5477 19.9164C11.5491 19.9146 11.55 19.9125 11.5506 19.9103C11.5511 19.9081 11.5512 19.9058 11.5508 19.9035C11.5505 19.9013 11.5497 19.8991 11.5485 19.8972C11.5473 19.8953 11.5458 19.8936 11.5439 19.8922C11.5421 19.8909 11.54 19.8899 11.5378 19.8894ZM10.4655 19.5064C10.5293 19.373 10.5931 19.2395 10.6604 19.1072C10.7185 19.1896 10.7765 19.2697 10.8461 19.3463C10.7788 19.4704 10.7196 19.5981 10.6627 19.7269C10.5943 19.6561 10.5339 19.5819 10.4655 19.5064Z" fill="black"/>
<path opacity="0.1" d="M16.1696 19.2085C16.0922 19.19 16.0191 19.1702 15.9502 19.1493C15.9851 19.0484 16.0176 18.9462 16.0512 18.8441C16.118 18.8626 16.1864 18.8746 16.2555 18.8801C16.2717 18.8801 16.274 18.8546 16.2555 18.8522C16.1893 18.8383 16.1255 18.8197 16.0617 18.8012C16.1278 18.5934 16.1916 18.3845 16.2566 18.178C16.2566 18.1687 16.2439 18.1652 16.2404 18.178C16.1754 18.3857 16.1 18.59 16.0222 18.7919C15.9665 18.7745 15.9119 18.7536 15.8574 18.7315C15.9735 18.4136 16.0651 18.0898 16.1591 17.7718C16.1591 17.7602 16.1441 17.7567 16.1406 17.7718C16.0326 18.0874 15.9085 18.3973 15.7924 18.7083C15.6277 18.6341 15.4677 18.55 15.3131 18.4565C15.3131 18.4565 15.305 18.4565 15.3131 18.4635C15.4609 18.5692 15.616 18.6642 15.7773 18.7478C15.7367 18.8511 15.6961 18.9555 15.6613 19.0588C15.5332 19.0089 15.4097 18.948 15.2922 18.8766C15.2922 18.8766 15.2829 18.8766 15.2922 18.8847C15.4027 18.9598 15.5192 19.0258 15.6404 19.082C15.5882 19.2201 15.5371 19.3594 15.4895 19.4987C15.4814 19.523 15.5208 19.5358 15.5313 19.5138C15.5963 19.3838 15.6555 19.2492 15.7112 19.1134C15.7631 19.1351 15.8162 19.154 15.8702 19.1702C15.7541 19.4546 15.6381 19.7377 15.5394 20.0256C15.5301 20.0499 15.5707 20.0639 15.5824 20.0406C15.717 19.7647 15.8333 19.4801 15.9305 19.1888C16.0065 19.2094 16.0842 19.2234 16.1626 19.2306C16.1789 19.2317 16.1847 19.212 16.1696 19.2085ZM15.7286 19.0786C15.7692 18.9764 15.8075 18.8743 15.8446 18.771C15.8978 18.7949 15.9525 18.8155 16.0083 18.8325L15.8922 19.1319L15.7286 19.0786Z" fill="black"/>
<path d="M17.2024 16.7839C17.5784 15.8206 18.19 14.833 18.7494 13.8071C19.3088 12.7811 19.2693 10.2001 18.9165 9.62907C18.5637 9.05808 17.4797 8.60546 17.1374 8.67626C16.795 8.74705 18.2585 9.17878 18.479 9.67781C18.6995 10.1769 18.5869 12.9575 18.3861 13.2291C18.1854 13.5007 16.5513 16.5042 16.5467 16.7456C16.542 16.987 17.2024 16.7839 17.2024 16.7839Z" fill="#3527D6"/>
<path opacity="0.3" d="M17.2024 16.7839C17.5784 15.8206 18.19 14.833 18.7494 13.8071C19.3088 12.7811 19.2693 10.2001 18.9165 9.62907C18.5637 9.05808 17.4797 8.60546 17.1374 8.67626C16.795 8.74705 18.2585 9.17878 18.479 9.67781C18.6995 10.1769 18.5869 12.9575 18.3861 13.2291C18.1854 13.5007 16.5513 16.5042 16.5467 16.7456C16.542 16.987 17.2024 16.7839 17.2024 16.7839Z" fill="black"/>
<path d="M16.6733 9.05157C16.7162 9.16763 17.3847 9.87556 17.929 9.78272C18.1065 9.75138 17.9824 8.77536 17.9824 8.77536L17.9893 8.70225L18.0903 7.66471L16.8137 7.04962L16.6303 6.9707C16.6303 6.9707 16.621 7.2562 16.6141 7.61133C16.6141 7.62874 16.6141 7.64498 16.6141 7.66239C16.6141 7.6798 16.6141 7.70185 16.6141 7.72042C16.6141 7.77381 16.6141 7.82835 16.6141 7.88174C16.6141 7.93512 16.6141 7.96297 16.6141 8.00591C16.6141 8.04885 16.6141 8.09179 16.6141 8.1359C16.6129 8.44211 16.6327 8.74805 16.6733 9.05157Z" fill="#D3766A"/>
<path d="M16.6105 7.61133C16.7472 7.88244 16.9414 8.12049 17.1795 8.30889C17.4176 8.4973 17.6939 8.63153 17.9892 8.70225L18.0902 7.66471L16.8136 7.04962L16.6302 6.9707C16.6302 6.9707 16.6174 7.2562 16.6105 7.61133Z" fill="#263238"/>
<path d="M18.9839 5.42038C19.8624 7.02426 19.0013 7.7322 18.6543 7.92137C18.3398 8.09313 17.2477 8.63742 16.2078 7.13219C15.168 5.62696 15.6403 4.71128 16.3366 4.28536C17.033 3.85944 18.1053 3.82114 18.9839 5.42038Z" fill="#D3766A"/>
<path d="M18.4466 5.37706C18.4086 5.39041 18.3698 5.40164 18.3306 5.41072C18.2893 5.42887 18.2432 5.43295 18.1994 5.42232C18.1865 5.41604 18.1759 5.40578 18.1692 5.39304C18.1625 5.3803 18.1601 5.36575 18.1623 5.35153C18.1717 5.32433 18.1881 5.30011 18.2099 5.28135C18.2318 5.26259 18.2582 5.24996 18.2865 5.24476C18.3413 5.2231 18.4023 5.2231 18.4571 5.24476C18.4708 5.25033 18.4823 5.26012 18.4901 5.2727C18.4978 5.28527 18.5014 5.3 18.5002 5.31473C18.4991 5.32946 18.4932 5.34344 18.4836 5.35465C18.474 5.36585 18.461 5.3737 18.4466 5.37706Z" fill="#263238"/>
<path d="M17.3405 5.97996C17.3765 5.95559 17.4055 5.92658 17.4392 5.89988C17.4774 5.87639 17.5068 5.84088 17.5227 5.79892C17.5255 5.78465 17.5234 5.76986 17.5166 5.75698C17.5099 5.74411 17.4989 5.73393 17.4856 5.72812C17.4582 5.72012 17.4291 5.71956 17.4013 5.7265C17.3736 5.73343 17.3482 5.74761 17.3278 5.76758C17.2798 5.80239 17.2464 5.85361 17.2338 5.91149C17.2318 5.92473 17.2338 5.93825 17.2393 5.95042C17.2449 5.9626 17.2538 5.97291 17.2651 5.98014C17.2763 5.98736 17.2894 5.99119 17.3028 5.99116C17.3162 5.99112 17.3293 5.98724 17.3405 5.97996Z" fill="#263238"/>
<path d="M17.8047 6.24414C17.8047 6.24414 17.8047 6.25342 17.8047 6.25807C17.8674 6.366 17.9207 6.49946 17.8441 6.58998C17.9614 6.51223 17.8824 6.33582 17.8047 6.24414Z" fill="#263238"/>
<path d="M17.6446 6.18372C17.4624 6.26612 17.6446 6.62589 17.8117 6.5493C17.9788 6.4727 17.7989 6.11409 17.6446 6.18372Z" fill="#263238"/>
<path d="M17.5842 6.23708C17.5621 6.27421 17.5493 6.32528 17.5134 6.35313C17.4774 6.38099 17.4205 6.35313 17.3729 6.33688C17.3729 6.33688 17.3671 6.33688 17.3729 6.34385C17.4066 6.41348 17.4681 6.47035 17.547 6.44365C17.5804 6.42729 17.6064 6.39902 17.6199 6.36444C17.6334 6.32985 17.6335 6.29145 17.6201 6.25681C17.6132 6.23708 17.5923 6.22315 17.5842 6.23708Z" fill="#263238"/>
<path d="M18.4036 5.88477C18.4036 5.88477 18.4152 5.88477 18.4175 5.88477C18.4686 6.00082 18.5463 6.11688 18.6659 6.10759C18.6659 6.10759 18.6717 6.10759 18.6659 6.11455C18.5417 6.16214 18.4337 5.99966 18.4036 5.88477Z" fill="#263238"/>
<path d="M18.4466 5.71851C18.6195 5.61638 18.811 5.97035 18.6497 6.06668C18.4883 6.163 18.3015 5.80323 18.4466 5.71851Z" fill="#263238"/>
<path d="M18.5325 5.70083C18.5708 5.70083 18.6172 5.72404 18.6485 5.70896C18.6798 5.69387 18.6961 5.63584 18.7007 5.58594C18.7007 5.58594 18.7007 5.58594 18.7089 5.58594C18.7472 5.65325 18.7622 5.73565 18.7089 5.78323C18.6555 5.83081 18.5812 5.79252 18.529 5.73333C18.5185 5.72404 18.5174 5.69967 18.5325 5.70083Z" fill="#263238"/>
<path d="M18.6183 6.71582C18.6083 6.8027 18.5759 6.88549 18.5243 6.95605C18.4945 6.99328 18.454 7.02042 18.4082 7.03381C18.3084 7.06282 18.2585 6.98507 18.2341 6.90731C18.2211 6.86628 18.2133 6.82378 18.2109 6.78081C18.3502 6.80353 18.493 6.78074 18.6183 6.71582Z" fill="#263238"/>
<path d="M18.5243 6.95442C18.4945 6.99164 18.454 7.01879 18.4082 7.03218C18.3084 7.06119 18.2585 6.98343 18.2341 6.90568C18.2807 6.87903 18.335 6.86932 18.3879 6.87821C18.4408 6.88709 18.489 6.91402 18.5243 6.95442Z" fill="#FF9BBC"/>
<path d="M18.5417 6.47928C18.5417 6.47928 18.6496 6.63247 18.6891 6.71139C18.6891 6.71952 18.6763 6.73228 18.6508 6.74737C18.59 6.79393 18.5176 6.82288 18.4414 6.83107C18.3653 6.83926 18.2884 6.82636 18.2191 6.79379C18.2098 6.79379 18.2191 6.77522 18.226 6.77638C18.3601 6.79349 18.4962 6.76661 18.6137 6.69979C18.6137 6.67542 18.421 6.44214 18.4326 6.43518C18.4959 6.40958 18.5622 6.39241 18.6299 6.38412C18.4152 6.058 18.1483 5.76786 17.9336 5.43943C17.9316 5.43697 17.9306 5.43381 17.931 5.43065C17.9313 5.4275 17.9329 5.4246 17.9353 5.4226C17.9378 5.4206 17.9409 5.41966 17.9441 5.41999C17.9473 5.42031 17.9502 5.42188 17.9522 5.42434C18.2473 5.72543 18.5113 6.05554 18.7402 6.40965C18.7738 6.45259 18.5789 6.4758 18.5417 6.47928Z" fill="#263238"/>
<path d="M16.2705 7.17949C16.4492 7.07968 16.6813 6.33925 16.2635 5.43866C16.2635 5.43866 16.5839 6.26846 16.5804 6.41469C16.5769 6.56092 16.7092 5.99921 16.3819 5.2727C16.6864 5.3243 16.9967 5.33211 17.3034 5.29592C17.6875 5.22512 17.893 5.12183 17.9057 5.08586C17.9185 5.04988 17.3429 5.1346 17.1328 5.04524C17.1328 5.04524 18.2365 5.02551 18.667 4.85491C18.7169 4.83518 18.291 3.98681 17.4461 3.88004C16.6013 3.77327 15.8074 4.55432 15.6624 4.95123C15.6624 4.95123 15.4152 5.10907 15.3305 5.75782C15.2388 6.46227 16.0779 7.28858 16.2705 7.17949Z" fill="#263238"/>
<path d="M17.8592 7.05292C17.7508 7.09948 17.6316 7.1147 17.515 7.09685C17.3984 7.07899 17.2892 7.02878 17.1997 6.95192C17.1103 6.87507 17.0442 6.77465 17.009 6.66209C16.9738 6.54953 16.9708 6.42935 17.0005 6.31522C17.0302 6.20108 17.0914 6.09757 17.177 6.01646C17.2626 5.93534 17.3693 5.87988 17.4848 5.85639C17.6004 5.83289 17.7203 5.84229 17.8308 5.88353C17.9413 5.92477 18.038 5.99619 18.1099 6.08966C18.2116 6.22239 18.2565 6.39004 18.2347 6.55583C18.213 6.72163 18.1263 6.87202 17.9938 6.974C17.9527 7.00625 17.9074 7.0328 17.8592 7.05292ZM17.395 5.97245C17.3535 5.99018 17.3145 6.01319 17.2789 6.04092C17.1684 6.12601 17.0946 6.25002 17.0724 6.38768C17.0502 6.52534 17.0813 6.66628 17.1594 6.78178C17.2376 6.89728 17.3568 6.97864 17.4928 7.00928C17.6289 7.03992 17.7714 7.01753 17.8915 6.94667C18.0116 6.87582 18.1002 6.76183 18.1391 6.62795C18.1781 6.49406 18.1645 6.35036 18.1012 6.22613C18.0379 6.1019 17.9296 6.00649 17.7984 5.95936C17.6671 5.91222 17.5229 5.9169 17.395 5.97245Z" fill="#3527D6"/>
<path d="M19.0594 6.34674C18.8377 6.44191 18.5383 6.30148 18.3747 6.01599C18.2943 5.88109 18.2578 5.72455 18.2702 5.56802C18.2717 5.5007 18.2905 5.43491 18.3248 5.37698C18.3591 5.31904 18.4078 5.27091 18.4661 5.23722C18.5244 5.20353 18.5903 5.1854 18.6577 5.1846C18.725 5.18379 18.7914 5.20033 18.8505 5.23262C18.9927 5.29997 19.11 5.41043 19.1859 5.54829C19.3588 5.84887 19.3182 6.19936 19.093 6.32818C19.0823 6.33517 19.071 6.34138 19.0594 6.34674ZM18.5418 5.29529C18.532 5.29898 18.5227 5.30365 18.5139 5.30921C18.4683 5.33809 18.4304 5.37755 18.4033 5.42422C18.3763 5.47089 18.3609 5.5234 18.3584 5.5773C18.3479 5.71615 18.3807 5.85484 18.4524 5.97421C18.6021 6.23533 18.8737 6.36183 19.0582 6.25506C19.2427 6.14829 19.2694 5.85119 19.1197 5.59007C19.0521 5.468 18.9483 5.36989 18.8226 5.30921C18.7794 5.28749 18.732 5.27503 18.6837 5.27263C18.6353 5.27024 18.587 5.27795 18.5418 5.29529Z" fill="#3527D6"/>
<path d="M18.1345 6.16107L18.0671 6.1367C18.1031 6.03805 18.2192 5.86629 18.4014 5.922L18.3805 5.98931C18.218 5.9394 18.1379 6.15179 18.1345 6.16107Z" fill="#3527D6"/>
<path d="M15.9804 7.55961H15.9084C15.9084 7.52712 15.898 7.2335 16.0245 7.13253C16.151 7.03156 17.0109 6.63929 17.0481 6.62305L17.0782 6.68804C16.8287 6.80409 16.1603 7.11396 16.0697 7.18707C15.9792 7.26019 15.9769 7.47953 15.9804 7.55961Z" fill="#3527D6"/>
<path d="M16.5293 7.72544C16.5584 7.72477 16.5873 7.72008 16.6152 7.71151C16.6803 7.69573 16.7381 7.65804 16.7788 7.60474C16.796 7.58116 16.8101 7.55541 16.8206 7.52814C16.8346 7.48901 16.842 7.44784 16.8426 7.40628L16.5525 7.00009C16.5525 7.00009 15.9571 6.638 15.7772 6.87359C15.5974 7.10918 16.2055 7.74517 16.5293 7.72544Z" fill="#D3766A"/>
<path d="M15.9559 7.05138V7.05951C16.188 7.05254 16.3691 7.18833 16.5234 7.345C16.5036 7.33033 16.4807 7.32015 16.4565 7.31516C16.4323 7.31018 16.4073 7.31052 16.3833 7.31615C16.3592 7.32178 16.3367 7.33256 16.3172 7.34777C16.2977 7.36297 16.2817 7.38222 16.2704 7.40419C16.2704 7.40419 16.2762 7.4158 16.2809 7.41231C16.3103 7.38625 16.3472 7.37 16.3863 7.36584C16.4254 7.36168 16.4648 7.36981 16.4991 7.3891C16.5563 7.42218 16.61 7.46107 16.6592 7.50516C16.6755 7.51792 16.7033 7.49471 16.6882 7.47846C16.5803 7.22198 16.2345 6.95506 15.9559 7.05138Z" fill="#263238"/>
<path d="M16.5211 7.65132C16.534 7.66979 16.5538 7.68236 16.576 7.68628C16.5982 7.6902 16.621 7.68514 16.6395 7.67221C16.6579 7.65928 16.6705 7.63955 16.6744 7.61735C16.6784 7.59515 16.6733 7.5723 16.6604 7.55383C16.6474 7.53537 16.6277 7.52279 16.6055 7.51887C16.5833 7.51495 16.5605 7.52002 16.542 7.53294C16.5235 7.54587 16.5109 7.56561 16.507 7.58781C16.5031 7.61001 16.5082 7.63285 16.5211 7.65132Z" fill="white"/>
<path d="M16.3111 7.59771C16.3155 7.60428 16.3212 7.60989 16.3279 7.61422C16.3345 7.61855 16.3419 7.62151 16.3497 7.62291C16.3575 7.62432 16.3655 7.62415 16.3732 7.62241C16.3809 7.62067 16.3882 7.6174 16.3947 7.61279C16.4075 7.60349 16.4162 7.5895 16.4188 7.57387C16.4214 7.55823 16.4177 7.5422 16.4086 7.52923C16.3995 7.51631 16.3857 7.50752 16.3701 7.5048C16.3546 7.50208 16.3386 7.50565 16.3256 7.51473C16.3127 7.52381 16.3039 7.53765 16.3012 7.55321C16.2985 7.56878 16.302 7.58478 16.3111 7.59771Z" fill="white"/>
<path d="M42.4372 30.0431C42.5626 30.3112 41.8036 30.6872 41.4078 30.6326C41.0696 30.542 40.7378 30.4291 40.4144 30.2949C39.3618 29.8934 37.8844 29.2829 37.8844 29.2829L37.2124 29.9502L33.754 32.7553L30.4626 29.0694C30.4626 29.0694 32.0712 27.5398 33.617 26.1309C33.8491 25.9138 34.0905 25.7026 34.3134 25.4972L34.3563 25.4589C35.4008 24.5305 36.277 23.7935 36.4081 23.8283C36.7668 23.9177 42.3119 29.7738 42.4372 30.0431Z" fill="#FFC4C0"/>
<path d="M42.4372 30.0432C42.5626 30.3124 41.8036 30.6873 41.4078 30.6328C41.0695 30.542 40.7376 30.4288 40.4144 30.2939C39.3618 29.8946 37.8844 29.283 37.8844 29.283L37.2113 29.9515L37.0952 30.0444L33.5695 26.1762L33.6194 26.1298L34.3157 25.4973C34.3296 25.4834 34.3447 25.4706 34.3586 25.459C35.4031 24.5306 36.2793 23.7936 36.4116 23.8273C36.7668 23.9166 42.3119 29.7739 42.4372 30.0432Z" fill="#EBEBEB"/>
<path d="M42.5451 30.1184C42.4221 29.8422 36.8503 23.8085 36.4917 23.7133C36.357 23.675 35.4298 24.4363 34.3377 25.3868L34.3029 25.417L37.8541 29.3501L37.9191 29.2874C37.9191 29.2874 41.0851 30.643 41.4901 30.7056C41.8952 30.7683 42.6704 30.3934 42.5451 30.1184Z" fill="#3527D6"/>
<path opacity="0.1" d="M42.5451 30.1184C42.4221 29.8422 36.8503 23.8085 36.4917 23.7133C36.357 23.675 35.4298 24.4363 34.3377 25.3868L34.3029 25.417L37.8541 29.3501L37.9191 29.2874C37.9191 29.2874 41.0851 30.643 41.4901 30.7056C41.8952 30.7683 42.6704 30.3934 42.5451 30.1184Z" fill="black"/>
<path d="M42.2481 30.2658C41.2848 29.2723 37.4898 25.1721 36.6113 24.1149C36.6043 24.1067 36.6113 24.1009 36.6182 24.1149C37.5954 25.0793 41.3568 29.2097 42.2655 30.2553C42.2841 30.2727 42.2736 30.2867 42.2481 30.2658Z" fill="#263238"/>
<path d="M38.2662 29.7743C37.8217 29.4424 37.4306 28.8958 37.4341 28.3271C37.4341 28.305 37.4654 28.305 37.4724 28.3271C37.7025 28.8234 37.985 29.2938 38.315 29.7302C38.3178 29.7368 38.3184 29.7442 38.3169 29.7513C38.3153 29.7583 38.3116 29.7647 38.3062 29.7695C38.3009 29.7744 38.2942 29.7774 38.287 29.7783C38.2798 29.7791 38.2726 29.7777 38.2662 29.7743Z" fill="#263238"/>
<path d="M38.706 29.9018C38.2627 29.571 37.8716 29.0244 37.8739 28.4546C37.8739 28.4325 37.9064 28.4337 37.9134 28.4546C38.143 28.9512 38.4255 29.4216 38.7559 29.8577C38.759 29.8645 38.7599 29.8721 38.7583 29.8794C38.7567 29.8867 38.7529 29.8933 38.7473 29.8982C38.7417 29.9032 38.7347 29.9062 38.7273 29.9068C38.7198 29.9075 38.7124 29.9057 38.706 29.9018Z" fill="#263238"/>
<path d="M39.1469 30.029C38.7036 29.6982 38.3125 29.1516 38.3148 28.5829C38.3148 28.5609 38.3462 28.5609 38.3543 28.5829C38.5849 29.0769 38.8673 29.5449 39.1968 29.9791C39.2001 29.9824 39.2027 29.9863 39.2045 29.9905C39.2063 29.9948 39.2072 29.9994 39.2072 30.004C39.2072 30.0087 39.2063 30.0133 39.2045 30.0175C39.2027 30.0218 39.2001 30.0257 39.1968 30.029C39.1936 30.0323 39.1897 30.0349 39.1854 30.0366C39.1811 30.0384 39.1765 30.0393 39.1719 30.0393C39.1673 30.0393 39.1627 30.0384 39.1584 30.0366C39.1541 30.0349 39.1502 30.0323 39.1469 30.029Z" fill="#263238"/>
<path d="M38.2777 30.3945C38.2359 29.907 37.9864 29.4556 37.803 29.0123C37.798 29.003 37.7908 28.995 37.7821 28.9889C37.7735 28.9829 37.7635 28.9789 37.7531 28.9773C37.7426 28.9758 37.7319 28.9766 37.7219 28.9799C37.7118 28.9831 37.7026 28.9886 37.6951 28.996C37.6938 28.9941 37.6921 28.9925 37.6901 28.9914C37.688 28.9904 37.6858 28.9898 37.6835 28.9898C37.6812 28.9898 37.6789 28.9904 37.6769 28.9914C37.6749 28.9925 37.6731 28.9941 37.6719 28.996C37.4292 29.4447 37.3091 29.9495 37.3237 30.4595C37.3376 30.7566 37.5105 31.1384 37.8726 31.0966C38.2115 31.0595 38.302 30.6753 38.2777 30.3945ZM38.0456 30.7937C37.6707 31.2695 37.4653 30.5848 37.4653 30.3655C37.4668 30.2237 37.4777 30.0822 37.4978 29.9419C37.5447 29.6526 37.6063 29.366 37.6823 29.0831C37.7589 29.307 37.8541 29.5217 37.9376 29.7411C38.0432 30.0045 38.2556 30.5303 38.0502 30.7914L38.0456 30.7937Z" fill="#263238"/>
<path d="M35.829 28.227C35.6677 28.5543 35.9717 28.8445 36.248 28.9559C36.7252 29.1396 37.2425 29.1937 37.7474 29.1125C37.7497 29.1122 37.7518 29.1113 37.7537 29.11C37.7556 29.1087 37.7572 29.107 37.7583 29.105C37.7595 29.1029 37.7601 29.1007 37.7602 29.0984C37.7603 29.0961 37.7599 29.0938 37.759 29.0917C37.7685 29.0871 37.7768 29.0803 37.7832 29.0719C37.7897 29.0635 37.794 29.0537 37.7959 29.0433C37.7978 29.0329 37.7973 29.0222 37.7943 29.012C37.7913 29.0019 37.786 28.9926 37.7787 28.9849C37.4213 28.6657 37.0824 28.2793 36.6333 28.0797C36.3687 27.9624 35.9799 27.9183 35.829 28.227ZM37.1323 28.6112C37.3122 28.7644 37.4805 28.9245 37.6696 29.0754C37.3783 29.0441 37.0894 29.0255 36.7981 28.9652C36.6588 28.9382 36.5215 28.9018 36.3872 28.8561C36.1806 28.7818 35.6027 28.3617 36.176 28.1667C36.4917 28.0553 36.9188 28.429 37.1323 28.6112Z" fill="#263238"/>
<path d="M36.7934 31.0239C36.7934 31.0239 28.9422 36.2266 25.5616 36.8475C23.9461 37.1446 22.1217 35.6092 22.2876 33.844C22.442 32.1972 26.3681 28.4881 27.2328 27.2289C27.5055 26.8343 27.8711 24.2451 27.8711 24.2451L31.6278 24.873C31.6278 24.873 31.5941 26.6927 31.449 27.7163C31.4471 27.734 31.4436 27.7515 31.4386 27.7686L32.6282 26.7241L36.7934 31.0239Z" fill="#37474F"/>
<path d="M34.0163 29.412C33.3931 28.7958 32.7397 28.2097 32.1165 27.6004C32.1037 27.5888 32.084 27.6004 32.0956 27.6166C32.706 28.241 33.2944 28.884 33.9165 29.4967C34.5385 30.1095 35.1849 30.7014 35.8209 31.3026C35.8372 31.3176 35.8639 31.2956 35.8476 31.2793C35.236 30.6585 34.636 30.0248 34.0163 29.412Z" fill="#263238"/>
<path d="M31.4723 27.7997C31.3063 28.0028 31.1578 28.2233 31.0023 28.4334C30.8468 28.6434 30.6924 28.8477 30.5311 29.0508C30.205 29.4581 29.8626 29.8539 29.511 30.2403C28.8033 31.0199 28.0442 31.7512 27.2386 32.4291C26.7883 32.8063 26.3322 33.1812 25.8459 33.5143C25.8355 33.5212 25.8459 33.5375 25.8587 33.5293C26.2069 33.2903 26.5655 33.0535 26.9032 32.8005C26.7489 33.0048 26.5991 33.2148 26.4448 33.4202C26.4378 33.4307 26.4529 33.4435 26.461 33.433C26.6328 33.216 26.8092 33.0024 26.9763 32.7831C26.9783 32.7807 26.9797 32.7778 26.9804 32.7748C26.9812 32.7718 26.9813 32.7686 26.9807 32.7656C26.9802 32.7625 26.979 32.7596 26.9772 32.757C26.9755 32.7544 26.9732 32.7522 26.9705 32.7506L27.1458 32.6195C27.5659 32.293 27.9717 31.9502 28.3632 31.5912C29.1374 30.8798 29.8491 30.1033 30.4905 29.2701C30.6715 29.038 30.8479 28.8001 31.0197 28.5564C31.1945 28.3199 31.3542 28.0726 31.4978 27.8159C31.5152 27.7997 31.4804 27.7835 31.4723 27.7997Z" fill="#263238"/>
<path d="M46.0093 27.6104C46.1927 27.8425 45.5451 28.3821 45.1424 28.4228C44.7924 28.4117 44.4435 28.378 44.0979 28.3218C42.9803 28.1732 41.402 27.9179 41.402 27.9179L40.9018 28.7233L38.2824 32.1725L34.1311 29.415C34.1311 29.415 35.345 27.5581 36.5253 25.8301C36.7075 25.5655 36.8874 25.3055 37.0638 25.0525L37.0952 25.0061C37.8983 23.8618 38.583 22.9438 38.7199 22.9473C39.0832 22.9508 45.826 27.3771 46.0093 27.6104Z" fill="#FFC4C0"/>
<path d="M46.0093 27.6107C46.1927 27.8428 45.5451 28.3837 45.1424 28.4231C44.7924 28.4122 44.4435 28.3784 44.0979 28.3222C42.9814 28.1736 41.4019 27.9183 41.4019 27.9183L40.9029 28.7237L40.8286 28.8212L36.4591 25.9268L36.5276 25.8281C36.7086 25.5635 36.8885 25.3036 37.0638 25.0506C37.0754 25.0355 37.0858 25.0192 37.0963 25.0041C37.8994 23.8598 38.5841 22.943 38.721 22.9453C39.0831 22.95 45.8248 27.3775 46.0093 27.6107Z" fill="#EBEBEB"/>
<path d="M46.1104 27.6237C45.9236 27.3916 39.0519 22.8875 38.6829 22.8828C38.5425 22.8828 37.8287 23.8414 36.9989 25.0298C36.9911 25.0427 36.9826 25.0551 36.9734 25.067L41.3742 28.0183L41.4218 27.9428C41.4218 27.9428 44.8222 28.4871 45.2307 28.45C45.6392 28.4128 46.2984 27.8604 46.1104 27.6237Z" fill="#3527D6"/>
<path d="M45.8585 27.8383C44.6817 27.1095 40.0036 24.0549 38.8952 23.2437C38.886 23.2368 38.8952 23.2309 38.8952 23.2367C40.0778 23.9331 44.7305 27.0271 45.8667 27.8198C45.8945 27.836 45.8829 27.8546 45.8585 27.8383Z" fill="#263238"/>
<path d="M41.8755 28.3293C41.3637 28.1158 40.8519 27.6806 40.715 27.1281C40.715 27.1072 40.7405 27.0991 40.7521 27.1142C41.0961 27.5417 41.4852 27.9308 41.9127 28.2748C41.9171 28.2806 41.9195 28.2876 41.9197 28.2949C41.9199 28.3022 41.9178 28.3093 41.9137 28.3154C41.9096 28.3214 41.9037 28.326 41.8968 28.3285C41.89 28.331 41.8825 28.3313 41.8755 28.3293Z" fill="#263238"/>
<path d="M42.3339 28.3453C41.8221 28.133 41.3103 27.6978 41.1733 27.1453C41.1733 27.1233 41.1989 27.1163 41.2105 27.1302C41.5548 27.5574 41.9439 27.9465 42.371 28.2908C42.3754 28.2966 42.3779 28.3036 42.3781 28.3109C42.3783 28.3182 42.3762 28.3254 42.3721 28.3314C42.368 28.3374 42.3621 28.342 42.3552 28.3445C42.3484 28.347 42.3409 28.3473 42.3339 28.3453Z" fill="#263238"/>
<path d="M42.7924 28.363C42.2817 28.1494 41.7699 27.7154 41.6318 27.1618C41.626 27.1409 41.6562 27.1339 41.669 27.1479C42.0133 27.5751 42.4023 27.9641 42.8295 28.3084C42.8339 28.3142 42.8364 28.3213 42.8366 28.3286C42.8368 28.3358 42.8346 28.343 42.8305 28.349C42.8264 28.3551 42.8206 28.3596 42.8137 28.3621C42.8069 28.3646 42.7994 28.3649 42.7924 28.363Z" fill="#263238"/>
<path d="M42.0415 28.9282C41.8825 28.464 41.5308 28.0891 41.2453 27.7038C41.2383 27.6957 41.2294 27.6894 41.2195 27.6855C41.2095 27.6815 41.1988 27.6799 41.1881 27.681C41.1774 27.682 41.1671 27.6855 41.1581 27.6913C41.1491 27.6971 41.1416 27.705 41.1362 27.7143C41.1343 27.7131 41.1321 27.7124 41.1299 27.7123C41.1277 27.7122 41.1254 27.7126 41.1234 27.7135C41.1213 27.7144 41.1195 27.7158 41.1181 27.7175C41.1167 27.7193 41.1158 27.7214 41.1153 27.7236C40.9894 28.2175 40.9958 28.7358 41.1339 29.2265C41.2186 29.512 41.4821 29.8404 41.821 29.7116C42.1389 29.5886 42.1297 29.1975 42.0415 28.9282ZM41.9173 29.3716C41.6701 29.924 41.3057 29.31 41.25 29.0977C41.2172 28.9597 41.1935 28.8198 41.1792 28.6787C41.1455 28.3862 41.1536 28.0984 41.149 27.8002C41.2778 27.9986 41.4217 28.1843 41.5575 28.3804C41.7165 28.6067 42.0496 29.0663 41.9138 29.3716H41.9173Z" fill="#263238"/>
<path d="M39.1402 27.4258C39.0636 27.7821 39.4292 27.9898 39.7205 28.0304C40.2264 28.0919 40.7395 28.019 41.2083 27.8192C41.2105 27.8184 41.2125 27.8171 41.2141 27.8154C41.2157 27.8137 41.2169 27.8116 41.2176 27.8093C41.2183 27.8071 41.2184 27.8047 41.218 27.8024C41.2176 27.8001 41.2167 27.7979 41.2153 27.796C41.2233 27.7891 41.2296 27.7804 41.2337 27.7706C41.2378 27.7609 41.2396 27.7503 41.239 27.7397C41.2383 27.7291 41.2352 27.7188 41.2298 27.7097C41.2245 27.7005 41.2171 27.6927 41.2083 27.6869C40.7835 27.4641 40.3565 27.1739 39.876 27.088C39.5951 27.0335 39.2063 27.0846 39.1402 27.4258ZM40.498 27.4815C40.7104 27.5859 40.9158 27.6997 41.1305 27.7971C40.8404 27.8378 40.5503 27.89 40.259 27.9016C40.117 27.9089 39.9747 27.907 39.833 27.8958C39.616 27.8737 38.9533 27.6068 39.4617 27.2784C39.7367 27.0927 40.2416 27.3526 40.4934 27.4768L40.498 27.4815Z" fill="#263238"/>
<path d="M28.5605 24.3613L33.7412 25.2468C33.7412 25.2468 34.6882 26.8437 34.7857 27.8743C34.8832 28.9049 31.2809 32.8879 31.2809 32.8879L35.7037 26.6314L40.744 29.8565C40.744 29.8565 34.5757 36.2895 30.4801 38.4748C28.9435 39.2953 26.7768 38.0233 26.6503 36.0133C26.5156 33.8987 28.9598 27.9602 28.9598 27.9602L28.5605 24.3613Z" fill="#37474F"/>
<path d="M35.5423 26.7294C34.282 28.7835 32.981 30.811 31.5698 32.7642C31.3736 33.0358 31.1775 33.3062 30.9779 33.5766C30.7783 33.847 30.5787 34.1499 30.3535 34.4145C30.3419 34.4273 30.364 34.4447 30.3744 34.4308C30.5531 34.1801 30.7585 33.9492 30.9477 33.7066C31.1369 33.464 31.3168 33.2308 31.4978 32.9894L31.7299 32.676L31.6974 32.7596C31.6452 32.8849 31.5941 33.0103 31.5454 33.1379C31.4456 33.3991 31.376 33.6764 31.2564 33.9294C31.2483 33.9445 31.2738 33.955 31.2796 33.9399C31.3794 33.6776 31.5245 33.4339 31.6348 33.1762C31.6874 33.0509 31.7373 32.9244 31.7845 32.7967C31.8324 32.684 31.8712 32.5675 31.9005 32.4486C32.1268 32.1399 32.352 31.8312 32.5736 31.5201C33.27 30.536 33.935 29.5302 34.5686 28.5027C34.9226 27.9305 35.265 27.3514 35.5946 26.7619C35.6085 26.7294 35.5563 26.6922 35.5423 26.7294Z" fill="#263238"/>
<path d="M37.7473 28.8187C36.9999 28.3626 36.2328 27.9413 35.4819 27.4922C35.468 27.484 35.4518 27.5038 35.4669 27.513C36.2038 27.9773 36.9245 28.4705 37.6719 28.9243C38.4193 29.378 39.1806 29.8051 39.9408 30.2438C39.9605 30.2554 39.9814 30.2276 39.9617 30.2148C39.2201 29.7529 38.4913 29.2748 37.7473 28.8187Z" fill="#263238"/>
<path d="M28.9551 27.96C28.6267 28.5913 27.6959 31.0737 27.458 31.7445C27.2201 32.4153 27.0135 33.0861 26.8429 33.7708C26.757 34.119 26.6851 34.4672 26.6236 34.8153C26.5599 35.1498 26.5261 35.4892 26.5226 35.8297C26.5198 36.4425 26.7215 37.0388 27.0959 37.5241C27.2951 37.7813 27.5359 38.0033 27.8085 38.1809C28.0847 38.3502 28.3831 38.4802 28.6952 38.5674C28.7068 38.5674 28.7114 38.55 28.6952 38.5477C28.4049 38.4713 28.1333 38.3366 27.8967 38.1519C27.5461 37.8989 27.2561 37.5712 27.0476 37.1925C26.839 36.8138 26.7172 36.3935 26.6909 35.962C26.6584 35.29 26.8151 34.6087 26.9613 33.9577C27.114 33.2857 27.3003 32.6218 27.5195 31.9685C27.6425 31.6018 27.7737 31.2373 27.9095 30.8753C28.0453 30.5132 28.8669 28.3487 28.9911 27.9808C28.9933 27.9761 28.9936 27.9707 28.9921 27.9658C28.9905 27.9608 28.9871 27.9566 28.9826 27.954C28.9781 27.9514 28.9728 27.9505 28.9677 27.9516C28.9626 27.9527 28.9581 27.9557 28.9551 27.96Z" fill="#263238"/>
<path d="M30.2758 28.2584C29.8852 28.1063 29.4775 28.0022 29.0618 27.9485C28.6562 27.884 28.2475 27.8402 27.8374 27.8174C27.8258 27.8174 27.8258 27.8348 27.8374 27.8371C28.2529 27.894 28.6661 27.9694 29.0757 28.0553C29.4854 28.1412 29.8696 28.2491 30.2711 28.3013C30.2943 28.3048 30.2955 28.2665 30.2758 28.2584Z" fill="#263238"/>
<path d="M33.7947 27.5804C33.4942 27.609 33.1922 27.6179 32.8906 27.607C32.6411 27.6012 32.3846 27.5954 32.1618 27.4666C31.7277 27.2159 31.5026 26.7111 31.361 26.2515C31.361 26.2411 31.3389 26.2515 31.3424 26.2573C31.4712 26.7598 31.5652 27.3424 32.055 27.6314C32.2982 27.7584 32.574 27.8094 32.8465 27.7776C33.1688 27.7513 33.4876 27.6926 33.7981 27.6024C33.8004 27.6013 33.8023 27.5996 33.8035 27.5973C33.8047 27.5951 33.8051 27.5926 33.8047 27.5901C33.8043 27.5876 33.8031 27.5853 33.8013 27.5835C33.7995 27.5818 33.7972 27.5807 33.7947 27.5804Z" fill="#263238"/>
<path d="M34.3958 27.8032C34.312 27.516 34.2076 27.2352 34.0836 26.9629C33.9606 26.6821 33.8263 26.4066 33.6809 26.1366C33.5161 25.8302 33.3327 25.532 33.1517 25.2372C33.1503 25.235 33.1481 25.2335 33.1456 25.2328C33.1432 25.2321 33.1405 25.2324 33.1382 25.2335C33.1359 25.2347 33.1341 25.2366 33.1332 25.239C33.1322 25.2414 33.1322 25.2441 33.1331 25.2465C33.4139 25.7502 33.6785 26.2643 33.9176 26.79C34.036 27.05 34.1474 27.3134 34.2519 27.5803C34.3666 27.8351 34.4184 28.1137 34.4027 28.3927C34.3745 28.6765 34.2626 28.9456 34.0813 29.1657C34.0813 29.1657 34.0813 29.1715 34.0813 29.1657C34.2419 28.9821 34.3547 28.7616 34.4096 28.5239C34.4645 28.2862 34.4597 28.0386 34.3958 27.8032Z" fill="#263238"/>
<path d="M35.7107 28.123C35.4495 28.419 35.2116 28.737 34.9691 29.0515C34.7265 29.366 34.4816 29.6735 34.2402 29.9857C33.7574 30.6113 33.2816 31.2426 32.8058 31.8728C32.5354 32.2314 32.2731 32.5958 32.0097 32.9579C32.0015 32.9683 32.0166 32.9811 32.0247 32.9707C33.0159 31.7405 33.983 30.4917 34.9261 29.2244C35.1942 28.8646 35.4739 28.5107 35.7211 28.137C35.7257 28.13 35.7165 28.123 35.7107 28.123Z" fill="#263238"/>
<path d="M28.6417 25.0683C28.6545 25.3956 28.6974 26.3879 28.7218 26.7151C28.7322 26.8649 28.7427 27.018 28.7671 27.1666C28.788 27.2919 28.8286 27.4382 28.9574 27.4927C29.1059 27.5554 29.1779 27.4324 29.1895 27.3024C29.2009 27.1553 29.2048 27.0077 29.2011 26.8602C29.2011 26.6919 29.1651 25.1519 29.1651 25.1472C29.1651 25.1426 29.1651 25.1321 29.1779 25.1263C29.1798 25.1246 29.1823 25.1237 29.1849 25.1237C29.1874 25.1237 29.1899 25.1246 29.1918 25.1263C29.2185 25.1496 29.3079 26.5109 29.3079 26.6687C29.3079 26.8266 29.3195 26.9844 29.3241 27.1422C29.3398 27.26 29.325 27.3799 29.2812 27.4904C29.2561 27.5426 29.2146 27.5853 29.1631 27.6118C29.1116 27.6384 29.0528 27.6475 28.9957 27.6378C28.9957 27.6494 29.0027 27.6598 29.005 27.6714C29.0119 27.7051 29.0154 27.7399 29.0201 27.7736C29.0247 27.8072 29.0293 27.8432 29.0317 27.878C29.0328 27.8946 29.0328 27.9113 29.0317 27.9279C29.0317 27.9465 29.0224 27.9627 29.0212 27.9813C29.0201 27.9999 28.9771 28.0196 28.969 27.9894C28.9609 27.9593 28.9551 27.9569 28.9493 27.9395C28.9437 27.9209 28.9399 27.9019 28.9377 27.8827C28.9377 27.849 28.9319 27.8165 28.9295 27.7828C28.9272 27.7492 28.9295 27.7155 28.9295 27.683C28.9303 27.6632 28.9323 27.6435 28.9353 27.6239C28.8718 27.6044 28.8148 27.5679 28.7705 27.5182C28.6979 27.4248 28.654 27.3123 28.644 27.1944C28.6243 27.0552 28.6162 26.9136 28.6069 26.7732C28.586 26.425 28.5396 25.4107 28.5802 25.0637C28.5808 25.0555 28.5847 25.0479 28.5909 25.0426C28.5971 25.0373 28.6051 25.0346 28.6133 25.0352C28.6214 25.0359 28.629 25.0397 28.6344 25.0459C28.6397 25.0521 28.6423 25.0602 28.6417 25.0683Z" fill="#263238"/>
<path d="M33.0042 13.183C32.5179 12.894 31.355 12.6839 30.567 13.8549C29.4436 15.518 30.8072 19.0275 31.1368 19.5335C31.1368 19.5335 33.8061 19.8376 35.7257 18.0735C35.7257 18.0735 33.9732 15.8917 33.885 14.5919C33.8661 14.3025 33.7758 14.0223 33.6221 13.7765C33.4683 13.5306 33.256 13.3267 33.0042 13.183Z" fill="#263238"/>
<path d="M34.4143 15.9062C34.4259 15.9248 34.4375 15.9434 34.4502 15.962C34.6092 16.1937 34.7891 16.4105 34.9876 16.6095C35.173 16.805 35.3856 16.9727 35.6189 17.1074C35.6189 17.1074 35.6317 17.1016 35.6189 17.0981C35.3873 16.9495 35.1818 16.7637 35.0108 16.548C34.8357 16.3468 34.6729 16.1352 34.5233 15.9144C34.2177 15.4658 33.97 14.9803 33.7864 14.4695C33.7864 14.459 33.7643 14.4695 33.7678 14.4695C33.7876 14.5426 33.8085 14.6157 33.8317 14.6877C33.8301 14.6874 33.8286 14.6876 33.8271 14.6881C33.8256 14.6886 33.8243 14.6895 33.8233 14.6906C33.8222 14.6918 33.8215 14.6932 33.8211 14.6947C33.8208 14.6962 33.8208 14.6978 33.8212 14.6993C33.9654 15.1825 34.1599 15.6493 34.4015 16.0919C34.6567 16.5192 34.9691 16.9097 35.3299 17.2525C35.5317 17.448 35.7452 17.6309 35.9694 17.8003C35.9694 17.8003 35.9764 17.8003 35.9694 17.7945C35.345 17.2604 34.8187 16.6214 34.4143 15.9062Z" fill="#263238"/>
<path d="M30.9676 13.5446C29.8743 14.5995 29.8453 16.2011 30.1552 17.5497C30.246 17.9658 30.3774 18.372 30.5474 18.7624C30.5474 18.764 30.548 18.7655 30.5491 18.7665C30.5502 18.7676 30.5517 18.7682 30.5532 18.7682C30.5548 18.7682 30.5562 18.7676 30.5573 18.7665C30.5584 18.7655 30.559 18.764 30.559 18.7624C30.3094 18.069 30.1616 17.3431 30.1203 16.6073C30.0844 15.9179 30.1145 15.1891 30.3675 14.5299C30.5001 14.1679 30.71 13.8392 30.9826 13.5667C30.9908 13.5527 30.9768 13.5353 30.9676 13.5446Z" fill="#263238"/>
<path d="M30.7564 25.211C30.8121 25.2842 35.5854 25.6288 35.8152 25.5697C35.8264 25.5663 35.8372 25.5621 35.8477 25.5569C36.132 25.4327 37.4725 24.271 37.5688 24.1735C37.7545 23.9925 36.4605 20.8694 35.3823 19.0009C35.0225 18.3777 34.4399 17.8404 34.274 17.6721C34.108 17.5038 31.1405 17.3541 30.609 17.5816C30.3769 17.6779 29.8117 18.2269 29.7966 18.3278C29.7768 18.4752 30.7018 25.1356 30.7564 25.211Z" fill="#455A64"/>
<path d="M30.7563 25.211C30.812 25.2841 35.5853 25.6288 35.8151 25.5696C35.8263 25.5663 35.8372 25.562 35.8476 25.5568C35.4229 24.3058 33.4279 18.4357 33.3675 18.3974C33.3072 18.3591 30.4743 18.2976 29.7942 18.3289C29.7768 18.4751 30.7017 25.1355 30.7563 25.211Z" fill="#263238"/>
<path d="M32.713 17.8656C32.7617 17.8215 32.8116 17.1692 32.7269 17.0416C32.6422 16.9139 31.4932 16.9348 31.4236 17.0567C31.354 17.1785 31.3075 17.8261 31.3365 17.8505C31.3656 17.8749 31.5594 17.9027 31.5861 17.8621C31.6128 17.8215 31.6255 17.2818 31.6464 17.2563C31.6673 17.2308 32.4646 17.1983 32.4913 17.24C32.518 17.2818 32.4356 17.8203 32.4669 17.847C32.4983 17.8737 32.6654 17.9097 32.713 17.8656Z" fill="#37474F"/>
<path d="M30.8444 17.5317C30.7736 15.481 30.5752 13.8109 30.2479 11.2774C30.0762 9.9579 29.7222 7.8016 29.6386 7.23293C29.5226 6.48321 26.0084 7.7633 26.1396 8.26698C26.2254 8.59541 26.6618 10.5881 27.2479 12.1154C28.0011 14.0744 28.4479 15.7839 29.3369 17.8508C30.0088 19.4106 30.892 18.8895 30.8444 17.5317Z" fill="#FFC4C0"/>
<path d="M26.5562 9.29962C26.0154 8.78666 24.6285 6.61411 24.451 6.12552C24.2734 5.63692 23.8649 4.1932 24.2258 4.01912C24.5868 3.84503 24.7388 4.25819 24.7388 4.25819C24.7388 4.25819 24.6459 3.56186 25.0417 3.47946C25.3574 3.41331 25.6046 3.98314 25.6046 3.98314C25.6046 3.98314 25.5419 3.21485 25.9458 3.18352C26.3125 3.1545 26.4239 3.83575 26.4239 3.83575C26.4239 3.83575 26.4367 3.18816 26.7964 3.22762C27.2282 3.27636 27.2061 4.39745 27.4429 4.92202C27.4963 5.03808 29.352 7.54255 29.352 7.54255L26.5562 9.29962Z" fill="#FFC4C0"/>
<path d="M26.4495 3.81293C26.5191 4.65433 26.5725 5.00134 26.9938 5.69534C27.0019 5.70811 26.9833 5.7232 26.974 5.71043C26.4994 5.06865 26.4065 4.66594 26.41 3.81061C26.41 3.76883 26.4471 3.77347 26.4495 3.81293Z" fill="#263238"/>
<path d="M25.6127 3.98352C25.6719 4.84233 25.832 5.22299 26.2197 5.98199C26.2255 5.99243 26.2069 6.00288 26.2011 5.99243C25.7578 5.27985 25.5315 4.84465 25.5837 3.97888C25.586 3.9429 25.6092 3.94754 25.6127 3.98352Z" fill="#263238"/>
<path d="M24.7586 4.29666C24.8747 5.12297 25.0163 5.56282 25.4874 6.25219C25.4887 6.25379 25.4896 6.25561 25.4901 6.25756C25.4906 6.2595 25.4907 6.26153 25.4904 6.26352C25.4902 6.26552 25.4895 6.26744 25.4885 6.26918C25.4875 6.27092 25.4861 6.27244 25.4845 6.27366C25.4829 6.27488 25.4811 6.27577 25.4792 6.27628C25.4772 6.2768 25.4752 6.27692 25.4732 6.27665C25.4712 6.27638 25.4693 6.27572 25.4676 6.27471C25.4658 6.2737 25.4643 6.27236 25.4631 6.27076C24.9141 5.61504 24.7366 5.06726 24.7343 4.29782C24.7343 4.25024 24.7493 4.24443 24.7586 4.29666Z" fill="#263238"/>
<path d="M29.721 7.98558C29.721 7.98558 29.8858 6.83083 29.0514 6.03818C28.7137 5.71786 28.6417 4.29735 28.2634 4.17085C27.8374 4.0281 27.6935 5.22695 27.9581 6.01148C27.9581 6.01148 26.8498 6.80298 27.068 7.57011C27.1156 7.73606 27.6738 8.42891 27.8676 8.46605L29.721 7.98558Z" fill="#FFC4C0"/>
<path d="M27.957 6.10205C27.5149 6.39451 27.068 6.93301 27.0808 7.46106C27.08 7.46366 27.0784 7.46593 27.0762 7.46754C27.074 7.46915 27.0713 7.47002 27.0686 7.47002C27.0659 7.47002 27.0633 7.46915 27.0611 7.46754C27.0589 7.46593 27.0573 7.46366 27.0564 7.46106C26.9659 6.89587 27.4766 6.26685 27.8874 6.0301C27.9663 5.98832 28.0708 6.02546 27.957 6.10205Z" fill="#263238"/>
<path opacity="0.1" d="M30.848 17.6396L28.752 8.23914L28.6952 7.95945L28.5014 7.08556L28.2704 6.0724L27.913 4.46967C27.9872 4.24453 28.1056 4.11455 28.2611 4.16677C28.6395 4.29443 28.7114 5.71378 29.0491 6.0341C29.699 6.65151 29.7455 7.48943 29.7292 7.82831C29.8708 8.7289 30.1122 10.2515 30.2457 11.2728C30.5729 13.8063 30.7714 15.4763 30.8434 17.527C30.8468 17.5677 30.848 17.6036 30.848 17.6396Z" fill="black"/>
<path d="M28.217 15.7293L30.841 14.166C30.841 14.166 31.0256 17.5212 30.8016 18.5227C30.5497 19.6508 30.0275 19.2748 29.4321 18.3521C28.8368 17.4295 28.217 15.7293 28.217 15.7293Z" fill="#3527D6"/>
<path d="M29.7327 16.5175C29.6643 16.3666 29.547 16.0672 29.3231 16.1461C29.149 16.2065 29.1467 16.4304 29.1606 16.5802C29.1838 16.8211 29.2765 17.0501 29.4275 17.2393C29.489 17.3194 29.59 17.4204 29.684 17.4146C29.7768 17.4262 29.8407 17.3531 29.8639 17.2382C29.8981 16.9901 29.8522 16.7376 29.7327 16.5175ZM30.4569 15.9477C30.3501 15.9372 30.2004 16.1403 30.1981 16.4571C30.1981 16.8053 30.3281 16.9863 30.4209 16.9759C30.6043 16.9538 30.6612 16.6684 30.6623 16.4467C30.6681 16.2784 30.5857 15.9639 30.4569 15.9511V15.9477Z" fill="#263238"/>
<path d="M28.5919 16.1489C28.9528 15.9946 29.9718 15.3807 30.1401 15.2809C30.2294 15.2286 30.5764 15.0023 30.6658 14.9513C30.6774 14.9443 30.6658 14.928 30.6542 14.9338C30.4836 15.0337 30.306 15.1149 30.1296 15.2124C29.9532 15.3099 28.8994 15.8971 28.5849 16.1408C28.5848 16.1418 28.5848 16.1429 28.5851 16.1438C28.5854 16.1448 28.5859 16.1457 28.5865 16.1465C28.5872 16.1473 28.588 16.1479 28.5889 16.1483C28.5899 16.1487 28.5909 16.149 28.5919 16.1489Z" fill="#263238"/>
<path opacity="0.1" d="M30.9002 17.4932C30.8957 17.8384 30.8627 18.1827 30.8015 18.5226C30.5497 19.6495 30.0286 19.2746 29.4321 18.3531C29.3497 18.2255 29.2684 18.0827 29.186 17.933L30.9002 17.4932Z" fill="black"/>
<path d="M34.8577 27.7187C34.8345 27.735 27.1261 26.8924 27.0728 26.7903C27.0449 26.7392 28.5664 19.1179 30.8515 17.2865C31.2774 16.9453 32.373 17.1496 32.7873 17.6579C34.0152 19.1678 34.9401 27.6584 34.8577 27.7187Z" fill="#EBEBEB"/>
<path d="M30.9234 17.2129C30.176 18.3885 28.9945 21.8319 28.8204 23.2292C28.7427 23.8489 28.7288 28.6931 28.7288 28.6931L26.7222 27.4907C26.7222 27.4907 27.6796 23.0806 28.2228 21.5835C28.7659 20.0864 30.1644 17.9324 30.4522 17.6086C30.762 17.2535 30.9234 17.2129 30.9234 17.2129Z" fill="#3527D6"/>
<path d="M32.3833 17.2725C32.3833 17.2725 32.7605 17.4477 33.0715 17.9862C33.3826 18.5247 34.4352 22.9325 34.8634 23.5568C35.2917 24.1812 36.8549 23.7124 36.8549 23.7124C36.8511 24.0257 36.8902 24.3381 36.971 24.6408C37.0952 25.0017 34.795 28.8188 34.6592 28.8188C34.5234 28.8188 32.2475 26.0451 32.0328 24.7011C31.8181 23.3572 32.1767 19.0284 32.2185 18.4899C32.2603 17.9514 32.3833 17.2725 32.3833 17.2725Z" fill="#3527D6"/>
<path d="M28.6476 24.5613C28.5339 24.7216 28.4574 24.9051 28.4236 25.0987C28.4074 25.2054 28.405 25.3691 28.5397 25.3842C28.5807 25.3832 28.621 25.373 28.6576 25.3544C28.6942 25.3357 28.7261 25.309 28.7509 25.2762C28.7509 24.9664 28.7602 24.6681 28.766 24.4C28.7179 24.4469 28.678 24.5014 28.6476 24.5613ZM27.9106 25.0836C27.8897 24.9443 27.8143 24.7865 27.6484 24.8515C27.4824 24.9164 27.4093 25.1741 27.3896 25.3459C27.3692 25.4859 27.3735 25.6285 27.4023 25.7671C27.4119 25.8429 27.4462 25.9135 27.4998 25.9679C27.6553 26.0967 27.7412 25.8658 27.7899 25.752C27.8918 25.5449 27.9336 25.3133 27.9106 25.0836ZM34.73 27.906C34.7386 27.6747 34.6823 27.4456 34.5676 27.2445C34.4898 27.1285 34.3575 27.0124 34.2333 27.1424C34.1091 27.2724 34.1463 27.5347 34.1985 27.7018C34.2375 27.8371 34.2995 27.9647 34.3819 28.079C34.4217 28.1445 34.4821 28.1951 34.5536 28.2229C34.7405 28.2762 34.73 28.0302 34.73 27.906ZM28.5791 23.6456C28.4735 23.5992 28.3853 23.6642 28.3203 23.7617C28.2391 23.8779 28.1823 24.0094 28.1532 24.1482C28.1381 24.2306 28.1114 24.3803 28.1915 24.4406C28.2716 24.501 28.3737 24.4313 28.4236 24.3687C28.5211 24.2561 28.8043 23.7524 28.5722 23.6456H28.5791ZM27.3965 26.5041C27.3315 26.3637 27.2259 26.0932 27.0309 26.1223C26.9706 26.3822 26.9149 26.6167 26.8743 26.8186C26.9204 26.968 26.9936 27.1076 27.0901 27.2306C27.1528 27.3083 27.2538 27.4105 27.3478 27.4058C27.4418 27.4012 27.5044 27.3443 27.5277 27.2294C27.5599 26.9791 27.5115 26.725 27.3896 26.5041H27.3965ZM28.1207 25.9343C28.0139 25.9238 27.8642 26.1281 27.8619 26.4449C27.8619 26.7931 27.9919 26.9741 28.0847 26.9637C28.2681 26.9404 28.325 26.6561 28.3261 26.4344C28.3215 26.2662 28.2426 25.9482 28.1149 25.9343H28.1207ZM28.2762 22.3574C28.1602 22.3899 28.1161 22.5106 28.1068 22.6383C28.0957 22.7335 28.0997 22.8298 28.1184 22.9238C28.1323 22.9853 28.1683 23.063 28.2449 23.0398C28.3215 23.0166 28.3679 22.8901 28.3853 22.8205C28.4004 22.7323 28.4932 22.2913 28.2692 22.3574H28.2762ZM35.0968 26.6225C34.9807 26.655 34.9378 26.7757 34.9285 26.9045C34.9175 26.9997 34.9214 27.096 34.9401 27.19C34.9529 27.2503 34.9888 27.3292 35.0654 27.306C35.142 27.2828 35.1896 27.1575 35.2059 27.0878C35.221 26.9973 35.3103 26.5563 35.0898 26.6225H35.0968ZM33.7703 20.1768C33.6726 20.3136 33.6126 20.4737 33.5962 20.641C33.5567 20.7837 33.559 20.9195 33.6913 20.9323C33.7819 20.9416 33.8736 20.8313 33.9351 20.7536C33.8724 20.5586 33.8178 20.3659 33.7633 20.1768H33.7703ZM34.4179 22.3818C34.335 22.4497 34.2609 22.5277 34.1973 22.6139C34.1324 22.6998 34.0569 22.846 34.1741 22.9215C34.2913 22.9969 34.4538 22.9133 34.5699 22.8507C34.5142 22.7091 34.4631 22.5524 34.4109 22.3853L34.4179 22.3818ZM33.6217 22.0336C33.4267 22.0174 33.2596 22.2112 33.1575 22.354C33.076 22.4692 33.0147 22.5976 32.9764 22.7335C32.9501 22.8051 32.9481 22.8834 32.9706 22.9563C33.0484 23.1408 33.2318 22.9772 33.3281 22.8982C33.5141 22.7605 33.658 22.5736 33.7436 22.3586C33.7865 22.2275 33.7935 22.0534 33.6148 22.0371L33.6217 22.0336ZM32.438 22.86C32.2557 22.8344 32.1513 23.0306 32.0898 23.1721C32.0012 23.3963 31.9779 23.6409 32.0225 23.8778C32.0422 23.9776 32.084 24.1099 32.1699 24.154C32.2557 24.1981 32.337 24.1702 32.4113 24.0785C32.5553 23.8752 32.6309 23.6313 32.6271 23.3822C32.6318 23.2162 32.6654 22.9006 32.431 22.8634L32.438 22.86ZM33.5358 23.2081C33.4465 23.1489 33.2202 23.2603 33.0716 23.5424C32.9115 23.8441 32.9428 24.0704 33.031 24.1029C33.2051 24.1691 33.3792 23.9416 33.4894 23.7466C33.5625 23.5969 33.638 23.2812 33.5289 23.2104L33.5358 23.2081ZM34.1973 24.5195C34.0546 24.5393 33.9768 24.6762 33.9432 24.8294C33.9126 24.9428 33.9005 25.0603 33.9072 25.1776C33.9072 25.253 33.9432 25.3528 34.0395 25.3401C34.1358 25.3273 34.2148 25.1811 34.2484 25.0998C34.2844 24.9965 34.4736 24.4801 34.1904 24.5253L34.1973 24.5195Z" fill="#263238"/>
<path d="M32.7721 17.2514C33.9419 15.4119 34.8912 14.0901 36.5555 11.9489C37.4224 10.8336 38.5098 9.50126 38.894 9.02659C39.4 8.3999 41.93 11.4638 41.5389 11.8572C41.2835 12.1113 40.4445 12.9318 38.9857 14.2317C37.3191 15.7114 35.9114 16.9416 33.9837 18.3539C32.5249 19.4182 31.9991 18.4677 32.7721 17.2514Z" fill="#FFC4C0"/>
<path d="M40.7231 12.4154C41.4937 12.2366 43.9332 10.996 44.3579 10.6444C44.7827 10.2927 45.9351 9.19252 45.6995 8.83855C45.4639 8.48458 45.1007 8.78052 45.1007 8.78052C45.1007 8.78052 45.5649 8.20025 45.2434 7.90547C44.9893 7.67336 44.4566 8.0633 44.4566 8.0633C44.4566 8.0633 44.9278 7.39366 44.5726 7.14763C44.2523 6.92248 43.7835 7.48651 43.7835 7.48651C43.7835 7.48651 44.12 6.8865 43.7707 6.72983C43.3517 6.53602 42.768 7.58051 42.2736 7.92868C42.1575 8.00876 39.1157 9.29813 39.1157 9.29813L40.7231 12.4154Z" fill="#FFC4C0"/>
<path d="M43.7753 7.45231C43.2588 8.18462 43.0244 8.4736 42.2665 8.88095C42.2515 8.88908 42.2607 8.91345 42.277 8.90649C43.0569 8.57457 43.3598 8.25193 43.8159 7.47088C43.8356 7.43375 43.7996 7.41866 43.7753 7.45231Z" fill="#263238"/>
<path d="M44.4484 8.0613C43.932 8.81449 43.5815 9.07678 42.8167 9.56189C42.8062 9.56885 42.8167 9.58858 42.8283 9.58162C43.6175 9.16846 44.0596 8.89225 44.4763 8.0729C44.496 8.03576 44.4786 8.02764 44.4484 8.0613Z" fill="#263238"/>
<path d="M45.0588 8.80485C44.5064 9.50118 44.1408 9.82498 43.3389 10.1975C43.3353 10.1993 43.3325 10.2024 43.331 10.2062C43.3296 10.2099 43.3296 10.2141 43.331 10.2178C43.3325 10.2216 43.3353 10.2247 43.3389 10.2265C43.3425 10.2283 43.3466 10.2287 43.3505 10.2277C44.2058 9.92362 44.6642 9.51859 45.0785 8.8211C45.1099 8.777 45.0971 8.76191 45.0588 8.80485Z" fill="#263238"/>
<path d="M46.8934 9.29372L42.6796 3.52148L41.8763 4.10792L46.0901 9.88015L46.8934 9.29372Z" fill="#3527D6"/>
<path d="M46.0895 9.88063L41.8757 4.1084L38.5181 6.5595L42.7319 12.3317L46.0895 9.88063Z" fill="#3527D6"/>
<path opacity="0.1" d="M46.0895 9.88063L41.8757 4.1084L38.5181 6.5595L42.7319 12.3317L46.0895 9.88063Z" fill="black"/>
<path d="M46.81 9.35524L42.5962 3.58301L41.9597 4.04764L46.1735 9.81987L46.81 9.35524Z" fill="white"/>
<path d="M42.3594 4.33105C43.6662 6.04635 45.0588 7.96126 46.2994 9.7253C44.9973 8.00652 43.6 6.09045 42.3594 4.33105Z" fill="#DBDBDB"/>
<path d="M42.4849 4.23633C43.7824 5.95626 45.1843 7.87117 46.4249 9.63521C45.1228 7.91644 43.7255 6.00037 42.4849 4.23633Z" fill="#DBDBDB"/>
<path d="M42.609 4.14453C43.9111 5.86447 45.3096 7.77938 46.5549 9.54342C45.2527 7.82464 43.8543 5.90857 42.609 4.14453Z" fill="#DBDBDB"/>
<path d="M42.7378 4.05371C44.0399 5.77249 45.4384 7.68856 46.6779 9.45259C45.3722 7.73266 43.9749 5.81775 42.7378 4.05371Z" fill="#DBDBDB"/>
<path d="M38.5343 9.50839C38.5343 9.50839 39.0066 8.36293 40.1962 8.08788C40.6778 7.97182 41.5076 6.71611 41.9231 6.80315C42.3873 6.9018 41.8767 8.07975 41.2105 8.65191C41.2105 8.65191 41.7989 9.97261 41.1862 10.5564C41.0527 10.6829 40.1695 11.0206 39.9722 10.9463L38.5343 9.50839Z" fill="#FFC4C0"/>
<path d="M41.1641 8.73431C41.4113 9.24031 41.5285 9.97377 41.2326 10.4508C41.2316 10.4521 41.2309 10.4537 41.2305 10.4553C41.2301 10.457 41.23 10.4587 41.2303 10.4604C41.2306 10.462 41.2312 10.4636 41.2321 10.4651C41.2329 10.4665 41.2341 10.4678 41.2355 10.4687C41.2368 10.4697 41.2384 10.4705 41.24 10.4708C41.2417 10.4712 41.2434 10.4713 41.2451 10.471C41.2467 10.4708 41.2483 10.4702 41.2498 10.4693C41.2512 10.4684 41.2525 10.4672 41.2535 10.4658C41.6411 10.0016 41.5123 9.14862 41.2639 8.70993C41.2163 8.62521 41.1003 8.60432 41.1641 8.73431Z" fill="#263238"/>
<path d="M35.9498 17.1243L34.4643 14.4551C34.4643 14.4551 32.6213 17.2648 32.3126 18.2443C31.9645 19.3468 32.6039 19.283 33.5834 18.7839C34.5629 18.2849 35.9498 17.1243 35.9498 17.1243Z" fill="#3527D6"/>
<path d="M34.3238 16.7762C34.2182 16.7286 34.13 16.7936 34.065 16.8922C33.985 17.0087 33.9282 17.1395 33.8979 17.2775C33.8828 17.3611 33.8561 17.5096 33.9373 17.5711C34.0186 17.6327 34.1184 17.5607 34.1694 17.4992C34.2727 17.3855 34.5559 16.8818 34.3238 16.7762ZM33.942 15.2744C33.7679 15.5483 33.5694 15.8709 33.371 16.2029C33.3783 16.2414 33.3932 16.2781 33.4149 16.3108C33.4367 16.3435 33.4647 16.3715 33.4975 16.3932C33.5741 16.4454 33.6646 16.4106 33.7389 16.3189C33.9227 16.0037 33.9943 15.6355 33.942 15.2744ZM34.86 15.4473C34.7694 15.3893 34.5443 15.5007 34.3957 15.7804C34.2356 16.0833 34.2669 16.3096 34.3551 16.3421C34.528 16.4071 34.7091 16.1808 34.8135 15.9858C34.8936 15.8326 34.969 15.5193 34.86 15.4473Z" fill="#263238"/>
<path d="M35.4147 17.2992C35.1826 16.9846 34.6023 15.9425 34.5107 15.7707C34.4596 15.6802 34.2727 15.3065 34.2217 15.2218C34.2147 15.2102 34.2345 15.202 34.2403 15.2136C34.3389 15.3842 34.455 15.5456 34.5548 15.7173C34.6546 15.8891 35.2743 16.9266 35.4275 17.291C35.4263 17.2992 35.4194 17.3061 35.4147 17.2992Z" fill="#263238"/>
<path d="M33.248 19.0984C33.2863 19.0601 33.3258 19.0229 33.3641 18.9823C33.1413 19.1169 32.9138 19.2411 32.6805 19.3572C32.6805 19.3572 32.6712 19.3514 32.6805 19.3479C32.9231 19.1796 33.1668 19.0171 33.4175 18.8628C33.5335 18.7897 33.7111 18.6852 33.8422 18.5993C33.8573 18.5889 33.8747 18.6121 33.8596 18.6214C33.7331 18.7026 33.6148 18.8326 33.5045 18.9011C33.4789 18.9317 33.4513 18.9608 33.4221 18.9881C33.3757 19.0334 33.3269 19.0775 33.277 19.1181C33.1761 19.2005 33.0716 19.2794 32.9695 19.3595C33.0623 19.2771 33.1563 19.1866 33.248 19.0984Z" fill="#263238"/>
<path d="M31.022 17.0712C30.1156 16.9725 28.2913 19.5083 27.8294 20.6317C27.5972 21.2016 27.7261 23.0248 27.7586 23.0457C27.7911 23.0666 27.8874 22.643 27.9338 22.484C27.9802 22.325 28.3365 21.1366 28.5675 20.5795C28.9713 19.6046 31.0708 17.2499 31.1044 17.2139C31.1381 17.1779 31.1056 17.0804 31.022 17.0712Z" fill="#455A64"/>
<path d="M30.9222 18.6411C31.2495 18.7374 32.0909 18.2929 32.4878 17.8287C32.5145 17.7973 32.5423 17.412 32.6038 16.9455C32.6387 16.6612 32.6851 16.3467 32.7478 16.0635L30.87 16.1029C30.8934 16.4803 30.8705 16.8592 30.8015 17.231C30.7929 17.2709 30.78 17.3098 30.7632 17.347C30.7627 17.3532 30.7627 17.3594 30.7632 17.3656C30.668 17.5838 30.4104 18.4902 30.9222 18.6411Z" fill="#FFC4C0"/>
<path d="M30.7597 17.3514C30.7564 17.3573 30.7536 17.3635 30.7516 17.3699C30.8109 17.3914 30.8718 17.4081 30.9338 17.4198C31.9516 17.6206 32.4715 16.4403 32.6073 16.0713L30.8665 16.1073C30.89 16.4854 30.8674 16.865 30.7992 17.2376C30.7883 17.2763 30.7751 17.3143 30.7597 17.3514Z" fill="#263238"/>
<path d="M33.6854 13.9639C33.6785 14.6393 32.7895 16.3186 32.2255 16.5774C31.4073 16.9523 30.3477 16.6784 30.1005 15.765C29.8603 14.8737 31.058 12.7058 31.6626 12.4992C32.5469 12.1859 33.6854 12.96 33.6854 13.9639Z" fill="#FFC4C0"/>
<path d="M32.1535 14.2516C32.1083 14.2133 32.0746 14.1715 32.0375 14.1355C31.9897 14.0985 31.9554 14.0467 31.94 13.9882C31.9388 13.969 31.9439 13.9499 31.9546 13.934C31.9653 13.918 31.981 13.9061 31.9992 13.9C32.037 13.8931 32.0761 13.8965 32.1122 13.9097C32.1483 13.923 32.1802 13.9457 32.2046 13.9754C32.2635 14.0282 32.3007 14.101 32.3091 14.1797C32.3098 14.198 32.305 14.2161 32.2954 14.2317C32.2859 14.2473 32.2719 14.2597 32.2553 14.2674C32.2386 14.2751 32.2201 14.2777 32.202 14.2749C32.1839 14.2721 32.167 14.264 32.1535 14.2516Z" fill="#263238"/>
<path d="M31.0221 13.6943C31.0767 13.709 31.1321 13.7202 31.1881 13.728C31.2452 13.7477 31.3073 13.7477 31.3645 13.728C31.3812 13.7186 31.3944 13.7039 31.4019 13.6863C31.4095 13.6687 31.411 13.6491 31.4063 13.6305C31.3915 13.5949 31.3674 13.564 31.3366 13.5409C31.3058 13.5178 31.2693 13.5035 31.231 13.4993C31.1535 13.4774 31.0705 13.4857 30.9989 13.5225C30.9824 13.5316 30.9691 13.5454 30.9606 13.5621C30.9522 13.5789 30.949 13.5978 30.9515 13.6164C30.954 13.635 30.9621 13.6524 30.9747 13.6663C30.9873 13.6802 31.0039 13.69 31.0221 13.6943Z" fill="#263238"/>
<path d="M31.4166 15.547C31.3774 15.5686 31.3319 15.576 31.2878 15.5679C31.2454 15.5458 31.2079 15.5154 31.1776 15.4785H31.1694C31.1753 15.509 31.1891 15.5374 31.2095 15.5608C31.2299 15.5843 31.2561 15.6019 31.2855 15.612C31.3119 15.6172 31.3392 15.6146 31.3642 15.6045C31.3891 15.5944 31.4106 15.5772 31.4259 15.5551C31.4306 15.5528 31.4224 15.5458 31.4166 15.547Z" fill="#263238"/>
<path d="M31.4654 15.1438C31.4137 15.1751 31.3561 15.1955 31.2962 15.2035C31.2363 15.2114 31.1754 15.2069 31.1173 15.1902C31.0668 15.1756 31.0184 15.1545 30.9734 15.1275C30.9644 15.1228 30.9559 15.1174 30.9478 15.1113L30.9246 15.095C30.9191 15.0908 30.9152 15.0849 30.9133 15.0782C30.9114 15.0715 30.9117 15.0644 30.9142 15.0579L30.9211 15.0463V15.0358C30.9617 14.9465 31.0372 14.8165 31.0372 14.8165C30.9966 14.8165 30.7958 14.8095 30.8202 14.7643C31.0263 14.3707 31.2716 13.999 31.5525 13.6548C31.5533 13.6535 31.5544 13.6524 31.5557 13.6515C31.5569 13.6506 31.5584 13.65 31.5599 13.6497C31.5614 13.6494 31.5629 13.6493 31.5645 13.6496C31.566 13.6499 31.5674 13.6505 31.5687 13.6513C31.57 13.6521 31.5711 13.6532 31.572 13.6545C31.5729 13.6558 31.5735 13.6572 31.5738 13.6587C31.5741 13.6602 31.5742 13.6618 31.5739 13.6633C31.5736 13.6648 31.573 13.6663 31.5722 13.6675C31.3842 14.0331 31.1335 14.3639 30.9385 14.726C31.0106 14.7277 31.0821 14.7394 31.1509 14.7608C31.1614 14.7701 31.0024 15.0103 30.9873 15.0521C31.0558 15.0947 31.1323 15.1231 31.212 15.1355C31.2918 15.1478 31.3733 15.144 31.4515 15.124C31.4712 15.124 31.4805 15.138 31.4654 15.1438Z" fill="#263238"/>
<path d="M31.0487 15.1084C31.0673 15.1943 31.1072 15.2741 31.1648 15.3405C31.1975 15.3759 31.2405 15.4003 31.2878 15.4101C31.3911 15.431 31.4352 15.3475 31.4537 15.2674C31.463 15.2247 31.4673 15.1811 31.4665 15.1374C31.3277 15.1724 31.1813 15.1623 31.0487 15.1084Z" fill="#263238"/>
<path d="M31.1636 15.3441C31.1963 15.3796 31.2393 15.4039 31.2866 15.4138C31.3899 15.4347 31.434 15.3511 31.4526 15.271C31.4032 15.2489 31.3478 15.2441 31.2954 15.2573C31.2429 15.2706 31.1965 15.3012 31.1636 15.3441Z" fill="#FF9BBC"/>
<path d="M31.9981 14.5297C32.0073 14.4963 32.0073 14.461 31.9981 14.4276C31.9917 14.4098 31.9817 14.3935 31.9687 14.3797C31.9557 14.3659 31.94 14.3549 31.9227 14.3475C31.9039 14.3397 31.8836 14.3366 31.8633 14.3384C31.8431 14.3402 31.8237 14.3469 31.8066 14.3579C31.7781 14.3761 31.7542 14.4008 31.737 14.4299C31.7265 14.4472 31.7175 14.4655 31.7103 14.4844C31.6932 14.5231 31.6857 14.5653 31.6882 14.6074C31.6981 14.5785 31.7113 14.5508 31.7277 14.525C31.7415 14.5012 31.7574 14.4787 31.7753 14.4577C31.8112 14.4148 31.8565 14.3858 31.8913 14.4043C31.9261 14.4229 31.9505 14.467 31.9459 14.5204C31.9405 14.5783 31.9292 14.6354 31.9122 14.691C31.9531 14.6447 31.9826 14.5895 31.9981 14.5297Z" fill="#263238"/>
<path d="M30.8886 13.9506C30.9105 13.924 30.9389 13.9036 30.971 13.8914C30.989 13.8851 31.0081 13.8827 31.0271 13.8843C31.0461 13.8859 31.0646 13.8915 31.0813 13.9007C31.098 13.9106 31.1123 13.9242 31.1229 13.9405C31.1336 13.9568 31.1404 13.9753 31.1428 13.9947C31.146 14.0286 31.1412 14.0627 31.1288 14.0945C31.1216 14.1134 31.1127 14.1317 31.1022 14.149C31.082 14.1861 31.0534 14.2179 31.0186 14.2419C31.0492 14.1927 31.0708 14.1384 31.0824 14.0817C31.094 14.0271 31.0894 13.9726 31.0511 13.954C31.0295 13.9441 31.0052 13.9417 30.9821 13.9472C30.959 13.9527 30.9383 13.9657 30.9234 13.9842C30.8803 14.0242 30.8414 14.0685 30.8074 14.1165C30.8208 14.0555 30.8487 13.9986 30.8886 13.9506Z" fill="#263238"/>
<path d="M32.9996 15.4122C32.9241 15.2962 32.9648 14.666 32.9648 14.666C32.9648 14.666 31.9644 13.9116 32.1129 12.859C32.1129 12.859 31.4085 13.3093 30.9001 13.3105C30.9001 13.3105 31.2065 12.266 32.2104 12.389C32.2104 12.389 33.2549 12.2857 33.8131 13.4068C34.3714 14.5279 33.2828 15.5143 33.2828 15.5143L32.9996 15.4122Z" fill="#263238"/>
<path d="M32.1953 12.6747C32.113 12.8346 32.0753 13.0139 32.0862 13.1934C32.0894 13.3711 32.1179 13.5473 32.1709 13.7169C32.2204 13.892 32.2988 14.0575 32.4031 14.2066C32.5317 14.3684 32.6839 14.51 32.8545 14.6267C32.8545 14.6267 32.8545 14.6395 32.8475 14.636C32.667 14.5198 32.5027 14.38 32.359 14.2205C32.2435 14.0712 32.1537 13.9038 32.0932 13.725C32.0242 13.5477 31.9929 13.358 32.0015 13.1679C32.0192 12.9885 32.0793 12.8159 32.1768 12.6642C32.1826 12.6526 32.2023 12.6631 32.1953 12.6747Z" fill="#263238"/>
<path d="M32.0061 12.1755C32.2266 12.0862 32.7407 11.9272 33.155 11.9898C33.5694 12.0525 34.0835 12.3566 34.2622 12.4541C34.4084 12.5353 34.9226 12.6862 35.2823 12.9821C35.3847 13.0819 35.4584 13.2074 35.4956 13.3454C35.5327 13.4835 35.532 13.629 35.4936 13.7666C35.3856 14.0429 34.8286 13.7666 34.781 13.8711C34.7496 13.9419 34.781 14.326 34.5709 14.4641C34.3609 14.6022 34.3725 14.5802 34.2529 14.651C33.9616 14.8332 33.9048 13.4254 33.4649 12.967C33.0251 12.5086 32.0061 12.1755 32.0061 12.1755Z" fill="#3527D6"/>
<path opacity="0.1" d="M32.0444 12.2035C32.0444 12.2035 33.0274 12.5099 33.465 12.9683C33.9025 13.4267 33.892 14.7672 34.1845 14.5849C34.3122 14.5049 34.3771 14.3818 34.4352 14.1741C34.3864 13.7807 34.246 13.1679 33.9315 12.7373C33.6367 12.3335 33.1191 12.1188 32.5539 12.041C32.3799 12.0811 32.2095 12.1354 32.0444 12.2035Z" fill="black"/>
<path d="M34.0917 15.2332C33.8852 14.769 33.732 14.0529 33.3664 13.4923C33.0008 12.9318 31.8902 12.5802 31.7335 12.5848C31.3517 12.5964 31.2635 12.7751 31.2043 12.7392C31.1451 12.7032 31.5374 12.2831 31.6465 12.2215C31.8125 12.1441 31.9936 12.1044 32.1768 12.1055C32.3416 12.1136 33.3583 12.2448 33.7157 12.6858C34.0732 13.1268 34.5629 14.3651 34.4585 14.6738C34.4329 14.7481 34.332 14.7898 34.2972 14.8989C34.2519 15.037 34.2171 15.1972 34.173 15.2935C34.1358 15.3771 34.1045 15.261 34.0917 15.2332Z" fill="#3527D6"/>
<path d="M33.2862 13.246C33.3749 13.1952 33.4592 13.137 33.538 13.0719C33.619 13.0074 33.6922 12.9338 33.7562 12.8525C33.7562 12.8525 33.7702 12.8525 33.7667 12.8525C33.7149 12.9469 33.6483 13.0323 33.5694 13.1055C33.4886 13.1749 33.3958 13.2289 33.2955 13.2645C33.2827 13.268 33.2758 13.2518 33.2862 13.246Z" fill="#263238"/>
<path d="M34.0963 15.0222C34.1087 14.9969 34.1226 14.9725 34.1381 14.9491C34.1525 14.9211 34.1645 14.892 34.1741 14.862C34.1826 14.8032 34.1978 14.7456 34.2194 14.6903C34.2437 14.6483 34.2729 14.6093 34.3064 14.5742C34.3479 14.5358 34.3746 14.484 34.3818 14.428C34.3818 14.4198 34.3946 14.4198 34.3934 14.428C34.3747 14.5282 34.3307 14.6221 34.2658 14.7007C34.2426 14.7605 34.2247 14.8223 34.2124 14.8852C34.1958 14.9432 34.1613 14.9944 34.1137 15.0315C34.1045 15.0384 34.0929 15.0303 34.0963 15.0222Z" fill="#263238"/>
<path d="M33.9838 14.632C34.0197 14.5913 34.0569 14.5565 34.0882 14.5159C34.1182 14.4739 34.145 14.4296 34.1683 14.3836C34.1927 14.3395 34.2124 14.2931 34.2356 14.2478C34.2588 14.2026 34.2971 14.1434 34.3215 14.0888C34.3215 14.0819 34.3343 14.0888 34.3308 14.0958C34.3064 14.1515 34.2902 14.2118 34.2669 14.271C34.2437 14.3302 34.2205 14.3685 34.195 14.4149C34.1693 14.4592 34.1398 14.5012 34.1068 14.5403C34.075 14.5805 34.0356 14.614 33.9907 14.6389C33.9907 14.6389 33.9814 14.6343 33.9838 14.632Z" fill="#263238"/>
<path d="M33.733 13.9406C33.7707 13.9155 33.8037 13.8841 33.8305 13.8477C33.8619 13.8083 33.8932 13.7688 33.9234 13.7317L34.0104 13.6156C34.0422 13.5778 34.0652 13.5334 34.0777 13.4856C34.0783 13.4844 34.0792 13.4833 34.0803 13.4826C34.0814 13.4818 34.0828 13.4814 34.0841 13.4814C34.0855 13.4814 34.0868 13.4818 34.0879 13.4826C34.0891 13.4833 34.09 13.4844 34.0905 13.4856C34.0841 13.5341 34.0687 13.5809 34.0452 13.6237C34.0206 13.6718 33.9919 13.7176 33.9594 13.7607C33.9278 13.8036 33.8933 13.8444 33.8561 13.8825C33.826 13.9189 33.7855 13.9452 33.74 13.958C33.7296 13.9568 33.7238 13.9452 33.733 13.9406Z" fill="#263238"/>
<path d="M33.6426 13.514C33.6774 13.4827 33.711 13.4502 33.7424 13.4165C33.7737 13.3829 33.8039 13.3469 33.8329 13.3109C33.8619 13.2749 33.8944 13.2355 33.9223 13.1949C33.9218 13.194 33.9216 13.193 33.9217 13.192C33.9217 13.191 33.922 13.1901 33.9226 13.1892C33.9231 13.1884 33.9238 13.1877 33.9247 13.1872C33.9255 13.1868 33.9265 13.1865 33.9275 13.1865C33.9285 13.1865 33.9294 13.1868 33.9303 13.1872C33.9312 13.1877 33.9319 13.1884 33.9324 13.1892C33.9329 13.1901 33.9332 13.191 33.9333 13.192C33.9333 13.193 33.9331 13.194 33.9327 13.1949C33.9129 13.2392 33.8897 13.2819 33.8631 13.3225C33.8084 13.4007 33.7445 13.472 33.6727 13.5349C33.6397 13.5684 33.6002 13.5948 33.5567 13.6127C33.5497 13.6127 33.5428 13.6127 33.5474 13.601C33.5761 13.5689 33.608 13.5397 33.6426 13.514Z" fill="#263238"/>
<path d="M33.0182 13.0352C33.0547 12.9918 33.0934 12.9503 33.1342 12.911C33.1753 12.8698 33.2187 12.8311 33.2642 12.7949C33.3511 12.7248 33.4457 12.6648 33.5462 12.6162C33.552 12.6162 33.559 12.6162 33.5544 12.6255C33.3803 12.7648 33.2062 12.8971 33.0298 13.0387L33.0182 13.0352Z" fill="#263238"/>
<path d="M32.8104 12.7217C32.8473 12.6785 32.889 12.6395 32.9346 12.6057C33.0323 12.541 33.1365 12.4869 33.2456 12.4443C33.2526 12.4443 33.2584 12.4443 33.2526 12.4548C33.1574 12.514 33.0623 12.5708 32.9718 12.6347C32.9264 12.6661 32.8826 12.6998 32.8406 12.7356C32.7988 12.7728 32.7675 12.8169 32.7246 12.8517H32.7164C32.7394 12.8029 32.7713 12.7588 32.8104 12.7217Z" fill="#263238"/>
<path d="M32.5169 12.5709C32.5512 12.5281 32.5901 12.4892 32.6329 12.4548C32.7123 12.3916 32.8018 12.3422 32.8975 12.3086C32.9045 12.3086 32.908 12.3167 32.8975 12.3202C32.8092 12.3698 32.7254 12.4268 32.6469 12.4908C32.6074 12.5233 32.5691 12.5581 32.5308 12.5918C32.4925 12.6254 32.46 12.6684 32.4147 12.6974C32.4147 12.6974 32.4078 12.6974 32.4089 12.6916C32.4414 12.6483 32.4775 12.6079 32.5169 12.5709Z" fill="#263238"/>
<path d="M32.3068 12.389C32.3463 12.3603 32.385 12.3325 32.4229 12.3054C32.4613 12.2768 32.504 12.2545 32.5494 12.2393C32.5563 12.2393 32.5587 12.2462 32.5494 12.2497C32.4739 12.3066 32.4008 12.3658 32.3266 12.4215C32.2627 12.4798 32.2047 12.5443 32.1536 12.6141C32.1536 12.6141 32.1467 12.6141 32.1478 12.6141C32.1768 12.5247 32.2323 12.4462 32.3068 12.389Z" fill="#263238"/>
<path d="M32.041 12.3242C32.1119 12.2617 32.1943 12.2136 32.2835 12.1826C32.2893 12.1826 32.294 12.1907 32.2835 12.1931C32.2024 12.2341 32.1277 12.2869 32.0619 12.3497C31.9953 12.4124 31.9358 12.482 31.8843 12.5575C31.8843 12.5575 31.875 12.5575 31.8773 12.5575C31.9126 12.4678 31.9687 12.3879 32.041 12.3242Z" fill="#263238"/>
<path d="M31.6846 12.474C31.6944 12.4556 31.7052 12.4378 31.7171 12.4207C31.7411 12.386 31.7687 12.3541 31.7995 12.3255C31.8631 12.2687 31.9323 12.2185 32.0061 12.1758C32.0131 12.1758 32.0189 12.1758 32.0131 12.1862C31.9422 12.2297 31.8767 12.2815 31.8181 12.3406C31.7896 12.3696 31.7633 12.4006 31.7392 12.4334C31.7269 12.4493 31.7157 12.466 31.7055 12.4833C31.6969 12.501 31.6864 12.5178 31.6742 12.5332H31.6649C31.6674 12.5124 31.6741 12.4922 31.6846 12.474Z" fill="#263238"/>
<path d="M31.4688 12.4862C31.4908 12.4595 31.5129 12.4328 31.5373 12.4084C31.5611 12.3834 31.5867 12.3602 31.6139 12.3388C31.6406 12.3167 31.6696 12.2959 31.6963 12.2726C31.6975 12.2717 31.699 12.2713 31.7006 12.2715C31.7021 12.2718 31.7035 12.2726 31.7044 12.2738C31.7053 12.275 31.7057 12.2766 31.7055 12.2781C31.7053 12.2796 31.7045 12.281 31.7032 12.2819C31.6757 12.3045 31.6497 12.3289 31.6255 12.355L31.557 12.4282L31.4874 12.5013C31.4642 12.5256 31.4444 12.5547 31.4189 12.5767H31.4108C31.4269 12.5446 31.4464 12.5143 31.4688 12.4862Z" fill="#263238"/>
<path d="M32.8394 15.29C32.8394 15.29 33.4336 14.8537 33.6449 15.0834C33.8561 15.3132 33.2746 16.0432 32.9311 16.0525C32.8873 16.057 32.8429 16.0525 32.8009 16.0393C32.7588 16.0262 32.7198 16.0047 32.6863 15.976C32.6528 15.9474 32.6254 15.9122 32.6058 15.8727C32.5863 15.8332 32.575 15.7901 32.5725 15.7461L32.8394 15.29Z" fill="#FFC4C0"/>
<path d="M33.4731 15.2889C33.4789 15.2889 33.4731 15.297 33.4731 15.297C33.2305 15.3109 33.0506 15.4722 32.9021 15.6452C32.9216 15.6279 32.9448 15.6151 32.9698 15.6076C32.9948 15.6001 33.0212 15.5982 33.047 15.602C33.0728 15.6057 33.0976 15.6151 33.1194 15.6293C33.1413 15.6436 33.1598 15.6625 33.1736 15.6846C33.1736 15.6904 33.1736 15.6974 33.1644 15.6939C33.1303 15.6702 33.0898 15.6575 33.0483 15.6575C33.0068 15.6575 32.9663 15.6702 32.9322 15.6939C32.8748 15.7337 32.8216 15.7792 32.7733 15.8297C32.757 15.8459 32.7268 15.8239 32.7408 15.8042C32.8301 15.5268 33.1713 15.2169 33.4731 15.2889Z" fill="#263238"/>
<path d="M32.6074 17.3803C31.9644 18.029 32.7942 21.188 33.3826 22.2476C33.6821 22.7873 34.8264 23.5637 34.8635 23.5521C34.9006 23.5405 34.9587 22.9335 34.8635 22.7977C34.7683 22.6619 34.26 22.1652 33.9687 21.6372C33.4581 20.7087 32.7768 17.4592 32.7733 17.4081C32.7699 17.3571 32.6654 17.3211 32.6074 17.3803Z" fill="#455A64"/>
</svg>
