<svg width="53" height="54" viewBox="0 0 53 54" fill="none" xmlns="http://www.w3.org/2000/svg">
<path d="M42.0937 43.3766C43.6324 45.0442 43.5421 47.6744 41.6586 48.9396C37.9361 51.4402 33.6241 52.9765 29.1133 53.3755C23.231 53.8959 17.3419 52.453 12.3664 49.2723C7.3908 46.0916 3.60906 41.3523 1.61203 35.7949C-0.384995 30.2374 -0.484789 24.175 1.32824 18.5549C3.14127 12.9347 6.76498 8.0735 11.6332 4.73076C16.5013 1.38802 22.3397 -0.24791 28.236 0.0785954C34.1323 0.405102 39.7544 2.67565 44.2237 6.53545C47.6509 9.49526 50.2522 13.2617 51.8117 17.4662C52.6008 19.5936 51.1371 21.7808 48.9139 22.2348C46.6908 22.6887 44.5607 21.2237 43.6283 19.1551C42.5281 16.7141 40.9042 14.5255 38.8531 12.7542C35.7581 10.0813 31.8649 8.50895 27.7817 8.28285C23.6985 8.05674 19.6555 9.18961 16.2843 11.5044C12.9131 13.8193 10.4037 17.1857 9.14822 21.0776C7.89271 24.9695 7.96182 29.1677 9.34475 33.0162C10.7277 36.8646 13.3465 40.1466 16.7921 42.3492C20.2376 44.5518 24.3157 45.551 28.3893 45.1907C31.0888 44.9518 33.6855 44.1248 36.0048 42.7869C37.9703 41.6532 40.5549 41.7091 42.0937 43.3766Z" fill="#3527D6"/>
</svg>
