<svg width="10" height="10" viewBox="0 0 10 10" fill="none" xmlns="http://www.w3.org/2000/svg">
<path d="M3.13814 0.623161C3.13814 0.527819 3.10027 0.436381 3.03285 0.368964C2.96543 0.301547 2.87399 0.263672 2.77865 0.263672C2.68331 0.263672 2.59187 0.301547 2.52445 0.368964C2.45704 0.436381 2.41916 0.527819 2.41916 0.623161V1.38049C1.72894 1.43561 1.27646 1.57077 0.943818 1.9039C0.610691 2.23655 0.475523 2.68951 0.419922 3.37925H9.93057C9.87497 2.68903 9.7398 2.23655 9.40667 1.9039C9.07403 1.57077 8.62107 1.43561 7.93133 1.38001V0.623161C7.93133 0.527819 7.89346 0.436381 7.82604 0.368964C7.75862 0.301547 7.66718 0.263672 7.57184 0.263672C7.4765 0.263672 7.38506 0.301547 7.31764 0.368964C7.25023 0.436381 7.21235 0.527819 7.21235 0.623161V1.34837C6.8936 1.34214 6.53603 1.34214 6.13388 1.34214H4.21661C3.81446 1.34214 3.45689 1.34214 3.13814 1.34837V0.623161Z" fill="#343434"/>
<path fill-rule="evenodd" clip-rule="evenodd" d="M0.381836 5.1771C0.381836 4.77495 0.381836 4.41738 0.388067 4.09863H9.96199C9.96822 4.41738 9.96822 4.77495 9.96822 5.1771V6.13574C9.96822 7.94325 9.96822 8.84725 9.40645 9.40853C8.84517 9.97029 7.94118 9.97029 6.13366 9.97029H4.21639C2.40888 9.97029 1.50488 9.97029 0.943598 9.40853C0.381836 8.84725 0.381836 7.94325 0.381836 6.13574V5.1771ZM7.57162 6.13574C7.69874 6.13574 7.82066 6.08524 7.91055 5.99535C8.00044 5.90546 8.05094 5.78354 8.05094 5.65642C8.05094 5.5293 8.00044 5.40738 7.91055 5.31749C7.82066 5.2276 7.69874 5.1771 7.57162 5.1771C7.4445 5.1771 7.32258 5.2276 7.23269 5.31749C7.1428 5.40738 7.0923 5.5293 7.0923 5.65642C7.0923 5.78354 7.1428 5.90546 7.23269 5.99535C7.32258 6.08524 7.4445 6.13574 7.57162 6.13574ZM7.57162 8.05301C7.69874 8.05301 7.82066 8.00252 7.91055 7.91263C8.00044 7.82274 8.05094 7.70082 8.05094 7.5737C8.05094 7.44657 8.00044 7.32466 7.91055 7.23477C7.82066 7.14488 7.69874 7.09438 7.57162 7.09438C7.4445 7.09438 7.32258 7.14488 7.23269 7.23477C7.1428 7.32466 7.0923 7.44657 7.0923 7.5737C7.0923 7.70082 7.1428 7.82274 7.23269 7.91263C7.32258 8.00252 7.4445 8.05301 7.57162 8.05301ZM5.65435 5.65642C5.65435 5.78354 5.60385 5.90546 5.51396 5.99535C5.42407 6.08524 5.30215 6.13574 5.17503 6.13574C5.0479 6.13574 4.92599 6.08524 4.8361 5.99535C4.74621 5.90546 4.69571 5.78354 4.69571 5.65642C4.69571 5.5293 4.74621 5.40738 4.8361 5.31749C4.92599 5.2276 5.0479 5.1771 5.17503 5.1771C5.30215 5.1771 5.42407 5.2276 5.51396 5.31749C5.60385 5.40738 5.65435 5.5293 5.65435 5.65642ZM5.65435 7.5737C5.65435 7.70082 5.60385 7.82274 5.51396 7.91263C5.42407 8.00252 5.30215 8.05301 5.17503 8.05301C5.0479 8.05301 4.92599 8.00252 4.8361 7.91263C4.74621 7.82274 4.69571 7.70082 4.69571 7.5737C4.69571 7.44657 4.74621 7.32466 4.8361 7.23477C4.92599 7.14488 5.0479 7.09438 5.17503 7.09438C5.30215 7.09438 5.42407 7.14488 5.51396 7.23477C5.60385 7.32466 5.65435 7.44657 5.65435 7.5737ZM2.77843 6.13574C2.90555 6.13574 3.02747 6.08524 3.11736 5.99535C3.20725 5.90546 3.25775 5.78354 3.25775 5.65642C3.25775 5.5293 3.20725 5.40738 3.11736 5.31749C3.02747 5.2276 2.90555 5.1771 2.77843 5.1771C2.65131 5.1771 2.52939 5.2276 2.4395 5.31749C2.34961 5.40738 2.29911 5.5293 2.29911 5.65642C2.29911 5.78354 2.34961 5.90546 2.4395 5.99535C2.52939 6.08524 2.65131 6.13574 2.77843 6.13574ZM2.77843 8.05301C2.90555 8.05301 3.02747 8.00252 3.11736 7.91263C3.20725 7.82274 3.25775 7.70082 3.25775 7.5737C3.25775 7.44657 3.20725 7.32466 3.11736 7.23477C3.02747 7.14488 2.90555 7.09438 2.77843 7.09438C2.65131 7.09438 2.52939 7.14488 2.4395 7.23477C2.34961 7.32466 2.29911 7.44657 2.29911 7.5737C2.29911 7.70082 2.34961 7.82274 2.4395 7.91263C2.52939 8.00252 2.65131 8.05301 2.77843 8.05301Z" fill="#3527D6"/>
</svg>
