<svg width="32" height="31" viewBox="0 0 32 31" fill="none" xmlns="http://www.w3.org/2000/svg">
<g clip-path="url(#clip0_590_5124)">
<path d="M9.01064 14.112L8.13561 16.7823C7.90829 17.476 8.07665 18.2467 8.57583 18.7786L12.4771 22.9299C12.9445 23.4303 13.6287 23.6545 14.3016 23.5278L19.9032 22.4905C20.6203 22.3572 21.2122 21.8356 21.4395 21.1419L22.3145 18.4716L15.5472 19.7266C14.8743 19.8534 14.1901 19.6292 13.7227 19.1288L9.01064 14.112ZM17.7585 6.81315L8.31516 8.55933C7.54114 8.70557 7.22974 9.65585 7.7671 10.2318L14.3455 17.2282C14.8129 17.7286 15.4971 17.9528 16.17 17.8261L25.1773 16.158L23.337 21.7742C23.1657 22.2968 23.4532 22.8646 23.9758 23.0359C24.4985 23.2071 25.0662 22.9196 25.2375 22.397L27.2336 16.3057C27.3488 15.9541 27.2615 15.5782 27.0135 15.3075L19.583 7.41103C19.3513 7.16929 19.0637 6.9883 18.7455 6.88402C18.4273 6.77975 18.0883 6.75541 17.7585 6.81315Z" fill="#3527D6"/>
</g>
<defs>
<clipPath id="clip0_590_5124">
<rect width="24" height="24" fill="white" transform="translate(8.36353 0.0302734) rotate(18.1436)"/>
</clipPath>
</defs>
</svg>
