<svg width="24" height="24" viewBox="0 0 24 24" fill="none" xmlns="http://www.w3.org/2000/svg">
<g clip-path="url(#clip0_590_15034)">
<path fill-rule="evenodd" clip-rule="evenodd" d="M5.29 17.5653C4.49309 16.7683 4.0454 15.6874 4.0454 14.5603C4.0454 13.4332 4.49309 12.3523 5.29 11.5553L11.83 5.01532C12.0176 4.82781 12.1231 4.57344 12.1232 4.30817C12.1233 4.0429 12.018 3.78846 11.8305 3.60082C11.643 3.41318 11.3886 3.30771 11.1233 3.30762C10.8581 3.30752 10.6036 3.41281 10.416 3.60032L3.876 10.1403C2.70374 11.3123 2.04507 12.902 2.04488 14.5596C2.04469 16.2172 2.703 17.8071 3.875 18.9793C5.04699 20.1516 6.63665 20.8103 8.29429 20.8104C9.95192 20.8106 11.5417 20.1523 12.714 18.9803L20.668 11.0253C21.512 10.1811 21.9862 9.03623 21.9861 7.84247C21.986 6.6487 21.5117 5.50387 20.6675 4.65982C19.8233 3.81577 18.6784 3.34164 17.4846 3.34173C16.2909 3.34183 15.146 3.81614 14.302 4.66032L6.349 12.6133C5.84542 13.132 5.56613 13.828 5.57151 14.5508C5.57688 15.2737 5.86649 15.9655 6.37772 16.4766C6.88896 16.9877 7.58078 17.2771 8.30367 17.2823C9.02657 17.2875 9.72247 17.008 10.241 16.5043L17.487 9.25732C17.6746 9.06981 17.7801 8.81544 17.7802 8.55017C17.7803 8.2849 17.675 8.03046 17.4875 7.84282C17.3 7.65518 17.0456 7.54971 16.7803 7.54962C16.5151 7.54952 16.2606 7.65481 16.073 7.84232L8.826 15.0893C8.68517 15.2303 8.49411 15.3095 8.29485 15.3096C8.09559 15.3097 7.90446 15.2306 7.7635 15.0898C7.62253 14.949 7.54329 14.7579 7.54319 14.5587C7.5431 14.3594 7.62217 14.1683 7.763 14.0273L15.716 6.07432C15.9482 5.84201 16.2238 5.65771 16.5272 5.53193C16.8306 5.40616 17.1558 5.34138 17.4843 5.34128C17.8127 5.34119 18.138 5.40579 18.4414 5.53139C18.7449 5.657 19.0207 5.84114 19.253 6.07332C19.7222 6.54222 19.9858 7.1783 19.986 7.84161C19.9862 8.50493 19.7229 9.14115 19.254 9.61032L11.3 17.5643C10.503 18.3612 9.42207 18.8089 8.295 18.8089C7.16792 18.8089 6.08701 18.3612 5.29 17.5643V17.5653Z" fill="#3527D6"/>
</g>
<defs>
<clipPath id="clip0_590_15034">
<rect width="24" height="24" fill="white" transform="matrix(-1 0 0 1 24 0)"/>
</clipPath>
</defs>
</svg>
