<svg width="16" height="16" viewBox="0 0 16 16" fill="none" xmlns="http://www.w3.org/2000/svg">
<path d="M14.625 9H9V14.625C9 14.9234 8.88147 15.2095 8.6705 15.4205C8.45952 15.6315 8.17337 15.75 7.875 15.75C7.57663 15.75 7.29048 15.6315 7.0795 15.4205C6.86853 15.2095 6.75 14.9234 6.75 14.625V9H1.125C0.826631 9 0.540484 8.88147 0.329505 8.6705C0.118527 8.45952 0 8.17337 0 7.875C0 7.57663 0.118527 7.29048 0.329505 7.0795C0.540484 6.86853 0.826631 6.75 1.125 6.75H6.75V1.125C6.75 0.826631 6.86853 0.540483 7.0795 0.329505C7.29048 0.118526 7.57663 0 7.875 0C8.17337 0 8.45952 0.118526 8.6705 0.329505C8.88147 0.540483 9 0.826631 9 1.125V6.75H14.625C14.9234 6.75 15.2095 6.86853 15.4205 7.0795C15.6315 7.29048 15.75 7.57663 15.75 7.875C15.75 8.17337 15.6315 8.45952 15.4205 8.6705C15.2095 8.88147 14.9234 9 14.625 9Z" fill="#3527D6"/>
</svg>
