<svg width="12" height="12" viewBox="0 0 12 12" fill="none" xmlns="http://www.w3.org/2000/svg">
<path d="M5.5 0V3H0V2.5C0 1.83696 0.263392 1.20107 0.732233 0.732233C1.20107 0.263392 1.83696 0 2.5 0H5.5ZM6.5 0V8H12V2.5C12 1.83696 11.7366 1.20107 11.2678 0.732233C10.7989 0.263392 10.163 0 9.5 0H6.5ZM12 9H6.5V12H9.5C10.163 12 10.7989 11.7366 11.2678 11.2678C11.7366 10.7989 12 10.163 12 9.5V9ZM5.5 12V4H0V9.5C0 10.163 0.263392 10.7989 0.732233 11.2678C1.20107 11.7366 1.83696 12 2.5 12H5.5Z" fill="#3527D6"/>
</svg>
