<svg width="17" height="17" viewBox="0 0 17 17" fill="none" xmlns="http://www.w3.org/2000/svg">
<path d="M4.75199 7.90617C4.5152 7.41928 4.39214 6.88495 4.3921 6.34353C4.3921 6.04722 4.43494 5.74275 4.52266 5.41397C4.56193 5.26607 4.61123 5.12463 4.66665 4.98744C4.45398 4.87133 4.22023 4.79993 3.96948 4.79993C3.03958 4.79993 2.28682 5.67594 2.28682 6.75782C2.28682 7.51466 2.65674 8.16967 3.197 8.49556L0.916454 9.55704C0.774334 9.62385 0.680664 9.78433 0.680664 9.96368V11.7636C0.680664 12.0049 0.849134 12.2004 1.05636 12.2004H2.40429V10.3117C2.40429 9.76138 2.71063 9.26243 3.18612 9.0399L4.93066 8.22747C4.86541 8.12364 4.80577 8.01639 4.75199 7.90617ZM10.2233 5.91632H16.0189H16.0199C16.1853 5.91632 16.3193 5.78219 16.3193 5.61695V4.52368C16.3193 4.35827 16.1852 4.22431 16.0199 4.22431L16.0189 4.22448L9.54259 4.22363C9.8278 4.59888 10.0319 5.02929 10.142 5.48758C10.1786 5.63871 10.2051 5.77998 10.2233 5.91632ZM16.3193 11.2943C16.3193 11.1289 16.1852 10.9949 16.0199 10.9949L16.0189 10.9951L12.2412 10.9942V12.5394C12.2412 12.5892 12.2385 12.6383 12.2335 12.6867H16.0189H16.0199C16.1853 12.6867 16.3193 12.5526 16.3193 12.3874V11.2943ZM16.0199 7.60969L16.0189 7.60986L10.0205 7.60901C9.99343 7.68024 9.96487 7.75113 9.93308 7.82134C9.87217 7.95583 9.80266 8.08626 9.725 8.21183L11.474 9.04619C11.6052 9.11093 11.7246 9.19731 11.8272 9.3017H16.0189H16.0199C16.1853 9.3017 16.3193 9.16757 16.3193 9.00233V7.90906C16.3193 7.74365 16.1852 7.60969 16.0199 7.60969Z" fill="#6F6F6F"/>
<path d="M11.1049 9.80923L9.14121 8.87253L8.31077 8.47643C8.67355 8.24795 8.96799 7.89537 9.16077 7.47054C9.3215 7.11647 9.40468 6.73212 9.40472 6.34327C9.40472 6.11411 9.36851 5.89668 9.31768 5.68656C9.07067 4.66945 8.27626 3.91992 7.32256 3.91992C6.38688 3.91992 5.60454 4.64259 5.3424 5.63097C5.28188 5.85758 5.24006 6.09337 5.24006 6.3431C5.24006 6.77694 5.34138 7.1812 5.51359 7.5331C5.71266 7.9411 6.00761 8.27753 6.36665 8.49377L5.57139 8.86403L3.54397 9.80821C3.36768 9.89066 3.25208 10.0894 3.25208 10.3112V12.5391C3.25208 12.8376 3.46016 13.0799 3.71703 13.0799H10.9279C11.1848 13.0799 11.3929 12.8378 11.3929 12.5391V10.3114C11.3932 10.0902 11.2793 9.89355 11.1049 9.80923Z" fill="#3527D6"/>
</svg>
