<svg width="10" height="18" viewBox="0 0 10 18" fill="none" xmlns="http://www.w3.org/2000/svg">
<path d="M2.9 17.925L1.5875 17.175L3.8375 13.275L2.5625 12.525L1.4375 14.475L0.125 13.725L3.9875 7.05C3.5125 6.5625 3.15625 6.00625 2.91875 5.38125C2.68125 4.75625 2.5625 4.1125 2.5625 3.45C2.5625 3 2.61875 2.55325 2.73125 2.10975C2.84375 1.66625 3.025 1.238 3.275 0.825L4.55 1.575C4.375 1.8625 4.25 2.1595 4.175 2.466C4.1 2.7725 4.0625 3.088 4.0625 3.4125C4.0625 4.075 4.225 4.697 4.55 5.2785C4.875 5.86 5.3375 6.3255 5.9375 6.675L7.625 7.65C8.4 8.1 8.96875 8.747 9.33125 9.591C9.69375 10.435 9.875 11.2255 9.875 11.9625C9.875 12.4375 9.8125 12.9 9.6875 13.35C9.5625 13.8 9.3875 14.225 9.1625 14.625L7.85 13.875C8.025 13.575 8.15 13.2687 8.225 12.9562C8.3 12.6438 8.3375 12.325 8.3375 12C8.3375 11.6 8.28125 11.2125 8.16875 10.8375C8.05625 10.4625 7.875 10.1125 7.625 9.7875L2.9 17.925ZM8 6.75C7.5875 6.75 7.23425 6.60325 6.94025 6.30975C6.64625 6.01625 6.4995 5.663 6.5 5.25C6.5 4.8375 6.647 4.48425 6.941 4.19025C7.235 3.89625 7.588 3.7495 8 3.75C8.4125 3.75 8.76575 3.897 9.05975 4.191C9.35375 4.485 9.5005 4.838 9.5 5.25C9.5 5.6625 9.353 6.01575 9.059 6.30975C8.765 6.60375 8.412 6.7505 8 6.75ZM6.125 3C5.8 3 5.53125 2.8875 5.31875 2.6625C5.10625 2.4375 5 2.175 5 1.875C5 1.55 5.1125 1.28125 5.3375 1.06875C5.5625 0.85625 5.825 0.75 6.125 0.75C6.45 0.75 6.71875 0.8625 6.93125 1.0875C7.14375 1.3125 7.25 1.575 7.25 1.875C7.25 2.2 7.1375 2.46875 6.9125 2.68125C6.6875 2.89375 6.425 3 6.125 3Z" fill="#3527D6"/>
</svg>
