<svg width="18" height="18" viewBox="0 0 18 18" fill="none" xmlns="http://www.w3.org/2000/svg">
<path fill-rule="evenodd" clip-rule="evenodd" d="M15.3075 7.39503C15.2638 7.39292 15.22 7.39217 15.1762 7.39278H13.35C11.856 7.39278 10.5765 8.57853 10.5765 10.125C10.5765 11.6715 11.856 12.8573 13.3507 12.8573H15.1755C15.2212 12.8573 15.2655 12.8573 15.3067 12.8543C15.6151 12.8346 15.9058 12.7034 16.1247 12.4853C16.3435 12.2671 16.4756 11.9768 16.4962 11.6685C16.4992 11.6243 16.4992 11.577 16.4992 11.5335V8.71653C16.4992 8.67303 16.4992 8.62578 16.4962 8.58153C16.4756 8.27334 16.3436 7.98315 16.1249 7.76501C15.9062 7.54687 15.6157 7.41565 15.3075 7.39578V7.39503ZM13.1902 10.8533C13.575 10.8533 13.8877 10.5278 13.8877 10.125C13.8877 9.72228 13.575 9.39678 13.1902 9.39678C12.8055 9.39678 12.4935 9.72228 12.4935 10.125C12.4935 10.5278 12.8047 10.8533 13.1902 10.8533Z" fill="#3527D6"/>
<path fill-rule="evenodd" clip-rule="evenodd" d="M15.1755 13.95C15.2006 13.9491 15.2256 13.9542 15.2484 13.9647C15.2713 13.9752 15.2913 13.991 15.3069 14.0107C15.3225 14.0304 15.3333 14.0535 15.3383 14.0781C15.3434 14.1028 15.3426 14.1282 15.336 14.1525C15.1905 14.6715 14.9602 15.114 14.5905 15.486C14.0498 16.0313 13.3635 16.2735 12.516 16.3883C11.6925 16.5 10.641 16.5 9.312 16.5H7.78425C6.456 16.5 5.40375 16.5 4.58025 16.3883C3.73275 16.2735 3.0465 16.0313 2.50575 15.486C1.965 14.9415 1.725 14.25 1.611 13.3958C1.5 12.5655 1.5 11.505 1.5 10.1663V10.0837C1.5 8.745 1.5 7.68375 1.611 6.85425C1.725 6 1.965 5.31 2.505 4.76325C3.04575 4.21875 3.732 3.97575 4.5795 3.86175C5.40375 3.75 6.456 3.75 7.78425 3.75H9.312C10.6403 3.75 11.6925 3.75 12.516 3.86175C13.3635 3.9765 14.0498 4.21875 14.5905 4.76325C14.9602 5.136 15.1905 5.5785 15.336 6.09825C15.3425 6.12246 15.3431 6.14785 15.338 6.17238C15.3329 6.19691 15.3221 6.2199 15.3065 6.23951C15.2909 6.25912 15.2709 6.27481 15.2482 6.28531C15.2254 6.29582 15.2005 6.30085 15.1755 6.3H13.3507C11.3003 6.3 9.4935 7.93275 9.4935 10.125C9.4935 12.3173 11.301 13.95 13.3515 13.95H15.1755ZM4.2105 6.6645C4.13909 6.66479 4.06844 6.67915 4.00259 6.70675C3.93673 6.73435 3.87695 6.77465 3.82667 6.82535C3.77639 6.87605 3.73658 6.93616 3.70953 7.00224C3.68248 7.06833 3.6687 7.13909 3.669 7.2105C3.669 7.51275 3.91125 7.75725 4.2105 7.75725H7.1025C7.4025 7.75725 7.64475 7.51275 7.64475 7.2105C7.64515 7.06622 7.58827 6.92768 7.4866 6.8253C7.38493 6.72293 7.24678 6.6651 7.1025 6.6645H4.2105Z" fill="#3527D6"/>
<path d="M5.83276 3.01844L7.30126 1.93619C7.68447 1.65289 8.14846 1.5 8.62501 1.5C9.10157 1.5 9.56556 1.65289 9.94876 1.93619L11.4255 3.02444C10.8075 3.00044 10.1175 3.00044 9.36226 3.00044H7.73476C7.04326 3.00044 6.40801 3.00044 5.83276 3.01844Z" fill="#3527D6"/>
</svg>
