<svg width="15" height="15" viewBox="0 0 15 15" fill="none" xmlns="http://www.w3.org/2000/svg">
<path d="M5.625 13.75C5.28125 13.75 4.98688 13.6275 4.74188 13.3825C4.49688 13.1375 4.37458 12.8433 4.375 12.5V10.625H2.5C2.15625 10.625 1.86188 10.5025 1.61688 10.2575C1.37188 10.0125 1.24958 9.71833 1.25 9.375V8.125H5.28125L6.34375 9.71875C6.39583 9.80208 6.46875 9.86979 6.5625 9.92188C6.65625 9.97396 6.75521 10 6.85938 10C6.99479 10 7.11979 9.95833 7.23438 9.875C7.34896 9.79167 7.42708 9.6875 7.46875 9.5625L8.3125 7.03125L8.84375 7.84375C8.90625 7.92708 8.98438 7.99479 9.07813 8.04688C9.17188 8.09896 9.27083 8.125 9.375 8.125H13.75V9.375C13.75 9.71875 13.6275 10.0131 13.3825 10.2581C13.1375 10.5031 12.8433 10.6254 12.5 10.625H10.625V12.5C10.625 12.8438 10.5025 13.1381 10.2575 13.3831C10.0125 13.6281 9.71833 13.7504 9.375 13.75H5.625ZM6.6875 7.96875L6.14063 7.15625C6.08854 7.07292 6.01563 7.00521 5.92188 6.95313C5.82813 6.90104 5.72917 6.875 5.625 6.875H1.25V5.625C1.25 5.28125 1.3725 4.98688 1.6175 4.74188C1.8625 4.49688 2.15667 4.37458 2.5 4.375H4.375V2.5C4.375 2.15625 4.4975 1.86188 4.7425 1.61688C4.9875 1.37188 5.28167 1.24958 5.625 1.25H9.375C9.71875 1.25 10.0131 1.3725 10.2581 1.6175C10.5031 1.8625 10.6254 2.15667 10.625 2.5V4.375H12.5C12.8438 4.375 13.1381 4.4975 13.3831 4.7425C13.6281 4.9875 13.7504 5.28167 13.75 5.625V6.875H9.70313L8.64063 5.28125C8.58854 5.19792 8.51563 5.13021 8.42188 5.07813C8.32813 5.02604 8.22917 5 8.125 5C7.98958 5 7.86708 5.04167 7.7575 5.125C7.64792 5.20833 7.5725 5.3125 7.53125 5.4375L6.6875 7.96875Z" fill="#3527D6"/>
</svg>
