<svg width="7" height="10" viewBox="0 0 7 10" fill="none" xmlns="http://www.w3.org/2000/svg">
<path d="M4.61292 2.3259H5.95746C6.08116 2.3259 6.18155 2.24903 6.18155 2.1543V1.12472C6.18155 1.03 6.08116 0.953125 5.95746 0.953125H4.61292C3.25403 0.953125 2.14792 1.79979 2.14792 2.84069V4.04187H0.579288C0.45559 4.04187 0.355198 4.11875 0.355198 4.21347V5.24305C0.355198 5.33777 0.45559 5.41465 0.579288 5.41465H2.14792V9.01819C2.14792 9.11291 2.24831 9.18979 2.37201 9.18979H3.71656C3.84025 9.18979 3.94065 9.11291 3.94065 9.01819V5.41465H5.50928C5.60564 5.41465 5.69124 5.36729 5.72217 5.29728L6.17035 4.2677C6.1932 4.21553 6.18155 4.15787 6.13942 4.11291C6.09684 4.0683 6.02962 4.04187 5.95746 4.04187H3.94065V2.84069C3.94065 2.55687 4.24227 2.3259 4.61292 2.3259Z" fill="#F5F5F5"/>
</svg>
