<svg width="11" height="10" viewBox="0 0 11 10" fill="none" xmlns="http://www.w3.org/2000/svg">
<path d="M1.67969 2.97267C2.40421 2.97267 2.99155 2.52145 2.99155 1.96485C2.99155 1.40825 2.40421 0.957031 1.67969 0.957031C0.955169 0.957031 0.367828 1.40825 0.367828 1.96485C0.367828 2.52145 0.955169 2.97267 1.67969 2.97267Z" fill="#F5F5F5"/>
<path d="M2.77297 3.64648H0.586533C0.465842 3.64648 0.367889 3.72173 0.367889 3.81445V8.85355C0.367889 8.94627 0.465842 9.02152 0.586533 9.02152H2.77297C2.89366 9.02152 2.99161 8.94627 2.99161 8.85355V3.81445C2.99161 3.72173 2.89366 3.64648 2.77297 3.64648Z" fill="#F5F5F5"/>
<path d="M9.28862 3.36426C8.35414 3.11835 7.18527 3.33436 6.4843 3.7217C6.46025 3.64948 6.37454 3.59572 6.27265 3.59572H4.08621C3.96552 3.59572 3.86757 3.67098 3.86757 3.76369V8.80278C3.86757 8.8955 3.96552 8.97075 4.08621 8.97075H6.27265C6.39334 8.97075 6.4913 8.8955 6.4913 8.80278V5.18136C6.84462 4.94754 7.29984 4.87297 7.67241 4.99458C8.03361 5.11182 8.24045 5.39804 8.24045 5.77933V8.80278C8.24045 8.8955 8.3384 8.97075 8.45909 8.97075H10.6455C10.7662 8.97075 10.8642 8.8955 10.8642 8.80278V5.44104C10.8392 4.06066 9.99397 3.5497 9.28862 3.36426Z" fill="#F5F5F5"/>
</svg>
