<svg width="11" height="8" viewBox="0 0 11 8" fill="none" xmlns="http://www.w3.org/2000/svg">
<path d="M10.4313 1.32788C10.3634 1.26553 10.254 1.24985 10.1642 1.28831C10.1083 1.3122 10.0034 1.34356 9.87875 1.37455C10.036 1.19982 10.1624 1.00418 10.2182 0.828321C10.2424 0.752528 10.2071 0.672628 10.1302 0.627451C10.0534 0.582647 9.95112 0.582647 9.87428 0.627451C9.75323 0.698017 9.16896 0.910088 8.79955 0.978787C7.96469 0.367589 6.99314 0.304117 5.98318 0.796959C5.16217 1.19758 4.98349 2.01226 5.01833 2.50884C3.13912 2.35762 1.97102 1.52801 1.3135 0.841389C1.26749 0.793225 1.19334 0.767836 1.12366 0.77157C1.0504 0.77605 0.98429 0.810026 0.946768 0.862671C0.635873 1.30137 0.549662 1.78638 0.698409 2.2654C0.779707 2.52676 0.921753 2.75712 1.08658 2.94381C1.00752 2.91132 0.931134 2.87063 0.859217 2.82209C0.793107 2.77654 0.700643 2.76795 0.622472 2.79819C0.544748 2.82918 0.495166 2.8949 0.495166 2.96695C0.495166 3.78948 1.1107 4.33832 1.68559 4.62507C1.59268 4.61573 1.49575 4.59856 1.39792 4.57354C1.31395 4.55226 1.22282 4.57354 1.16475 4.6288C1.10668 4.68369 1.09284 4.76209 1.12902 4.82893C1.45197 5.42594 2.06394 5.83664 2.82107 5.98561C2.15997 6.31006 1.27508 6.46912 0.464791 6.39108C0.359819 6.37876 0.259761 6.43439 0.226706 6.51877C0.193651 6.60315 0.23698 6.69575 0.329444 6.73906C1.55873 7.31591 2.67009 7.52201 3.63047 7.52201C5.02816 7.52201 6.10691 7.08592 6.76355 6.72114C8.53377 5.73919 9.63709 3.97616 9.48343 2.39869C9.76708 2.22359 10.1914 1.90025 10.4545 1.55265C10.509 1.48246 10.4992 1.38986 10.4313 1.32788Z" fill="#F5F5F5"/>
</svg>
