<svg width="88" height="46" viewBox="0 0 88 46" fill="none" xmlns="http://www.w3.org/2000/svg">
<rect x="0.899097" y="0.806641" width="43.9976" height="44.476" rx="16.0938" fill="#5956E9"/>
<path d="M15.8737 31.1731C15.8737 31.1731 15.8506 30.8496 15.8044 30.2025C15.7813 29.5555 15.7351 28.7235 15.6657 27.7067C15.6195 26.6899 15.5618 25.6038 15.4924 24.4484C15.4231 23.2698 15.3538 22.149 15.2844 21.086C15.2382 19.9999 15.2036 19.0986 15.1805 18.3823C15.1573 17.6428 15.1458 17.2037 15.1458 17.0651C15.192 16.6722 15.2267 16.3602 15.2498 16.1291C15.296 15.8749 15.4115 15.7016 15.5964 15.6092C15.7351 15.5399 15.7697 15.4474 15.7004 15.3319C15.6542 15.2163 15.6426 15.0661 15.6657 14.8813C15.712 14.6964 15.9431 14.5 16.359 14.292C16.6825 14.1302 17.1909 13.8991 17.8842 13.5987C18.6006 13.2752 19.4556 13.021 20.4493 12.8361C21.443 12.6512 22.506 12.6743 23.6383 12.9054C24.7707 13.1134 25.9146 13.6565 27.07 14.5346C27.8557 15.1355 28.3295 15.7594 28.4912 16.4064C28.6761 17.0304 28.6761 17.6428 28.4912 18.2436C28.3064 18.8213 28.0406 19.3528 27.694 19.8381C27.3473 20.3003 27.0238 20.6701 26.7234 20.9474C26.4461 21.2247 26.3074 21.3633 26.3074 21.3633C26.3074 21.3633 26.4692 21.4211 26.7927 21.5366C27.1163 21.6522 27.5091 21.8371 27.9713 22.0913C28.4566 22.3455 28.9419 22.6921 29.4272 23.1312C29.9124 23.5471 30.3168 24.0671 30.6404 24.691C30.987 25.315 31.1719 26.0429 31.195 26.8748C31.2412 28.2845 30.8021 29.4399 29.8778 30.3412C28.9765 31.2424 27.7171 31.9241 26.0995 32.3863C24.5049 32.8254 22.6678 33.0449 20.588 33.0449C19.3863 33.0449 18.4619 32.9525 17.8149 32.7676C17.1678 32.5827 16.7056 32.3632 16.4283 32.109C16.151 31.8548 15.9893 31.6353 15.9431 31.4504C15.8968 31.2655 15.8737 31.1731 15.8737 31.1731ZM20.484 16.2331C20.484 16.2331 20.484 16.418 20.484 16.7877C20.5071 17.1344 20.5186 17.5503 20.5186 18.0356C20.5417 18.5209 20.5649 18.9715 20.588 19.3875C20.6342 19.7804 20.6804 20.023 20.7266 20.1154C20.7728 20.2079 20.9346 20.1848 21.2119 20.0461C21.4892 19.9075 21.7781 19.6995 22.0785 19.4222C22.402 19.1218 22.6562 18.7867 22.8411 18.4169C23.0491 18.0241 23.1184 17.6428 23.0491 17.273C22.8873 16.5335 22.5522 16.106 22.0438 15.9905C21.5354 15.8749 21.0155 15.9558 20.484 16.2331ZM21.2466 24.2751L21.4892 30.0292C21.4892 30.0292 21.651 30.0292 21.9745 30.0292C22.298 30.0292 22.6909 29.9945 23.1531 29.9252C23.6152 29.8559 24.0659 29.7057 24.5049 29.4746C24.9671 29.2435 25.3253 28.9084 25.5795 28.4693C25.8568 28.0072 25.9492 27.3832 25.8568 26.5975C25.7644 25.8118 25.5448 25.2341 25.1982 24.8643C24.8747 24.4715 24.4818 24.2173 24.0196 24.1017C23.5806 23.9862 23.1415 23.9515 22.7024 23.9978C22.2865 24.0209 21.9398 24.0786 21.6625 24.1711C21.3852 24.2404 21.2466 24.2751 21.2466 24.2751Z" fill="white"/>
<path d="M49.7647 31.0449V20.1853H54.0877C56.227 20.1853 57.5343 21.2995 57.5343 23.1119C57.5343 24.3153 56.9995 25.1769 55.9744 25.6077C57.1183 25.9791 57.6977 26.8407 57.6977 28.1035C57.6977 29.9604 56.4053 31.0449 54.162 31.0449H49.7647ZM53.9243 21.864H51.6663V24.8203H53.9689C55.0088 24.8203 55.5882 24.2707 55.5882 23.3051C55.5882 22.3691 54.994 21.864 53.9243 21.864ZM54.0877 26.4248H51.6663V29.3662H54.0877C55.1574 29.3662 55.7516 28.8463 55.7516 27.8658C55.7516 26.9447 55.1425 26.4248 54.0877 26.4248ZM61.0606 31.238C59.5007 31.238 58.5499 30.3318 58.5499 28.9503C58.5499 27.5984 59.5304 26.7516 61.2685 26.6179L63.4672 26.4545V26.2911C63.4672 25.2957 62.873 24.8946 61.9519 24.8946C60.8823 24.8946 60.2881 25.3403 60.2881 26.1128H58.7431C58.7431 24.5232 60.0504 23.4833 62.041 23.4833C64.0169 23.4833 65.235 24.5529 65.235 26.5882V31.0449H63.6455L63.5118 29.9604C63.1998 30.7181 62.2045 31.238 61.0606 31.238ZM61.6548 29.8713C62.769 29.8713 63.4821 29.2028 63.4821 28.0738V27.6875L61.9519 27.8064C60.8229 27.9104 60.3921 28.2817 60.3921 28.876C60.3921 29.5445 60.8377 29.8713 61.6548 29.8713ZM71.3237 23.6765V25.3552H70.6552C69.3479 25.3552 68.5308 26.0534 68.5308 27.4795V31.0449H66.7184V23.721H68.4268L68.5308 24.7906C68.8428 24.0627 69.541 23.5725 70.5215 23.5725C70.774 23.5725 71.0266 23.6022 71.3237 23.6765ZM71.5759 27.3607C71.5759 25.0878 73.0763 23.4833 75.2453 23.4833C77.2508 23.4833 78.6175 24.5975 78.8107 26.3653H76.9983C76.7903 25.5334 76.1812 25.1026 75.3196 25.1026C74.1608 25.1026 73.3883 25.9791 73.3883 27.3607C73.3883 28.7423 74.1014 29.6039 75.2601 29.6039C76.1663 29.6039 76.8051 29.1582 76.9983 28.356H78.8255C78.6027 30.0644 77.1765 31.238 75.2601 31.238C73.0318 31.238 71.5759 29.693 71.5759 27.3607ZM82.0612 31.238C80.5013 31.238 79.5506 30.3318 79.5506 28.9503C79.5506 27.5984 80.531 26.7516 82.2692 26.6179L84.4678 26.4545V26.2911C84.4678 25.2957 83.8736 24.8946 82.9525 24.8946C81.8829 24.8946 81.2887 25.3403 81.2887 26.1128H79.7437C79.7437 24.5232 81.051 23.4833 83.0417 23.4833C85.0175 23.4833 86.2357 24.5529 86.2357 26.5882V31.0449H84.6461L84.5124 29.9604C84.2004 30.7181 83.2051 31.238 82.0612 31.238ZM82.6554 29.8713C83.7696 29.8713 84.4827 29.2028 84.4827 28.0738V27.6875L82.9525 27.8064C81.8235 27.9104 81.3927 28.2817 81.3927 28.876C81.3927 29.5445 81.8384 29.8713 82.6554 29.8713Z" fill="black"/>
</svg>
