<svg width="20" height="20" viewBox="0 0 20 20" fill="none" xmlns="http://www.w3.org/2000/svg">
<path fill-rule="evenodd" clip-rule="evenodd" d="M13.4375 10.0003C13.4375 9.83454 13.3716 9.67557 13.2544 9.55836C13.1372 9.44115 12.9783 9.3753 12.8125 9.3753H3.66833L5.3025 7.9753C5.36487 7.9219 5.41612 7.85673 5.45332 7.78352C5.49051 7.71031 5.51292 7.63049 5.51926 7.54862C5.52561 7.46675 5.51577 7.38443 5.4903 7.30637C5.46483 7.2283 5.42423 7.15601 5.37083 7.09364C5.31743 7.03126 5.25226 6.98001 5.17905 6.94282C5.10584 6.90562 5.02602 6.88322 4.94415 6.87687C4.86228 6.87052 4.77996 6.88037 4.70189 6.90584C4.62383 6.9313 4.55154 6.9719 4.48916 7.0253L1.5725 9.5253C1.50388 9.58398 1.4488 9.65682 1.41103 9.73882C1.37326 9.82082 1.3537 9.91002 1.3537 10.0003C1.3537 10.0906 1.37326 10.1798 1.41103 10.2618C1.4488 10.3438 1.50388 10.4166 1.5725 10.4753L4.48916 12.9753C4.61514 13.0832 4.7788 13.1366 4.94415 13.1237C5.10949 13.1109 5.26298 13.0329 5.37083 12.907C5.47868 12.781 5.53208 12.6173 5.51926 12.452C5.50645 12.2866 5.42847 12.1332 5.3025 12.0253L3.66916 10.6253H12.8125C12.9783 10.6253 13.1372 10.5595 13.2544 10.4422C13.3716 10.325 13.4375 10.1661 13.4375 10.0003Z" fill="#3527D6"/>
<path d="M7.8125 6.66699C7.8125 7.25199 7.8125 7.54449 7.95333 7.75533C8.01399 7.84598 8.09185 7.92384 8.1825 7.98449C8.39333 8.12533 8.68583 8.12533 9.27083 8.12533H12.8125C13.3098 8.12533 13.7867 8.32287 14.1383 8.6745C14.49 9.02613 14.6875 9.50304 14.6875 10.0003C14.6875 10.4976 14.49 10.9745 14.1383 11.3261C13.7867 11.6778 13.3098 11.8753 12.8125 11.8753H9.27083C8.68583 11.8753 8.39333 11.8753 8.1825 12.0153C8.09177 12.0762 8.0139 12.1544 7.95333 12.2453C7.8125 12.4562 7.8125 12.7487 7.8125 13.3337C7.8125 15.6903 7.8125 16.8695 8.545 17.6012C9.27667 18.3337 10.455 18.3337 12.8117 18.3337H13.645C16.0033 18.3337 17.1808 18.3337 17.9133 17.6012C18.6458 16.8695 18.6458 15.6903 18.6458 13.3337V6.66699C18.6458 4.31033 18.6458 3.13116 17.9133 2.39949C17.1808 1.66699 16.0025 1.66699 13.6458 1.66699H12.8125C10.455 1.66699 9.27667 1.66699 8.545 2.39949C7.8125 3.13116 7.8125 4.31033 7.8125 6.66699Z" fill="#3527D6"/>
</svg>
