<svg width="13" height="11" viewBox="0 0 13 11" fill="none" xmlns="http://www.w3.org/2000/svg">
<path d="M12.4452 0.869141H1.19695C0.957658 0.869141 0.764329 1.06247 0.764329 1.30177V9.95427C0.764329 10.1936 0.957658 10.3869 1.19695 10.3869H12.4452C12.6845 10.3869 12.8778 10.1936 12.8778 9.95427V1.30177C12.8778 1.06247 12.6845 0.869141 12.4452 0.869141ZM11.9044 2.3671V9.41349H1.73774V2.3671L1.3646 2.07644L1.89591 1.3937L2.47455 1.8439H11.169L11.7476 1.3937L12.2789 2.07644L11.9044 2.3671ZM11.169 1.84255L6.82108 5.22243L2.4732 1.84255L1.89456 1.39235L1.36324 2.07508L1.73638 2.36575L6.35466 5.95654C6.48747 6.05972 6.65087 6.11574 6.81905 6.11574C6.98724 6.11574 7.15063 6.05972 7.28345 5.95654L11.9044 2.3671L12.2776 2.07644L11.7462 1.3937L11.169 1.84255Z" fill="#F0EDFF"/>
</svg>
