<svg width="17" height="17" viewBox="0 0 17 17" fill="none" xmlns="http://www.w3.org/2000/svg">
<path d="M4.95835 7.79199C4.53977 7.79199 4.12528 7.70955 3.73855 7.54936C3.35182 7.38917 3.00044 7.15438 2.70445 6.85839C2.40846 6.56241 2.17367 6.21102 2.01349 5.8243C1.8533 5.43757 1.77085 5.02308 1.77085 4.60449C1.77085 4.1859 1.8533 3.77141 2.01349 3.38469C2.17367 2.99796 2.40846 2.64658 2.70445 2.35059C3.00044 2.0546 3.35182 1.81981 3.73855 1.65963C4.12528 1.49944 4.53977 1.41699 4.95835 1.41699C5.80373 1.41699 6.61448 1.75282 7.21226 2.35059C7.81003 2.94836 8.14585 3.75911 8.14585 4.60449C8.14585 5.44987 7.81003 6.26062 7.21226 6.85839C6.61448 7.45617 5.80373 7.79199 4.95835 7.79199ZM12.3959 10.6253C11.6444 10.6253 10.9237 10.3268 10.3924 9.79546C9.86103 9.26411 9.56252 8.54344 9.56252 7.79199C9.56252 7.04055 9.86103 6.31988 10.3924 5.78852C10.9237 5.25717 11.6444 4.95866 12.3959 4.95866C13.1473 4.95866 13.868 5.25717 14.3993 5.78852C14.9307 6.31988 15.2292 7.04055 15.2292 7.79199C15.2292 8.54344 14.9307 9.26411 14.3993 9.79546C13.868 10.3268 13.1473 10.6253 12.3959 10.6253ZM12.3959 11.3337C13.2412 11.3337 14.052 11.6695 14.6498 12.2673C15.2475 12.865 15.5834 13.6758 15.5834 14.5212V14.8753H9.20835V14.5212C9.20835 13.6758 9.54418 12.865 10.142 12.2673C10.7397 11.6695 11.5505 11.3337 12.3959 11.3337ZM4.95835 8.50033C5.42345 8.50033 5.884 8.59193 6.31369 8.76992C6.74339 8.9479 7.13382 9.20878 7.46269 9.53766C7.79156 9.86653 8.05244 10.257 8.23043 10.6867C8.40841 11.1164 8.50002 11.5769 8.50002 12.042V14.8753H1.41669V12.042C1.41669 11.1027 1.78983 10.2018 2.45402 9.53766C3.11821 8.87346 4.01905 8.50033 4.95835 8.50033Z" fill="#3527D6"/>
</svg>
