<svg width="16" height="16" viewBox="0 0 16 16" fill="none" xmlns="http://www.w3.org/2000/svg">
<path d="M14.0625 4C13.8391 4.00007 13.6187 4.05224 13.4189 4.15235C13.2192 4.25247 13.0455 4.39778 12.9117 4.57675C12.7779 4.75572 12.6876 4.96341 12.6481 5.18335C12.6086 5.40329 12.6209 5.6294 12.6841 5.84375L10.4538 8.07375C10.1596 7.97577 9.84167 7.97577 9.54753 8.07375L7.89409 6.42031C7.9485 6.208 7.95364 5.98607 7.90913 5.77147C7.86461 5.55687 7.77161 5.35529 7.63724 5.18214C7.50287 5.00899 7.33069 4.86886 7.13386 4.77246C6.93703 4.67607 6.72076 4.62595 6.50159 4.62595C6.28242 4.62595 6.06616 4.67607 5.86933 4.77246C5.67249 4.86886 5.50031 5.00899 5.36594 5.18214C5.23157 5.35529 5.13858 5.55687 5.09406 5.77147C5.04954 5.98607 5.05468 6.208 5.10909 6.42031L2.34378 9.18375C2.03677 9.09287 1.70823 9.1069 1.41008 9.22363C1.11194 9.34036 0.861204 9.55312 0.697503 9.82828C0.533802 10.1034 0.466475 10.4253 0.506165 10.743C0.545855 11.0607 0.690297 11.3562 0.916661 11.5826C1.14302 11.809 1.4384 11.9536 1.75609 11.9934C2.07379 12.0332 2.39569 11.9659 2.6709 11.8023C2.94612 11.6387 3.15896 11.388 3.27579 11.0899C3.39261 10.7918 3.40675 10.4633 3.31597 10.1562L6.04628 7.42625C6.34041 7.5243 6.6584 7.5243 6.95253 7.42625L8.60628 9.08C8.55187 9.29231 8.54673 9.51425 8.59124 9.72885C8.63576 9.94345 8.72876 10.145 8.86313 10.3182C8.9975 10.4913 9.16968 10.6314 9.36651 10.7278C9.56334 10.8242 9.77961 10.8744 9.99878 10.8744C10.2179 10.8744 10.4342 10.8242 10.631 10.7278C10.8279 10.6314 11.0001 10.4913 11.1344 10.3182C11.2688 10.145 11.3618 9.94345 11.4063 9.72885C11.4508 9.51425 11.4457 9.29231 11.3913 9.08L13.6563 6.81625C13.854 6.87459 14.062 6.88971 14.2661 6.86059C14.4702 6.83147 14.6656 6.75879 14.8392 6.64748C15.0127 6.53617 15.1602 6.38884 15.2718 6.21548C15.3834 6.04212 15.4564 5.84679 15.4858 5.64274C15.5152 5.43869 15.5004 5.23069 15.4424 5.03287C15.3844 4.83504 15.2845 4.65201 15.1495 4.4962C15.0145 4.34038 14.8475 4.21543 14.66 4.12981C14.4725 4.0442 14.2687 3.99993 14.0625 4Z" fill="#3527D6"/>
</svg>
