<svg width="19" height="19" viewBox="0 0 19 19" fill="none" xmlns="http://www.w3.org/2000/svg">
<path d="M17.2917 18.75L10.7292 12.1875C10.2083 12.6042 9.60937 12.934 8.93229 13.1771C8.25521 13.4201 7.53472 13.5417 6.77083 13.5417C4.87847 13.5417 3.27708 12.8861 1.96667 11.575C0.65625 10.2639 0.000694444 8.6625 0 6.77083C0 4.87847 0.655556 3.27708 1.96667 1.96667C3.27778 0.65625 4.87917 0.000694444 6.77083 0C8.66319 0 10.2646 0.655556 11.575 1.96667C12.8854 3.27778 13.541 4.87917 13.5417 6.77083C13.5417 7.53472 13.4201 8.25521 13.1771 8.93229C12.934 9.60937 12.6042 10.2083 12.1875 10.7292L18.75 17.2917L17.2917 18.75ZM6.77083 11.4583C8.07292 11.4583 9.17986 11.0024 10.0917 10.0906C11.0035 9.17882 11.459 8.07222 11.4583 6.77083C11.4583 5.46875 11.0024 4.3618 10.0906 3.45C9.17882 2.53819 8.07222 2.08264 6.77083 2.08333C5.46875 2.08333 4.3618 2.53924 3.45 3.45104C2.53819 4.36285 2.08264 5.46944 2.08333 6.77083C2.08333 8.07292 2.53924 9.17986 3.45104 10.0917C4.36285 11.0035 5.46944 11.459 6.77083 11.4583Z" fill="#08001D"/>
</svg>
