<svg width="13" height="13" viewBox="0 0 13 13" fill="none" xmlns="http://www.w3.org/2000/svg">
<path d="M4.19801 1.35449C4.19801 1.24675 4.15521 1.14342 4.07902 1.06723C4.00284 0.991043 3.89951 0.948242 3.79176 0.948242C3.68402 0.948242 3.58069 0.991043 3.5045 1.06723C3.42831 1.14342 3.38551 1.24675 3.38551 1.35449V2.21033C2.60551 2.27262 2.09418 2.42537 1.71826 2.80183C1.3418 3.17774 1.18905 3.68962 1.12622 4.46908H11.874C11.8111 3.68908 11.6584 3.17774 11.2819 2.80183C10.906 2.42537 10.3941 2.27262 9.61468 2.20978V1.35449C9.61468 1.24675 9.57188 1.14342 9.49569 1.06723C9.41951 0.991043 9.31617 0.948242 9.20843 0.948242C9.10068 0.948242 8.99735 0.991043 8.92117 1.06723C8.84498 1.14342 8.80218 1.24675 8.80218 1.35449V2.17403C8.44197 2.16699 8.03789 2.16699 7.58343 2.16699H5.41676C4.9623 2.16699 4.55822 2.16699 4.19801 2.17403V1.35449Z" fill="white"/>
<path fill-rule="evenodd" clip-rule="evenodd" d="M1.08337 6.5C1.08337 6.04554 1.08337 5.64146 1.09042 5.28125H11.9097C11.9167 5.64146 11.9167 6.04554 11.9167 6.5V7.58333C11.9167 9.62596 11.9167 10.6475 11.2819 11.2818C10.6476 11.9167 9.626 11.9167 7.58337 11.9167H5.41671C3.37408 11.9167 2.3525 11.9167 1.71821 11.2818C1.08337 10.6475 1.08337 9.62596 1.08337 7.58333V6.5ZM9.20837 7.58333C9.35203 7.58333 9.48981 7.52626 9.59139 7.42468C9.69297 7.3231 9.75004 7.18533 9.75004 7.04167C9.75004 6.89801 9.69297 6.76023 9.59139 6.65865C9.48981 6.55707 9.35203 6.5 9.20837 6.5C9.06471 6.5 8.92694 6.55707 8.82536 6.65865C8.72377 6.76023 8.66671 6.89801 8.66671 7.04167C8.66671 7.18533 8.72377 7.3231 8.82536 7.42468C8.92694 7.52626 9.06471 7.58333 9.20837 7.58333ZM9.20837 9.75C9.35203 9.75 9.48981 9.69293 9.59139 9.59135C9.69297 9.48977 9.75004 9.35199 9.75004 9.20833C9.75004 9.06467 9.69297 8.9269 9.59139 8.82532C9.48981 8.72373 9.35203 8.66667 9.20837 8.66667C9.06471 8.66667 8.92694 8.72373 8.82536 8.82532C8.72377 8.9269 8.66671 9.06467 8.66671 9.20833C8.66671 9.35199 8.72377 9.48977 8.82536 9.59135C8.92694 9.69293 9.06471 9.75 9.20837 9.75ZM7.04171 7.04167C7.04171 7.18533 6.98464 7.3231 6.88306 7.42468C6.78147 7.52626 6.6437 7.58333 6.50004 7.58333C6.35638 7.58333 6.21861 7.52626 6.11702 7.42468C6.01544 7.3231 5.95837 7.18533 5.95837 7.04167C5.95837 6.89801 6.01544 6.76023 6.11702 6.65865C6.21861 6.55707 6.35638 6.5 6.50004 6.5C6.6437 6.5 6.78147 6.55707 6.88306 6.65865C6.98464 6.76023 7.04171 6.89801 7.04171 7.04167ZM7.04171 9.20833C7.04171 9.35199 6.98464 9.48977 6.88306 9.59135C6.78147 9.69293 6.6437 9.75 6.50004 9.75C6.35638 9.75 6.21861 9.69293 6.11702 9.59135C6.01544 9.48977 5.95837 9.35199 5.95837 9.20833C5.95837 9.06467 6.01544 8.9269 6.11702 8.82532C6.21861 8.72373 6.35638 8.66667 6.50004 8.66667C6.6437 8.66667 6.78147 8.72373 6.88306 8.82532C6.98464 8.9269 7.04171 9.06467 7.04171 9.20833ZM3.79171 7.58333C3.93537 7.58333 4.07314 7.52626 4.17472 7.42468C4.27631 7.3231 4.33337 7.18533 4.33337 7.04167C4.33337 6.89801 4.27631 6.76023 4.17472 6.65865C4.07314 6.55707 3.93537 6.5 3.79171 6.5C3.64805 6.5 3.51027 6.55707 3.40869 6.65865C3.30711 6.76023 3.25004 6.89801 3.25004 7.04167C3.25004 7.18533 3.30711 7.3231 3.40869 7.42468C3.51027 7.52626 3.64805 7.58333 3.79171 7.58333ZM3.79171 9.75C3.93537 9.75 4.07314 9.69293 4.17472 9.59135C4.27631 9.48977 4.33337 9.35199 4.33337 9.20833C4.33337 9.06467 4.27631 8.9269 4.17472 8.82532C4.07314 8.72373 3.93537 8.66667 3.79171 8.66667C3.64805 8.66667 3.51027 8.72373 3.40869 8.82532C3.30711 8.9269 3.25004 9.06467 3.25004 9.20833C3.25004 9.35199 3.30711 9.48977 3.40869 9.59135C3.51027 9.69293 3.64805 9.75 3.79171 9.75Z" fill="white"/>
</svg>
