<svg width="14" height="14" viewBox="0 0 14 14" fill="none" xmlns="http://www.w3.org/2000/svg">
<path d="M5.66665 8.33301H8.33331V6.99968H5.66665V8.33301ZM5.66665 6.33301H11V4.99968H5.66665V6.33301ZM5.66665 4.33301H11V2.99968H5.66665V4.33301ZM4.33331 10.9997C3.96665 10.9997 3.65265 10.869 3.39131 10.6077C3.12998 10.3463 2.99954 10.0326 2.99998 9.66634V1.66634C2.99998 1.29968 3.13065 0.985676 3.39198 0.724342C3.65331 0.463009 3.96709 0.332564 4.33331 0.333009H12.3333C12.7 0.333009 13.014 0.463676 13.2753 0.725009C13.5366 0.986342 13.6671 1.30012 13.6666 1.66634V9.66634C13.6666 10.033 13.536 10.347 13.2746 10.6083C13.0133 10.8697 12.6995 11.0001 12.3333 10.9997H4.33331ZM1.66665 13.6663C1.29998 13.6663 0.985981 13.5357 0.724647 13.2743C0.463314 13.013 0.33287 12.6992 0.333314 12.333V2.99968H1.66665V12.333H11V13.6663H1.66665Z" fill="#3527D6"/>
</svg>
