<svg width="18" height="18" viewBox="0 0 18 18" fill="none" xmlns="http://www.w3.org/2000/svg">
<path d="M9 16.5L8.8125 14.25H8.625C6.85 14.25 5.34375 13.6312 4.10625 12.3937C2.86875 11.1562 2.25 9.65 2.25 7.875C2.25 6.1 2.86875 4.59375 4.10625 3.35625C5.34375 2.11875 6.85 1.5 8.625 1.5C9.5125 1.5 10.3407 1.6655 11.1097 1.9965C11.8787 2.3275 12.5538 2.78375 13.1348 3.36525C13.7158 3.94675 14.1718 4.62175 14.5028 5.39025C14.8337 6.15875 14.9995 6.987 15 7.875C15 8.8125 14.8467 9.7125 14.5402 10.575C14.2337 11.4375 13.815 12.2375 13.284 12.975C12.753 13.7125 12.1217 14.3813 11.3903 14.9813C10.6588 15.5813 9.862 16.0875 9 16.5ZM8.60625 11.9813C8.81875 11.9813 9 11.9062 9.15 11.7563C9.3 11.6062 9.375 11.425 9.375 11.2125C9.375 11 9.3 10.8188 9.15 10.6688C9 10.5188 8.81875 10.4438 8.60625 10.4438C8.39375 10.4438 8.2125 10.5188 8.0625 10.6688C7.9125 10.8188 7.8375 11 7.8375 11.2125C7.8375 11.425 7.9125 11.6062 8.0625 11.7563C8.2125 11.9062 8.39375 11.9812 8.60625 11.9813ZM8.0625 9.6H9.1875C9.1875 9.225 9.225 8.9625 9.3 8.8125C9.375 8.6625 9.6125 8.3875 10.0125 7.9875C10.2375 7.7625 10.425 7.51875 10.575 7.25625C10.725 6.99375 10.8 6.7125 10.8 6.4125C10.8 5.775 10.5842 5.29675 10.1528 4.97775C9.72125 4.65875 9.212 4.4995 8.625 4.5C8.075 4.5 7.6125 4.65325 7.2375 4.95975C6.8625 5.26625 6.6 5.638 6.45 6.075L7.5 6.4875C7.5625 6.275 7.68125 6.0655 7.85625 5.859C8.03125 5.6525 8.2875 5.5495 8.625 5.55C8.9625 5.55 9.2155 5.64375 9.384 5.83125C9.5525 6.01875 9.637 6.225 9.6375 6.45C9.6375 6.6625 9.575 6.85325 9.45 7.02225C9.325 7.19125 9.175 7.363 9 7.5375C8.5625 7.9125 8.29675 8.2095 8.20275 8.4285C8.10875 8.6475 8.062 9.038 8.0625 9.6Z" fill="#3527D6"/>
</svg>
