<svg width="18" height="18" viewBox="0 0 18 18" fill="none" xmlns="http://www.w3.org/2000/svg">
<path d="M15 12.75C15.3978 12.75 15.7794 12.592 16.0607 12.3107C16.342 12.0294 16.5 11.6478 16.5 11.25V3C16.5 2.60218 16.342 2.22064 16.0607 1.93934C15.7794 1.65804 15.3978 1.5 15 1.5H7.095C7.3575 1.9575 7.5 2.475 7.5 3H15V11.25H8.25V12.75M11.25 5.25V6.75H6.75V16.5H5.25V12H3.75V16.5H2.25V10.5H1.125V6.75C1.125 6.35218 1.28304 5.97064 1.56434 5.68934C1.84564 5.40804 2.22718 5.25 2.625 5.25H11.25ZM6 3C6 3.39782 5.84196 3.77936 5.56066 4.06066C5.27936 4.34196 4.89782 4.5 4.5 4.5C4.10218 4.5 3.72064 4.34196 3.43934 4.06066C3.15804 3.77936 3 3.39782 3 3C3 2.60218 3.15804 2.22064 3.43934 1.93934C3.72064 1.65804 4.10218 1.5 4.5 1.5C4.89782 1.5 5.27936 1.65804 5.56066 1.93934C5.84196 2.22064 6 2.60218 6 3Z" fill="#3527D6"/>
</svg>
