<svg width="15" height="14" viewBox="0 0 15 14" fill="none" xmlns="http://www.w3.org/2000/svg">
<path d="M4.11254 4.56905C3.94728 3.48057 4.71476 2.50283 5.88717 2.14462C6.09522 2.08101 6.3197 2.09912 6.51487 2.19525C6.71004 2.29139 6.86121 2.45832 6.93758 2.66204L7.31397 3.66573C7.37456 3.8272 7.38551 4.00309 7.34543 4.17082C7.30535 4.33856 7.21605 4.49049 7.089 4.60712L5.96937 5.63244C5.91418 5.68309 5.87306 5.74717 5.85001 5.81844C5.82696 5.88971 5.82277 5.96574 5.83785 6.03911L5.84823 6.0841L5.87506 6.19659C6.0143 6.74312 6.22646 7.26842 6.50582 7.75836C6.81014 8.27898 7.1878 8.7531 7.62719 9.16613L7.6618 9.19727C7.71769 9.24689 7.78549 9.28117 7.85858 9.29679C7.93167 9.31241 8.00756 9.30883 8.07885 9.2864L9.52641 8.83041C9.69092 8.77876 9.86712 8.77743 10.0324 8.82661C10.1977 8.87579 10.3445 8.97323 10.454 9.10642L11.1392 9.93793C11.4248 10.284 11.3902 10.7928 11.0622 11.0982C10.165 11.9349 8.93112 12.1062 8.07279 11.4166C7.02067 10.568 6.13373 9.5329 5.45628 8.36317C4.77333 7.19434 4.31714 5.9071 4.11168 4.56905H4.11254ZM6.7455 6.09622L7.67305 5.24481C7.92729 5.01166 8.10605 4.70784 8.18637 4.37236C8.26669 4.03688 8.24492 3.68504 8.12384 3.36203L7.74832 2.35834C7.59461 1.94842 7.29038 1.61254 6.89762 1.41914C6.50487 1.22574 6.05315 1.18937 5.63452 1.31744C4.1783 1.76304 3.00935 3.06871 3.25681 4.6997C3.42986 5.83837 3.82874 7.2868 4.7087 8.79926C5.43959 10.0605 6.39633 11.1765 7.53115 12.0915C8.81864 13.1255 10.537 12.7725 11.6532 11.7325C11.9726 11.4351 12.1664 11.0271 12.1952 10.5916C12.224 10.1562 12.0855 9.72618 11.8081 9.38936L11.1228 8.55699C10.9036 8.29091 10.6099 8.09637 10.2794 7.99832C9.94883 7.90028 9.59656 7.90319 9.2677 8.00669L8.06587 8.3848C7.75557 8.06486 7.48376 7.70971 7.256 7.3266C7.03598 6.93928 6.86453 6.52633 6.7455 6.09708V6.09622Z" fill="#F0EDFF"/>
</svg>
